<?xml version="1.0" encoding="utf-8"?>
<!-- Generator: Adobe Illustrator 20.0.0, SVG Export Plug-In . SVG Version: 6.00 Build 0)  -->
<svg version="1.1" id="圖層_1" xmlns="http://www.w3.org/2000/svg" xmlns:xlink="http://www.w3.org/1999/xlink" x="0px" y="0px"
	 viewBox="0 0 800 160" style="enable-background:new 0 0 800 160;" xml:space="preserve">
<style type="text/css">
	.st0{fill:#FFF100;stroke:#EA9124;stroke-width:4;stroke-linecap:round;stroke-linejoin:round;stroke-miterlimit:10;}
	.st1{fill:#E3E3E3;stroke:#B3B3B3;stroke-width:4;stroke-linecap:round;stroke-linejoin:round;stroke-miterlimit:10;}
	.st2{fill:#FFF100;}
	.st3{fill:#E3E3E3;}
	.st4{fill:none;}
	.st5{fill:#EA9124;}
	.st6{fill:#B3B3B3;}
</style>
<polygon class="st0" points="359.9,5.3 370.6,28.2 395.8,31.3 377.4,48.5 382.1,73.4 359.9,61.1 337.9,73.4 342.6,48.5 324.3,31.3 
	349.4,28.2 "/>
<polygon class="st0" points="279.9,5.3 290.7,28.2 315.7,31.3 297.3,48.5 302,73.4 279.9,61.1 257.9,73.4 262.7,48.5 244.3,31.3 
	269.3,28.2 "/>
<polygon class="st0" points="200,5.3 210.7,28.2 235.8,31.3 217.3,48.5 222.1,73.4 200,61.1 177.9,73.4 182.7,48.5 164.2,31.3 
	189.3,28.2 "/>
<polygon class="st0" points="120,5.3 130.7,28.2 155.8,31.3 137.2,48.5 142.1,73.4 120,61.1 97.9,73.4 102.7,48.5 84.2,31.3 
	109.2,28.2 "/>
<polygon class="st0" points="40.1,5.3 50.8,28.2 75.8,31.3 57.4,48.5 62.2,73.4 40.1,61.1 18.1,73.4 22.8,48.5 4.3,31.3 29.4,28.2 
	"/>
<polygon class="st1" points="440.1,5.3 450.8,28.2 475.8,31.3 457.4,48.5 462.1,73.4 440.1,61.1 417.9,73.4 422.8,48.5 404.3,31.3 
	429.4,28.2 "/>
<polygon class="st1" points="520.1,5.3 530.7,28.2 555.7,31.3 537.3,48.5 542.1,73.4 520.1,61.1 498,73.4 502.7,48.5 484.3,31.3 
	509.3,28.2 "/>
<polygon class="st1" points="600,5.3 610.7,28.2 635.8,31.3 617.3,48.5 622.1,73.4 600,61.1 577.9,73.4 582.7,48.5 564.2,31.3 
	589.3,28.2 "/>
<polygon class="st1" points="680,5.3 690.8,28.2 715.8,31.3 697.3,48.5 702.1,73.4 680,61.1 658,73.4 662.8,48.5 644.2,31.3 
	669.3,28.2 "/>
<polygon class="st1" points="759.9,5.3 770.6,28.2 795.8,31.3 777.3,48.5 782,73.4 759.9,61.1 737.8,73.4 742.6,48.5 724.3,31.3 
	749.3,28.2 "/>
<polygon class="st0" points="279.9,85.3 290.7,108.2 315.7,111.3 297.3,128.5 302,153.4 279.9,141.1 257.9,153.4 262.7,128.5 
	244.3,111.3 269.3,108.2 "/>
<polygon class="st0" points="200,85.3 210.7,108.2 235.8,111.3 217.3,128.5 222.1,153.4 200,141.1 177.9,153.4 182.7,128.5 
	164.2,111.3 189.3,108.2 "/>
<polygon class="st0" points="120,85.3 130.7,108.2 155.8,111.3 137.2,128.5 142.1,153.4 120,141.1 97.9,153.4 102.7,128.5 
	84.2,111.3 109.2,108.2 "/>
<polygon class="st0" points="40.1,85.3 50.8,108.2 75.8,111.3 57.4,128.5 62.2,153.4 40.1,141.1 18.1,153.4 22.8,128.5 4.3,111.3 
	29.4,108.2 "/>
<polygon class="st1" points="440.1,85.3 450.8,108.2 475.8,111.3 457.4,128.5 462.1,153.4 440.1,141.1 417.9,153.4 422.8,128.5 
	404.3,111.3 429.4,108.2 "/>
<polygon class="st1" points="520.1,85.3 530.7,108.2 555.7,111.3 537.3,128.5 542.1,153.4 520.1,141.1 498,153.4 502.7,128.5 
	484.3,111.3 509.3,108.2 "/>
<polygon class="st1" points="600,85.3 610.7,108.2 635.8,111.3 617.3,128.5 622.1,153.4 600,141.1 577.9,153.4 582.7,128.5 
	564.2,111.3 589.3,108.2 "/>
<polygon class="st1" points="680,85.3 690.8,108.2 715.8,111.3 697.3,128.5 702.1,153.4 680,141.1 658,153.4 662.8,128.5 
	644.2,111.3 669.3,108.2 "/>
<polygon class="st1" points="759.9,85.3 770.6,108.2 795.8,111.3 777.3,128.5 782,153.4 759.9,141.1 737.8,153.4 742.6,128.5 
	724.3,111.3 749.3,108.2 "/>
<polygon class="st2" points="360,85.3 349.4,108.2 324.3,111.3 342.7,128.5 337.9,153.4 360,141.1 360,141.1 360,85.4 "/>
<polygon class="st3" points="377.4,128.5 395.8,111.3 370.7,108.2 360,85.4 360,141.1 382.2,153.4 "/>
<path class="st4" d="M351.2,109c-0.3,0.6-0.9,1.1-1.6,1.1l-20.9,2.6L344,127c0.5,0.5,0.7,1.2,0.6,1.8l-4,20.7l18.4-10.2
	c0.3-0.2,0.6-0.3,1-0.3c0,0,0,0,0,0v-49l0-0.1L351.2,109z"/>
<path class="st4" d="M360.9,139.4l18.5,10.2l-4-20.7c-0.1-0.7,0.1-1.4,0.6-1.8l15.3-14.3l-20.9-2.6c-0.7-0.1-1.3-0.5-1.6-1.1
	L360,90.1v49C360.3,139.1,360.6,139.2,360.9,139.4z"/>
<path class="st5" d="M360,139.1c-0.3,0-0.7,0.1-1,0.3l-18.4,10.2l4-20.7c0.1-0.7-0.1-1.4-0.6-1.8l-15.3-14.3l20.9-2.6
	c0.7-0.1,1.3-0.5,1.6-1.1l8.8-19l0,0.1v-6.8c0,0,0,0,0,0c0,0,0,0,0,0c-0.8,0-1.5,0.5-1.8,1.2L348,106.4l-24,3
	c-0.8,0.1-1.4,0.6-1.7,1.4c-0.2,0.7,0,1.5,0.5,2.1l17.6,16.4l-4.6,23.8c-0.1,0.8,0.2,1.5,0.8,2c0.3,0.3,0.8,0.4,1.2,0.4
	c0.3,0,0.7-0.1,1-0.3l21.1-11.8l0,0L360,139.1C360,139.1,360,139.1,360,139.1z M349.4,108.2L349.4,108.2L349.4,108.2z"/>
<path class="st6" d="M397.7,110.7c-0.2-0.7-0.9-1.3-1.7-1.4l-24-3l-10.2-21.9c-0.3-0.7-1-1.1-1.8-1.1v6.8l8.8,18.9
	c0.3,0.6,0.9,1.1,1.6,1.1l20.9,2.6L376,127c-0.5,0.5-0.7,1.2-0.6,1.8l4,20.7l-18.5-10.2c-0.3-0.2-0.6-0.2-0.9-0.2v4.3l21.2,11.7
	c0.7,0.4,1.5,0.3,2.1-0.1c0.6-0.5,0.9-1.2,0.8-2l-4.6-23.8l17.6-16.4C397.7,112.2,397.9,111.4,397.7,110.7z"/>
</svg>
