<?xml version="1.0" encoding="utf-8"?>
<!-- Generator: Adobe Illustrator 21.1.0, SVG Export Plug-In . SVG Version: 6.00 Build 0)  -->
<svg version="1.1" id="圖層_1" xmlns="http://www.w3.org/2000/svg" xmlns:xlink="http://www.w3.org/1999/xlink" x="0px" y="0px"
	 viewBox="0 0 100 40" style="enable-background:new 0 0 100 40;" xml:space="preserve">
<style type="text/css">
	.st0{fill:#C72415;}
	.st1{fill:#FFFFFF;}
	.st2{fill:#CA0302;}
	.st3{fill:#CB0301;}
	.st4{fill:#C90404;}
	.st5{fill:#CA0504;}
	.st6{fill:#CA0604;}
	.st7{fill:#CC310F;}
	.st8{fill:#C80504;}
	.st9{fill:#F59A0D;}
	.st10{fill:#FAA408;}
	.st11{fill:#F89905;}
	.st12{fill:#FAA109;}
	.st13{fill:#FAA006;}
	.st14{fill:#FA9E05;}
	.st15{fill:#F9A109;}
	.st16{fill:#C51A1B;}
	.st17{fill:#E6690E;}
	.st18{fill:#BD3B40;}
	.st19{fill:#FAA207;}
	.st20{fill:#FBA609;}
	.st21{fill:#F89B08;}
	.st22{fill:#CB290C;}
	.st23{fill:#CF330E;}
	.st24{fill:#D02F0F;}
	.st25{fill:#D2280B;}
	.st26{fill:#F9A208;}
	.st27{fill:#EE8610;}
	.st28{fill:#EEEEEE;}
	.st29{fill:#0A1214;}
	.st30{fill:#7F94A9;}
	.st31{fill:#02090F;}
</style>
<path class="st0" d="M74.3,28c0,0,2.2,1,2,3.1c-0.1,2.1-1.6,2.8-1.6,2.8l-3.1,0.4l-4.4-0.9l-0.8-0.9l-3-0.4c0,0-0.8-0.8,0.2-1.6
	c-1.5-0.1-2.3-0.3-2.6-0.9C60.7,29.1,74.3,28,74.3,28z"/>
<path class="st1" d="M11.4,18.3c0,0,13.3-1,14.4-0.8c1.1,0.1,38.4-0.2,38.4-0.2L81,17.1c0,0,4.9-0.5,8.2,0.5c3.3,1,6.1,3.5,6.1,3.5
	l3.4,2.2c0,0,1.2,1.3-0.3,2.2c-1.5,0.9-1.7,1.7-4.2,2c-2.6,0.3-13.7,0.9-13.7,0.9l-24.9,1.1l-18.4-1c0,0,0.2,0.4-3.4-0.1
	s-16-3.4-16-3.4L6.5,21.3c0,0-0.6-0.5,0.2-1.4C6.8,19.8,11.4,18.3,11.4,18.3z"/>
<g>
	<path class="st2" d="M18.3,14.1c-0.6-0.4-1.2-0.8-1.9-1.1c-0.1,0-0.2-0.1-0.2,0C16,13,16,13.1,16,13.2c0,0.1,0,0.1,0,0.2
		c0,0.1,0,0.2,0,0.2c0,0.1,0,0.1,0,0.2c0,0.1,0,0.2,0.1,0.3c0,0,0,0.1,0.1,0.1c0.1,0.1,0.1,0.2,0.1,0.3c-0.3,0.7-0.9,1.3-1.5,1.8
		c-0.6,0.5-1.2,0.9-1.8,1.5c-0.2,0.2-0.4,0.3-0.4,0.6c0.6,0,1.3,0,1.9,0c0.2-0.2,0.3-0.4,0.5-0.7c0.4-0.9,0.8-1.9,1.5-2.5
		c-0.2,0.8-0.8,1.6-1.3,2.4c-0.2,0.3-0.4,0.5-0.4,0.8c0.5,0.1,1,0.1,1.5,0.2c0.2-0.2,0.2-0.5,0.2-0.8c0.1-0.9,0.2-1.9,0.5-2.7
		c0,0.9-0.2,1.8-0.5,2.7c-0.1,0.3-0.2,0.5-0.1,0.8c0.5,0.1,1,0.2,1.5,0.3c0.2-0.2,0.1-0.5,0-0.7c-0.2-1-0.6-1.9-0.5-2.9
		c0.5,1.1,0.3,2.4,0.7,3.7c0.4,0.2,0.7,0.3,1.1,0.5c0.7,0.4,0.7,0.8,0,1.2c-1.1,0.6-2.2,0.9-3.5,0.9c-0.1,0-0.2,0.1-0.1,0.2
		c2.2,0.3,4.1-0.2,5.9-1.4c2.2-1.5,4.7-2.1,7.3-2.3c0.6,0,1.2-0.1,1.9-0.1c-0.2-0.3-0.5-0.1-0.8-0.1c-2-0.1-4-0.1-5.9-0.6
		c-0.5-0.1-0.9-0.3-1.4-0.4c0.1,0.6,0.7,0.5,0.9,0.8c-1.2-0.9-2.7-1.4-4-2.3c-0.1-0.1-0.3-0.1-0.4-0.1c-0.1,0.3,0.1,0.5,0.3,0.6
		c0.8,0.9,1.6,1.8,2.3,2.5c-0.7-0.9-1.9-1.7-2.8-2.7c-0.3-0.3-0.6-0.6-0.7-1C18.3,14.4,18.4,14.2,18.3,14.1z"/>
	<path class="st3" d="M10.7,9.4C9.4,8.2,7.9,8.6,6.3,8.5c1.1,1.4,2,2.8,3,4.1c0.4,0.3,0.9,0.1,1.4,0.3c1.1,0,2.3,0.3,3.4,0.2
		c0.2,0,0.4,0,0.5-0.2c-0.1-0.3-0.3-0.3-0.5-0.3c-0.8-0.2-1.5-0.6-2.3-0.8c-0.7-0.2-1.4-0.5-2.2-0.8c0.8,0.3,1.6,0.6,2.4,0.8
		c0.9,0.2,1.7,0.6,2.6,0.7c0.1,0,0.2-0.1,0.2-0.2c0-0.3-0.3-0.3-0.4-0.4c-1.2-0.7-2.3-1.6-3.6-2.3C10.8,9.6,10.7,9.5,10.7,9.4z"/>
	<path class="st4" d="M9.5,12.8c0.3,0.4,0.6,0.8,0.9,1.3c0.7,0.2,1.4,0,2-0.1c0.7-0.1,1.4-0.1,2.1-0.2c0.2,0,0.5,0,0.6-0.3
		c-0.5-0.3-1.1-0.2-1.6-0.3c-1-0.2-2.1-0.2-3.1-0.4C10.1,12.9,9.7,12.5,9.5,12.8z"/>
	<path class="st5" d="M12.2,16.6c0.4,0.8,0.4,0.9-0.8,1.8c0.4,0,0.7-0.1,1-0.1c0.5-0.3,0.9-0.7,1.2-1.1c0.6-0.6,1.2-1.2,1.7-1.9
		c0-0.1-0.1-0.2-0.2-0.2C14.1,15.5,13,15.8,12.2,16.6z"/>
	<path class="st6" d="M10.5,14.3c0.2,0.3,0.5,0.7,0.7,1c0.1,0,0,0,0.1,0c1.3-0.2,2.5-0.7,3.7-1.2c0-0.1-0.1-0.2-0.2-0.2
		c-0.9,0-1.8,0.1-2.8,0.2C11.5,14.1,10.9,14,10.5,14.3z"/>
	<path class="st7" d="M19.2,15.1c1.6,0.9,3.3,1.6,4.8,2.6c-0.2-0.6-1-0.7-1.3-1.1c-1.5-0.7-2.9-1.7-4.4-2.5c0,0.2-0.2,0.2-0.3,0.4
		c0.2,0.1,0.4,0.3,0.6,0.5C18.8,15.1,18.9,15.3,19.2,15.1z"/>
	<path class="st8" d="M11.4,15.5c0.2,0.3,0.5,0.6,0.7,1c1.1-0.5,2.1-1.1,3-1.8c0-0.1-0.1-0.2-0.2-0.2c-1.2,0.2-2.3,0.6-3.4,0.9
		C11.4,15.4,11.4,15.4,11.4,15.5z"/>
	<path class="st9" d="M10.7,9.4c-0.1,0.2,0.1,0.3,0.2,0.4c1.4,0.8,2.6,1.8,4,2.6c0.3,0.4,0.8,0.6,1.3,0.6c0.1,0,0.2,0,0.3,0
		c-1.2-1-2.6-1.6-3.9-2.5C11.8,10.1,11.2,9.8,10.7,9.4z"/>
	<path class="st10" d="M15.3,15.2c-1.1,0.9-1.9,2.1-2.9,3c0.1,0,0.2,0,0.3,0c0.6-0.7,1.4-1.3,2.1-1.9c0.6-0.5,1.1-1.1,1.6-1.7
		c0.1-0.1,0.3-0.2,0-0.3C15.9,14.5,15.5,14.7,15.3,15.2z"/>
	<path class="st11" d="M18.2,18.9c-0.1-1.4,0-2.9-0.7-4.2c-0.2,0.8-0.1,1.6,0.2,2.7c0.1,0.5,0.3,0.9,0.3,1.4
		C18,18.9,18.1,18.9,18.2,18.9z"/>
	<path class="st12" d="M10.5,14.3c0.9,0,1.7-0.1,2.6-0.1c0.6,0,1.1-0.1,1.7-0.1c0.4,0,0.9,0.2,1.2-0.3l0,0c-0.3-0.2-0.6-0.2-0.9-0.2
		c-0.9,0.3-1.8,0.1-2.7,0.3c-0.7,0.1-1.3,0.2-2,0.3C10.4,14.2,10.4,14.2,10.5,14.3z"/>
	<path class="st13" d="M14.7,18.3c0.8-1.2,1.7-2.3,2.1-3.9c-1.2,1.2-1.7,2.5-2.2,3.8C14.6,18.3,14.7,18.3,14.7,18.3z"/>
	<path class="st14" d="M16.5,18.5c0.3-1.2,0.9-2.5,0.6-3.9c-0.7,1.3-0.7,2.6-0.8,3.9C16.3,18.4,16.4,18.5,16.5,18.5z"/>
	<path class="st15" d="M11.4,15.5c1.2-0.3,2.4-0.6,3.5-0.9c0.4,0,0.9-0.1,1.2-0.5c0,0,0-0.1,0-0.1c-0.4-0.2-0.8,0-1.2,0.2
		c-1.3,0.2-2.5,0.8-3.7,1.2C11.2,15.4,11.3,15.4,11.4,15.5z"/>
	<path class="st10" d="M15,14.6c-1.1,0.5-2,1.1-3,1.8c0,0,0.1,0.1,0.1,0.1c1-0.5,2-0.9,3-1.5c0.4-0.2,0.8-0.4,1.2-0.9
		C15.7,14.2,15.4,14.4,15,14.6z"/>
	<path class="st16" d="M15.7,21.7c0-0.1,0.1-0.1,0.1-0.2c-0.4,0-0.8,0-1.4,0C14.9,21.6,15.3,21.7,15.7,21.7z"/>
	<path class="st17" d="M9.5,12.8c0.3-0.2,0.6,0.1,0.8,0c0.1-0.1,0.3,0,0.4-0.1c-0.4-0.2-0.9-0.1-1.4-0.1C9.4,12.7,9.4,12.8,9.5,12.8
		z"/>
	<path class="st18" d="M30,17.7c0.3,0.1,0.6-0.1,0.8,0.1c0.2,0,0.4,0.1,0.6-0.1C30.8,17.5,30.4,17.6,30,17.7z"/>
	<path class="st19" d="M17.8,14.5c0.4,2.1,1.9,3.4,2.6,5.1C19.6,17.9,19.2,16,17.8,14.5z"/>
	<path class="st20" d="M19.2,15.1c-0.4-0.1-0.7-0.6-1.1-0.7c0.6,0.9,1.3,1.7,2.2,2.4c0.8,0.6,1.4,1.3,2.1,2c0,0,0.1-0.1,0.1-0.1
		C21.3,17.5,20.2,16.3,19.2,15.1z"/>
	<path class="st21" d="M10.7,12.7c-0.1,0-0.3,0-0.4,0.1c1.6,0.2,3.2,0.6,4.8,0.6c0.3,0.2,0.6,0.1,0.9,0.2c0-0.1,0.1-0.2,0.1-0.2
		c-0.4-0.5-1-0.3-1.4-0.4c-0.2,0-0.3,0.1-0.5,0C13,12.9,11.8,12.8,10.7,12.7z"/>
	<path class="st22" d="M15,14.6c0.4-0.2,0.7-0.3,1.1-0.5c0,0,0,0.1,0.1,0.1c-0.3,0.3-0.7,0.5-1,0.8c0,0,0.1,0.1,0.1,0.1
		c0.4-0.3,0.7-0.6,1.1-0.8c0-0.2-0.1-0.3-0.3-0.3c-0.4,0.2-0.8,0.3-1.2,0.5C14.9,14.6,15,14.6,15,14.6z"/>
	<path class="st23" d="M14.1,13c0.6,0.3,1.3,0.2,1.9,0.4c0,0,0-0.1,0-0.1C16,13.2,16,13.1,15.9,13c-0.5,0-0.9-0.4-1.4-0.2
		C14.4,13,14.3,12.9,14.1,13z"/>
	<path class="st24" d="M16,13.2c0,0,0.1,0.1,0.1,0.1c0-0.1,0-0.2,0-0.3c-0.4-0.3-0.9-0.4-1.3-0.6c0,0-0.1,0.1-0.1,0.1
		c0.1,0.4,0.4,0.3,0.7,0.5C15.5,13,15.8,13,16,13.2z"/>
	<path class="st25" d="M14.9,14.1c0.4-0.1,0.8-0.1,1.2-0.2c0-0.1,0-0.2-0.1-0.3c-0.4,0.3-0.8,0.1-1.2,0.3
		C14.8,14,14.9,14.1,14.9,14.1z"/>
	<path class="st26" d="M16,13.2c-0.3-0.4-0.9-0.4-1.3-0.7c-0.9-0.3-1.7-0.6-2.7-0.7c-0.1,0-0.3-0.1-0.3,0.1c0.9,0.4,1.8,0.8,2.8,1
		C15,13,15.5,13.1,16,13.2z"/>
	<path class="st27" d="M11.7,11.9c0.1,0,0.2-0.1,0.3-0.1c-0.8-0.3-1.6-0.6-2.5-0.8c0,0.1,0,0.1-0.1,0.2C10.2,11.3,11,11.6,11.7,11.9
		z"/>
</g>
<path class="st28" d="M53,21.8l-27.5-9.7L20,11l8,4.3l-0.9,1L42,22.9l5.1,4.2l2.2-0.4l2.5-3.6L53,21.8z"/>
<polygon class="st29" points="89.2,19.8 89.7,19.4 90.6,19.5 92,19.6 93.5,19.9 94.7,20.9 92.7,20.6 90.2,20.7 88.9,20.7 "/>
<polygon class="st30" points="16.7,20.5 3.3,16.9 0.2,16.5 11,20.7 "/>
<path class="st0" d="M60.3,22.5c0,0,2.3,1,2.5,3c-0.1,2.1-2.2,3.8-2.2,3.8l-2.8,0.1l-4.1-1.1L53,27.6L49.9,27c0,0-0.8-0.8,0.2-1.6
	c-1.5-0.1-2-1.1-2.3-1.7C47.4,23.2,60.3,22.5,60.3,22.5z"/>
<ellipse transform="matrix(0.1293 -0.9916 0.9916 0.1293 33.9847 101.4738)" class="st31" cx="74.8" cy="31.4" rx="2.1" ry="0.8"/>
<ellipse transform="matrix(0.1293 -0.9916 0.9916 0.1293 27.5153 83.4304)" class="st31" cx="61.3" cy="26" rx="2.1" ry="0.8"/>
</svg>
