<?xml version="1.0" encoding="utf-8"?>
<!-- Generator: Adobe Illustrator 21.1.0, SVG Export Plug-In . SVG Version: 6.00 Build 0)  -->
<svg version="1.1" id="圖層_1" xmlns="http://www.w3.org/2000/svg" xmlns:xlink="http://www.w3.org/1999/xlink" x="0px" y="0px"
	 viewBox="0 0 100 40" style="enable-background:new 0 0 100 40;" xml:space="preserve">
<style type="text/css">
	.st0{fill:#CCCCCC;}
	.st1{fill:#FFFFFF;}
	.st2{fill:#868FD0;}
	.st3{fill:#1F1C2D;}
	.st4{fill:#EEEEEE;}
	.st5{fill:url(#SVGID_1_);}
	.st6{fill:#485075;}
	.st7{fill:#19172F;}
	.st8{fill:#1C3377;}
	.st9{fill:#7D9EE1;}
	.st10{fill:#E78A90;}
	.st11{fill:#B6092D;}
	.st12{fill:#E9718C;}
	.st13{fill:#FEFEFE;}
</style>
<path class="st0" d="M24.5,29.8c0,0-2.3,0.7-2.4,2.8s1.2,3,1.2,3l3,0.8l4.5-0.3l0.9-0.8h3c0,0,0.9-0.7,0-1.7c1.5,0.1,2.3,0,2.7-0.5
	S24.5,29.8,24.5,29.8z"/>
<path class="st1" d="M87.5,28.5l-10.8-4c0,0-1.7,1.1-2.8,1.1c-1.1,0-38-5.1-38-5.1l-16.7-2.4c0,0-4.8-1.1-8.2-0.6
	c-3.4,0.6-6.5,2.7-6.5,2.7L0.9,22c0,0-1.4,1.1,0,2.2s1.5,1.9,3.9,2.6c2.5,0.6,13.5,2.6,13.5,2.6l24.6,4.3l18.3,1.4
	c0,0-0.2,0.3,3.4,0.3S81,34.1,81,34.1l11.6-2.2c0,0,0.6-0.4,0-1.4C92.4,30.3,87.5,28.5,87.5,28.5z"/>
<path class="st2" d="M55.7,31.9c-20.9-1.2-39.1-4.5-49.1-8.4c1.8,0.9,3.7,2,4.6,3c1,1,1.7,1.7,2.1,2.1c2.7,0.5,5,0.9,5,0.9l24.6,4.3
	l18.3,1.4c0,0-0.2,0.3,3.4,0.3S81,34.2,81,34.2L92.6,32c0,0,0.3-0.2,0.3-0.7C82.7,32.3,69.8,32.6,55.7,31.9z"/>
<polygon class="st3" points="10.8,19.7 10.3,19.3 9.4,19.2 8,19.1 6.4,19.3 5.1,20.1 7.2,20.1 9.6,20.5 10.9,20.7 "/>
<path class="st4" d="M80.5,20l-5.6,0.3l-28.5,6.1l0.9,1.4l-3.5-0.7l-0.6-0.9L40,25.8l-1.1,0.3L38,26.5c0,0-2,0.1-2.2,2.3
	s1.6,4,3.1,4.2s3.3,0,3.3,0l0.7-0.6l6.6-0.7l2.1,0.7l5.6-3.5l15.6-4.7L72,23.1L80.5,20z"/>
<linearGradient id="SVGID_1_" gradientUnits="userSpaceOnUse" x1="81.6311" y1="12.619" x2="85.9192" y2="28.6222" gradientTransform="matrix(1 0 0 -1 0 40)">
	<stop  offset="0" style="stop-color:#9C8CCD"/>
	<stop  offset="5.679989e-02" style="stop-color:#B5A9DA"/>
	<stop  offset="0.1244" style="stop-color:#CCC4E5"/>
	<stop  offset="0.2021" style="stop-color:#DFDAEF"/>
	<stop  offset="0.2929" style="stop-color:#EDEBF6"/>
	<stop  offset="0.4052" style="stop-color:#F8F6FB"/>
	<stop  offset="0.5627" style="stop-color:#FDFDFE"/>
	<stop  offset="1" style="stop-color:#FFFFFF"/>
</linearGradient>
<polygon class="st5" points="76.1,25.3 87.5,12.4 91.6,12.9 87.3,28.9 "/>
<polygon class="st6" points="82.6,29.8 96.3,27.9 99.4,27.9 88.2,30.7 "/>
<ellipse class="st7" cx="23.6" cy="33" rx="0.8" ry="2.1"/>
<ellipse class="st7" cx="37.4" cy="29.3" rx="0.8" ry="2.1"/>
<polygon class="st8" points="2.2,21.3 9.4,24.9 13.2,25.6 3.5,20.7 "/>
<polygon class="st9" points="3.5,20.7 13.2,25.6 17.9,26.9 4.6,20.1 "/>
<g>
	<path class="st10" d="M87.2,23.8c0,0.2-0.1,0.4-0.2,0.5c-0.3,0.2-0.7,0.4-1.1,0.3c-0.1,0-0.3-0.1-0.4-0.1c0-0.2-0.3-0.4-0.5-0.4
		c-0.1,0-0.3,0.4-0.4,0.5c-0.7,0.4-1.4,0.3-2-0.2c-0.1-0.1-0.2-0.3-0.2-0.4c0.3,0.1,0.3,0.1,0.3-0.3l0,0c0.1,0,0.2,0,0.2,0
		c0.2,0.2,0.5,0.2,0.7,0.2s0.4,0,0.5-0.3l0,0c0.1,0.1,0.1,0,0.1,0l0,0c0.2-0.2,0.3-0.5,0.2-0.8l0,0c0,0,0.1,0,0.1-0.1l0,0
		c0.1,0,0.2-0.2,0.3-0.1l0,0l0,0c0,0.1,0,0.2,0,0.4c0,0.1-0.1,0.2-0.1,0.2c0,0.1,0,0.1,0,0.2c0.2,0.2,0.3,0.1,0.5-0.1
		c0.2,0,0.2-0.2,0.4-0.2c0.1,0.2,0.3,0.2,0.4,0.1c0.2-0.1,0.2-0.3,0.3-0.5c0-0.1,0.1-0.1,0-0.2c0,0-0.1,0-0.2,0
		c-0.1,0.1-0.2,0.1-0.3,0.2c-0.1,0-0.2,0-0.3-0.1v-0.1c0,0,0.1,0,0.1-0.1s-0.1,0-0.1-0.1c0.1,0,0.1-0.1,0.1-0.2
		c0.1,0,0.2,0.1,0.3,0.2c0.1,0.1,0.2,0.1,0.3,0c0.1-0.1,0.2-0.2,0.1-0.3c-0.1-0.1-0.2,0-0.2,0c-0.1,0-0.2,0.2-0.4,0.1
		c0-0.1,0-0.2,0.1-0.2c0.1-0.2,0.3,0,0.5-0.1c-0.1-0.2-0.2-0.4-0.2-0.6S86,20.9,86,20.7c0,0,0-0.1-0.1-0.1s-0.1,0.1-0.1,0.1
		c-0.1,0.2-0.1,0.4,0,0.6c0,0,0.1,0.1,0,0.1s-0.1-0.2-0.2-0.1c-0.1,0-0.1,0.1-0.1,0.3c0,0,0,0.1-0.1,0.1c-0.1-0.1-0.3-0.2-0.1-0.4
		c-0.1,0.1-0.2,0.2-0.2,0.2c-0.1,0.1-0.1,0.1-0.2,0.1c-0.2-0.1-0.4-0.1-0.7-0.1c0-0.2-0.2-0.3-0.4-0.3c-0.1-0.1-0.3-0.2-0.4-0.4
		c0,0.2-0.1,0.4-0.4,0.5c-0.5,0.3-0.7,1-0.5,1.6c0,0.1,0.1,0.2,0,0.2s-0.1,0-0.2,0c-0.2-0.2-0.4-0.4-0.6-0.5
		c-0.3-0.2-0.7-0.9-0.5-1.3c0.2-0.5,0.6-0.7,1.1-0.7c0.2,0,0.3,0.1,0.5,0.2c0.1,0.1,0.3,0,0.3-0.2c0-0.4,0.2-0.7,0.3-1
		c0-0.1,0.1-0.2,0.2-0.2c0.4-0.2,0.9-0.3,1.4-0.3c0.2,0,0.3,0.1,0.4,0.1c0.5,0.1,0.7,0.4,0.7,1c0,0.1,0,0.2,0.2,0.2
		c0.4,0,0.7,0,1.1,0.1c0.3,0,0.6,0.3,0.8,0.5c0.1,0.1,0.1,0.2,0.1,0.3c-0.1,0.3-0.1,0.6-0.4,0.9c-0.1,0.1-0.2,0.2-0.3,0.4
		c-0.1,0.2-0.2,0.3-0.5,0.3C87,22.9,87,23,87,23.1s0.1,0.3,0,0.4v0.1c0.2,0,0.2,0.1,0.1,0.3C87.1,23.8,87.2,23.8,87.2,23.8z
		 M85,21.2c0-0.1,0-0.2-0.1-0.2s-0.2,0.1-0.2,0.3c0,0.1,0,0.2,0.2,0.2C84.9,21.4,85,21.3,85,21.2z"/>
	<path class="st11" d="M84.7,24.6c0-0.1,0.3-0.5,0.4-0.5c0.2,0,0.5,0.2,0.5,0.4c-0.1,0.1-0.1,0.3,0,0.5C85.2,25,84.9,24.8,84.7,24.6
		z"/>
	<path class="st11" d="M82.4,23.1c0.1,0,0.1,0,0.2,0c0.2,0,0.2,0.2,0.3,0.3l0,0c0,0.1-0.1,0.1-0.1,0.2l0,0c0,0.3,0,0.3-0.3,0.3
		c0-0.1-0.1-0.1-0.1-0.1c-0.1-0.1-0.2,0-0.2-0.1C82.4,23.6,82.2,23.3,82.4,23.1z"/>
	<path class="st11" d="M87.2,23.8c0,0-0.1-0.1-0.1-0.2c0.1-0.1,0.1-0.2-0.1-0.3v-0.1c0.1-0.1,0-0.3,0-0.4c0.2,0,0.4,0,0.6,0.2
		c0.1,0.1,0.2,0.1,0.1,0.2C87.6,23.5,87.5,23.8,87.2,23.8z"/>
	<path class="st12" d="M82.9,23.5c-0.1-0.1-0.2-0.3-0.3-0.3c0.1-0.1,0.1-0.1,0-0.2c-0.3-0.6-0.1-1.2,0.5-1.6
		c0.3-0.2,0.4-0.3,0.4-0.5c0.2,0.1,0.3,0.3,0.4,0.4l-0.1,0.1c-0.1-0.1-0.2-0.1-0.2,0.1s0,0.3,0,0.5l-0.1-0.1c-0.1-0.1-0.2-0.1-0.2,0
		c-0.1,0-0.1,0.1-0.1,0.2c0,0.3,0,0.3,0.4,0.3c0,0.1-0.1,0.2,0,0.3c-0.2,0.1-0.3,0.3,0,0.5c-0.1,0.1-0.2,0.2-0.3,0.3
		c0.2,0,0.3-0.1,0.5-0.2c0,0,0,0,0.1,0s0.2,0,0.4-0.1C84,23.3,84.1,23,84,22.9l0.1-0.1c0.1,0,0.1,0,0.1-0.1s-0.1,0-0.1,0
		c-0.1,0-0.1,0-0.1-0.1c0.1-0.2,0-0.2-0.1-0.2s-0.1,0-0.2-0.1l0,0c0,0,0,0,0.1,0c0.1-0.1,0.1-0.1-0.1-0.1c0.1-0.1,0.2-0.1,0.3-0.1
		c0.1,0,0.2,0,0.3,0c0.2-0.1,0-0.2,0-0.3l0,0c0.2,0,0.4,0,0.7,0.1c0.1,0,0.2,0,0.2-0.1c0.1-0.1,0.1-0.2,0.2-0.2
		c-0.1,0.2,0,0.3,0.1,0.4c0,0-0.1,0-0.1,0.1h0.1c0.1,0,0.1,0,0.2,0c0,0,0,0.1,0.1,0.1s0.1-0.1,0.1-0.1C86,22,86,21.9,86,21.8
		c0.1,0,0-0.1,0-0.1c-0.1-0.2-0.1-0.4,0-0.6c0,0,0-0.1,0.1-0.1s0.1,0.1,0.1,0.1c0,0.2,0.1,0.3,0.1,0.5s0.1,0.4,0.2,0.6
		c-0.1,0.1-0.3-0.1-0.5,0.1c-0.1,0.1-0.1,0.1-0.1,0.2c-0.1,0.1-0.2,0-0.3,0.1c0.1,0,0.2,0,0.3,0c0,0.1,0,0.2-0.1,0.2s-0.2-0.1-0.4,0
		c0.1,0.1,0.3,0.1,0.4,0.2v0.1c0,0-0.1,0-0.1,0.1c0.2,0.1,0.1,0.2,0.1,0.3c-0.2,0-0.2,0.2-0.4,0.2c0-0.1,0-0.2,0-0.3
		c0-0.1,0-0.3-0.2-0.1l-0.1,0.1c0-0.1,0-0.2,0-0.4c0.1,0,0.1,0.1,0.2,0.1c-0.2-0.4-0.3-0.4-0.5-0.2c-0.1,0.1-0.1,0.1-0.2,0.2
		c0,0-0.1,0.1,0,0.1h0.1c0.1,0.3,0,0.7-0.2,0.8c0.1-0.2,0-0.3-0.1-0.5c-0.1,0.1-0.3,0.2-0.3,0.4c0,0.1,0.1,0.2,0.2,0.1
		c-0.1,0.2-0.3,0.3-0.5,0.3c-0.3,0-0.5,0-0.7-0.2C83,24,83,24,82.9,24.1C82.9,23.6,83,23.6,82.9,23.5C83,23.4,83,23.4,82.9,23.5
		C83,23.4,82.9,23.4,82.9,23.5z M85.1,22.1L85.1,22.1L85.1,22.1C85,22.1,85,22,85,21.9c-0.2,0.1-0.4,0.1-0.7-0.1
		c0.1,0.2,0.1,0.2-0.1,0.2c-0.1,0-0.2,0-0.3,0H84c0.1,0.1,0.3,0,0.3,0.2c0,0,0.1,0.1,0.1,0c0,0,0.1-0.1,0-0.1c0-0.1,0.2-0.1,0.4-0.1
		C84.9,22,85,22.2,85.1,22.1z M85.6,21.9C85.6,21.8,85.6,21.8,85.6,21.9C85.6,21.8,85.5,21.9,85.6,21.9L85.6,21.9L85.6,21.9z
		 M85.2,21.7C85.2,21.6,85.2,21.6,85.2,21.7C85.2,21.6,85.2,21.6,85.2,21.7C85.1,21.7,85.2,21.7,85.2,21.7L85.2,21.7z"/>
	<path class="st11" d="M85.1,22.9c0.1,0,0.1-0.1,0.1-0.1c0.2-0.1,0.2,0,0.2,0.1s0,0.2,0,0.3c-0.1,0.2-0.3,0.3-0.5,0.1
		c-0.1-0.1,0-0.1,0-0.2C85,23.1,85,23,85.1,22.9z"/>
	<path class="st11" d="M85.8,23.1c0-0.1,0.1-0.2-0.1-0.3c0,0,0-0.1,0.1-0.1c0.1,0.1,0.2,0,0.3,0.1c0.1,0.1,0.1,0.3,0.1,0.4
		C86.1,23.3,85.9,23.3,85.8,23.1z"/>
	<path class="st11" d="M85.9,22.2c-0.1,0-0.2,0-0.3,0C85.7,22.1,85.8,22.2,85.9,22.2c0.2,0,0.3-0.2,0.4-0.2s0.2-0.1,0.2,0
		c0.1,0.1-0.1,0.2-0.1,0.3c0,0.1-0.2,0.1-0.3,0C86.1,22.3,86,22.2,85.9,22.2z"/>
	<path class="st12" d="M86.3,23.1c0-0.2,0-0.3-0.1-0.4c0.1-0.1,0.2-0.2,0.3-0.2c0.1,0,0.1,0,0.2,0s0,0.1,0,0.2
		C86.5,22.8,86.4,23,86.3,23.1z"/>
	<path class="st11" d="M84.4,23.6c-0.1,0.1-0.2,0-0.2-0.1c-0.1-0.2,0.1-0.3,0.3-0.4c0.1,0.1,0.2,0.3,0.1,0.5l0,0
		C84.5,23.6,84.4,23.6,84.4,23.6L84.4,23.6z"/>
	<path class="st11" d="M84.3,21.5C84.2,21.5,84.2,21.5,84.3,21.5c-0.2,0.1-0.3,0.2-0.4,0c0-0.1-0.1-0.1-0.1-0.2l0.1-0.1
		C84.1,21.2,84.2,21.3,84.3,21.5z"/>
	<path class="st11" d="M86,21.4c0,0.1,0,0.2-0.1,0.3h-0.1c-0.1,0-0.1,0-0.2,0h-0.1c0-0.1,0.1,0,0.1-0.1c0.1,0,0.1,0,0.1-0.1
		s0-0.2,0.1-0.3C85.8,21.2,85.9,21.4,86,21.4z"/>
	<path class="st11" d="M85,21.2c0,0.1-0.1,0.2-0.2,0.2s-0.2,0-0.2-0.2c0-0.1,0.1-0.2,0.2-0.3C85,21,85,21.1,85,21.2z"/>
	<path class="st11" d="M84.7,22.5c0.2-0.2,0.3-0.2,0.5,0.2c-0.1,0-0.2-0.1-0.2-0.1l0,0l0,0C85,22.4,84.9,22.5,84.7,22.5
		C84.8,22.5,84.8,22.5,84.7,22.5z"/>
	<path class="st11" d="M85.8,22.5c-0.1-0.1-0.2-0.1-0.4-0.2c0.1-0.1,0.3,0,0.4,0C85.8,22.4,85.9,22.4,85.8,22.5
		C85.9,22.5,85.8,22.5,85.8,22.5z"/>
	<path class="st11" d="M84.7,22.7C84.7,22.7,84.6,22.8,84.7,22.7c-0.2,0-0.1-0.1-0.1-0.1c0-0.1,0.1-0.1,0.2-0.2l0,0
		C84.8,22.5,84.7,22.6,84.7,22.7L84.7,22.7L84.7,22.7L84.7,22.7z"/>
	<path class="st12" d="M84.7,22.7c0-0.1,0-0.1,0.1-0.2c0.1,0,0.2-0.1,0.2,0C84.9,22.5,84.8,22.6,84.7,22.7z"/>
	<path class="st13" d="M84.4,23.6C84.4,23.6,84.5,23.6,84.4,23.6C84.5,23.6,84.5,23.7,84.4,23.6z"/>
	<path class="st13" d="M84.7,22.7L84.7,22.7L84.7,22.7z"/>
	<path class="st10" d="M82.9,23.5C82.9,23.4,83,23.4,82.9,23.5C83,23.4,83,23.4,82.9,23.5C83,23.5,83,23.5,82.9,23.5z"/>
	<path class="st10" d="M83.7,21.3c0,0.1,0.1,0.1,0.1,0.2c0.1,0.2,0.3,0.1,0.4,0c-0.1,0.1,0.2,0.2,0,0.3c-0.1,0.1-0.2,0.1-0.3,0
		c-0.1,0-0.2-0.1-0.3,0.1h-0.1c0-0.2,0-0.3,0-0.5C83.6,21.2,83.6,21.2,83.7,21.3z M84.2,21.7C84.1,21.7,84.1,21.7,84.2,21.7
		C84.1,21.7,84.1,21.7,84.2,21.7C84.1,21.7,84.1,21.7,84.2,21.7C84.1,21.7,84.1,21.7,84.2,21.7z"/>
	<path class="st11" d="M83.5,21.9C83.5,21.9,83.6,21.9,83.5,21.9c0.2,0.1,0.2,0.1,0.1,0.2c0,0,0,0-0.1,0l0,0c-0.1,0-0.1,0.1-0.2,0.2
		c-0.3,0-0.4,0-0.4-0.3c0-0.1,0-0.2,0.1-0.2C83.3,21.7,83.3,21.7,83.5,21.9C83.5,21.8,83.5,21.8,83.5,21.9z"/>
	<path class="st11" d="M83.9,22.5l-0.1,0.1c-0.1,0.1-0.1,0.3-0.2,0.4c0,0,0,0-0.1,0s-0.1,0-0.2,0c-0.2-0.2-0.2-0.3,0-0.5
		C83.6,22.5,83.8,22.5,83.9,22.5z"/>
	<path class="st10" d="M83.9,22.5c-0.2,0-0.3,0-0.5,0c-0.1-0.1,0-0.2,0-0.3c0-0.1,0-0.2,0.2-0.2c0,0.1,0.1,0.1,0.2,0.1
		s0.3,0,0.1,0.2C83.9,22.3,83.9,22.4,83.9,22.5l0.2-0.1C84,22.5,84,22.5,83.9,22.5z"/>
	<path class="st11" d="M85.1,22.1C85,22.2,84.9,22,84.8,22s-0.3-0.1-0.2,0.2c0,0.1,0,0.1,0,0.1h-0.1c0-0.2-0.2-0.1-0.3-0.2h-0.1
		c0.1,0,0.2,0,0.3,0c0.2,0,0.2,0,0.1-0.2c0.2,0.1,0.4,0.2,0.7,0.1C85,22,85,22.1,85.1,22.1L85.1,22.1z"/>
	<path class="st10" d="M83.6,23.1c0.1-0.1,0-0.3,0.2-0.4c0,0.1-0.1,0.3,0.3,0.3C83.9,23,83.8,23.1,83.6,23.1z"/>
	<path class="st10" d="M83.4,23.1c0.1,0,0.1,0,0.2,0c-0.1,0.1-0.3,0.2-0.5,0.2C83.2,23.2,83.3,23.1,83.4,23.1z"/>
	<path class="st10" d="M85.7,21.7L85.7,21.7c0.1,0.1,0.1,0.1,0,0.1C85.7,21.8,85.7,21.8,85.7,21.7z"/>
	<path class="st10" d="M85.6,21.9L85.6,21.9L85.6,21.9C85.5,21.9,85.6,21.8,85.6,21.9C85.6,21.8,85.6,21.8,85.6,21.9z"/>
	<path class="st10" d="M85.2,21.7L85.2,21.7C85.2,21.7,85.1,21.7,85.2,21.7C85.2,21.6,85.2,21.6,85.2,21.7
		C85.2,21.6,85.2,21.6,85.2,21.7z"/>
	<path class="st10" d="M83.6,22.1C83.6,22,83.6,22,83.6,22.1L83.6,22.1z"/>
	<path class="st11" d="M85.1,22.1L85.1,22.1L85.1,22.1z"/>
	<path class="st13" d="M84.2,21.7C84.1,21.7,84.1,21.7,84.2,21.7C84.1,21.7,84.1,21.7,84.2,21.7C84.1,21.7,84.1,21.7,84.2,21.7
		C84.1,21.7,84.1,21.7,84.2,21.7z"/>
</g>
</svg>
