<?xml version="1.0" encoding="utf-8"?>
<!-- Generator: Adobe Illustrator 21.0.2, SVG Export Plug-In . SVG Version: 6.00 Build 0)  -->
<svg version="1.1" id="圖層_1" xmlns="http://www.w3.org/2000/svg" xmlns:xlink="http://www.w3.org/1999/xlink" x="0px" y="0px"
	 viewBox="0 0 30 30" style="enable-background:new 0 0 30 30;" xml:space="preserve">
<g transform="translate(480 96)">
	<path d="M-471.3-88.5v-1.3c0-0.7,0.6-1.3,1.3-1.3s1.3,0.6,1.3,1.3v1.3c0,0.7-0.6,1.3-1.3,1.3S-471.3-87.8-471.3-88.5z M-462.5-87.3
		c0.7,0,1.3-0.6,1.3-1.3v-1.3c0-0.7-0.6-1.3-1.3-1.3c-0.7,0-1.3,0.6-1.3,1.3v1.3C-463.8-87.8-463.2-87.3-462.5-87.3z M-457.5-73.5
		H-475v-15h3.1c0,1,0.8,1.9,1.9,1.9s1.9-0.8,1.9-1.9h3.8c0,1,0.8,1.9,1.9,1.9s1.9-0.8,1.9-1.9h3.1V-73.5L-457.5-73.5z M-458.8-84.8
		h-15v10h15V-84.8L-458.8-84.8z M-456.3-87.3v15h-17.5v1.3h18.8v-16.3H-456.3z M-468.8-83.5h-2.5v2.5h2.5V-83.5z M-465-83.5h-2.5
		v2.5h2.5V-83.5z M-461.3-83.5h-2.5v2.5h2.5V-83.5z M-468.8-79.8h-2.5v2.5h2.5V-79.8z M-465-79.8h-2.5v2.5h2.5V-79.8z M-461.3-79.8
		h-2.5v2.5h2.5V-79.8z"/>
</g>
</svg>
