<?xml version="1.0" encoding="utf-8"?>
<!-- Generator: Adobe Illustrator 21.0.2, SVG Export Plug-In . SVG Version: 6.00 Build 0)  -->
<svg version="1.1" id="圖層_1" xmlns="http://www.w3.org/2000/svg" xmlns:xlink="http://www.w3.org/1999/xlink" x="0px" y="0px"
	 viewBox="0 0 50 50" style="enable-background:new 0 0 50 50;" xml:space="preserve">
<style type="text/css">
	.st0{display:none;}
	.st1{display:inline;}
	.st2{fill:#FFFFFF;}
</style>
<g class="st0">
	<g class="st1">
		<path d="M35.3,26c1.4-2,2.2-4.4,2.2-7c0-6.9-5.6-12.5-12.5-12.5S12.5,12.1,12.5,19c0,2.6,0.8,5,2.2,7L25,43.5L35.3,26z"/>
	</g>
	<g class="st1">
		<circle class="st2" cx="25" cy="19" r="7.5"/>
	</g>
</g>
<g id="Expanded">
	<g>
		<g>
			<path d="M37.4,42.1H12.6V12.2h24.8V42.1z M14.1,40.7h21.9v-27H14.1V40.7z"/>
		</g>
		<g>
			<path d="M33,13.7H17V7.9h16V13.7z M18.4,12.2h13.1V9.3H18.4V12.2z"/>
		</g>
		<g>
			<path d="M19.2,37c-0.4,0-0.7-0.3-0.7-0.7V18.1c0-0.4,0.3-0.7,0.7-0.7c0.4,0,0.7,0.3,0.7,0.7v18.2C19.9,36.7,19.6,37,19.2,37z"/>
		</g>
		<g>
			<path d="M25,37c-0.4,0-0.7-0.3-0.7-0.7V18.1c0-0.4,0.3-0.7,0.7-0.7s0.7,0.3,0.7,0.7v18.2C25.7,36.7,25.4,37,25,37z"/>
		</g>
		<g>
			<path d="M30.8,37c-0.4,0-0.7-0.3-0.7-0.7V18.1c0-0.4,0.3-0.7,0.7-0.7s0.7,0.3,0.7,0.7v18.2C31.6,36.7,31.2,37,30.8,37z"/>
		</g>
		<g>
			<rect x="7.5" y="12.2" width="35" height="1.5"/>
		</g>
	</g>
</g>
</svg>
