<?xml version="1.0" encoding="utf-8"?>
<!-- Generator: Adobe Illustrator 21.1.0, SVG Export Plug-In . SVG Version: 6.00 Build 0)  -->
<svg version="1.1" id="圖層_1" xmlns="http://www.w3.org/2000/svg" xmlns:xlink="http://www.w3.org/1999/xlink" x="0px" y="0px"
	 viewBox="0 0 188 60" style="enable-background:new 0 0 188 60;" xml:space="preserve">
<style type="text/css">
	.st0{fill:#1F1F58;}
	.st1{fill:#FFB300;}
	.st2{fill:#000070;}
</style>
<title>logo</title>
<g id="圖層_1_1_">
	<path class="st0" d="M86.1,14.3h2.7l0.5-2c0.1-0.3,0.1-0.6,0-0.9c0-0.2,0.2-0.2,0.4-0.2l1.3,0.1c0.1,0.1,0.1,0.3,0,0.5
		c-0.2,0.2-0.3,0.5-0.4,0.8l-0.4,1.7h1.3c0.2,0.2,0.3,0.3,0.2,0.6c-0.8,0.8-1.6,1.6-2.3,2.3c0.2,0.8,0.6,1.6,1.1,2.2L89.9,20
		c-0.5-0.4-0.9-0.8-1.2-1.3l-2,7.5h-1.3l1.9-7.1c-0.9,0.7-1.9,1.4-3,2.1L84,20.5c2.2-1.4,4.1-3.2,5.8-5.2c0.3-0.3,0.2-0.4-0.2-0.4
		H86L86.1,14.3z M99.5,19.4l-1.9,6.9h-1.3l0.2-0.8h-6.3l-0.2,0.8h-1.3l1.9-6.8L99.5,19.4z M91,22.7l-0.6,2.2H93l0.6-2.2L91,22.7z
		 M91.7,20l-0.5,2h2.6l0.5-2H91.7z M100.4,14.1l-1,3.8h-7.6l1-3.8L100.4,14.1z M92.5,11.9h9.6l-0.2,0.6h-9.6L92.5,11.9z M93.9,14.7
		l-0.7,2.6h5l0.7-2.6H93.9z M94.9,22.7l-0.6,2.1h2.4l0.6-2.1H94.9z M95.7,20l-0.5,2h2.4l0.5-2H95.7z"/>
	<path class="st0" d="M105,20.5h6.9c0-0.3,0-0.5,0-0.8c0-0.2,0.2-0.2,0.4-0.2l1.2,0.2c0.1,0.1,0.1,0.3,0,0.5
		c-0.2,0.2-0.2,0.3-0.2,0.4h7.3l-0.2,0.6h-6.2c0.5,1,1.4,1.9,2.5,2.8c0.8,0.6,1.7,1.1,2.6,1.5l-0.6,0.6c-1.5-0.6-2.9-1.5-4.3-2.5
		c-0.6-0.6-1.1-1.2-1.6-1.9l-1.3,4.7h-1.3l1.2-4.5c-1,0.9-2.5,1.8-4.4,2.7c-1.1,0.5-2.2,0.9-3.3,1.2l-0.2-0.7c1.6-0.6,3.2-1.2,4.8-2
		c1.1-0.7,2-1.4,2.5-1.9h-5.9L105,20.5z M107.8,14c0.9-0.8,1.6-1.8,2.3-2.8c0.1-0.1,0.3-0.2,0.5-0.1l0.5,0.4c0.2,0.2,0.2,0.3,0,0.5
		c-0.9,0.8-1.8,1.6-2.7,2.3c0.3,0.4,0.6,0.7,0.9,0.9c0.4-0.4,0.8-0.8,1.1-1.3c0.2-0.1,0.4-0.2,0.6-0.1l0.6,0.5
		c0.1,0.2,0,0.3-0.3,0.5c-0.2,0.2-0.5,0.4-0.7,0.6l-2.8,2.4l1.5-0.1l-0.1-0.7l0.7-0.4c0.4,0.5,0.6,1.1,0.8,1.7l1.3-4.9h1.4
		c0.4-0.6,0.8-1.2,1-1.9c0.1-0.2,0.4-0.3,0.6-0.2c0,0,0,0,0,0l0.6,0.3c0.2,0.1,0.1,0.3-0.2,0.5c-0.4,0.4-0.8,0.8-1.2,1.2h2.6
		l-1.3,4.8l0.8-0.1l1.8-1.6c-0.3-0.8-0.8-1.5-1.3-2.2l0.7-0.5l0.4,0.3c0.8-0.7,1.5-1.5,2.1-2.4c0.2-0.3,0.5-0.4,0.7-0.2l0.6,0.4
		c0.3,0.2,0.2,0.3-0.1,0.5c-0.7,0.5-1.6,1.2-2.7,2.1l0.8,0.8c0.4-0.3,0.8-0.7,1.1-1.1c0.3-0.2,0.5-0.3,0.6-0.2l0.7,0.6
		c0.2,0.2,0.1,0.4-0.2,0.5c-0.3,0.2-0.7,0.4-1,0.6l-3,2.3l2-0.4l-0.1-0.5l0.7-0.3c0.4,0.7,0.7,1.4,0.9,2.1l-1.3,0.7
		c0-0.4-0.1-0.9-0.2-1.3l-3.1,0.7c-0.2,0.1-0.4,0.2-0.6,0.3c-0.2,0.1-0.4,0-0.4-0.1l-0.1-0.3l-0.1,0.3h-5l-1.1,0.4
		c0.1-0.4,0.1-0.9,0-1.3l-2.6,0.5c-0.3,0-0.5,0.1-0.7,0.3c-0.3,0.1-0.5,0.1-0.6-0.2l-0.1-0.8c0.1-0.2,0.3-0.2,0.5-0.2h0.7l1.7-1.7
		c-0.4-0.7-1-1.4-1.5-2.1l0.5-0.6L107.8,14z M112.7,16.6l-0.5,2h2.2l0.5-2H112.7z M113.4,14l-0.5,1.9h2.2l0.5-1.9H113.4z"/>
	<path class="st0" d="M129.3,15.2h-1.5l0.2-0.6h2.5l0.6-2.2c0.1-0.3,0.1-0.6,0-0.9c0-0.2,0.2-0.2,0.4-0.2l1.3,0.1
		c0.1,0.1,0.1,0.3,0,0.5c-0.2,0.2-0.3,0.5-0.4,0.8l-0.5,1.8h2.2l-0.2,0.6h-3.2l-0.6,2.2h2.9l-1.5,5.5c-0.7,2.1-1.6,3.2-2.5,3.3
		c-0.6,0-1.3,0-1.9,0l-0.1-0.8c0.7,0.1,1.2,0.2,1.3,0.2h0.3c0.4-0.1,0.8-0.9,1.4-2.4l1.4-5.2h-1.6c-0.5,1.7-1.2,3.3-2,4.9
		c-0.8,1.3-1.7,2.4-2.8,3.5l-0.5-0.4c1.6-2.1,2.8-4.4,3.7-6.8L129.3,15.2z M134.6,19.8c-0.5,0.5-1.1,0.9-1.6,1.2l-0.4-0.7
		c2-1.6,3.9-3.3,5.7-5.2l0.9,0.7c0.2,0.4,0,0.6-0.6,0.7l-2.3,2.2l-2,7.4h-1.3L134.6,19.8z M136.7,14.4c-0.9,0.9-1.8,1.7-2.7,2.5
		l-0.7-0.4c1.4-1.5,2.7-3.1,3.8-4.8c0.1-0.5,0.3-0.7,0.7-0.6c1.1,0.4,1.3,0.8,0.6,1.1c-0.3,0.5-0.8,1-1.3,1.6h5.7l-0.2,0.6
		L136.7,14.4z M140.4,18c0.3-0.4,0.6-0.6,0.9-0.5l0.5,0.6c0.1,0.5-0.1,0.8-0.6,0.8c-0.8,0.6-1.7,1.3-2.8,2.1
		c0.2,1.9,0.8,3.5,1.7,4.8l-0.8,0.6c-0.9-0.8-1.6-2-2-3.6c-0.2-1-0.3-2.3-0.4-4.1c0-0.2,0.2-0.4,0.4-0.5c1-0.3,1.3-0.2,0.9,0.5
		c0,0.4,0,0.8,0.1,1.2C139,19.3,139.7,18.7,140.4,18L140.4,18z"/>
	<path class="st0" d="M146.6,25.7l-0.5,0.5c-0.1,0.2-0.3,0.1-0.5-0.1l-0.2-0.5c-0.1-0.3,0-0.4,0.4-0.5l2.1-1.3l1.3-4.9h-1.8l0.2-0.6
		h3.1l-1.2,4.6c-0.1,1.4,0.5,2.1,1.8,2.3h10l-0.5,0.8h-9.4c-1.2,0-2.4-0.4-3.2-1.3L146.6,25.7z M149.1,13.8c0.6,1.1,1.1,2.3,1.4,3.5
		l-1.3,0.8c-0.1-1.3-0.4-2.6-0.7-3.9L149.1,13.8z M149.9,11.4c0.7,1,1.4,2.1,2.1,3.2l-1.2,0.9c-0.4-1.3-0.9-2.5-1.6-3.6L149.9,11.4z
		 M157.4,16.4l0.2-0.6h4.3c0.6,0.2,0.6,0.5,0.2,1l-2.4,1.8l-0.2,0.7h2.6l-0.2,0.6h-2.6l-0.7,2.6c-0.3,0.9-0.9,1.5-1.7,1.6
		c-0.3,0-0.7,0-1.4,0l-0.1-0.8c0.8,0.1,1.2,0.2,1.3,0.1c0.2,0,0.3-0.2,0.4-0.7l0.8-2.8h-2.4c-0.3,0.9-0.5,1.7-0.8,2.4
		c-0.4,0.9-1,1.5-1.8,1.6c-0.4,0-1,0-1.6,0l-0.1-0.8c0.7,0.1,1.2,0.2,1.3,0.2c0.3,0,0.6-0.3,0.9-0.9c0.6-1.5,1.1-3.3,1.7-5.2h-1.2
		c-0.3,1.2-0.7,2.4-1.3,3.5c-0.7,1.2-1.5,2.2-2.5,3.2l-0.7-0.4c1.7-2.1,2.7-3.9,3.1-5.4l1-3.7h-1.5l0.2-0.6h2l0.4-1.6
		c0.1-0.3,0.1-0.6,0-0.9c0-0.2,0.2-0.2,0.4-0.2l1.3,0.1c0.1,0.1,0.1,0.3,0,0.5c-0.2,0.2-0.3,0.5-0.4,0.8l-0.3,1.2h1.8l-0.2,0.6h-2.5
		l-0.6,2.3h2.4l-0.7,2.7h2.3l0.4-1.6h1.3l1-1.3L157.4,16.4z M160.8,11.4c0.2,0.2,0.2,0.3-0.1,0.6c-0.4,0.4-0.8,0.8-1.2,1.4h4.2
		l-0.2,0.6H159c-0.6,0.6-1.2,1.3-1.8,1.8l-0.6-0.4c1.1-1.2,2.1-2.6,2.9-4c0.1-0.2,0.2-0.3,0.4-0.3L160.8,11.4z"/>
	<path class="st0" d="M69.1,30.7l-0.2,0.9h-3l-0.5,2h2.6l-0.3,1h-2.6l-0.8,3.2h-0.9l1.9-7.2H69.1z"/>
	<path class="st0" d="M70.7,30.7l-1.3,4.9c-0.1,0.5-0.1,0.9,0,1.1c0.1,0.2,0.3,0.3,0.7,0.3c0.3,0,0.6-0.1,0.8-0.3
		c0.3-0.3,0.5-0.7,0.6-1.1l1.3-4.9h0.9l-1.3,5c-0.1,0.5-0.3,1-0.6,1.4c-0.2,0.2-0.4,0.4-0.7,0.6c-0.4,0.2-0.8,0.3-1.2,0.3
		c-0.4,0-0.8-0.1-1.1-0.3c-0.2-0.1-0.3-0.4-0.4-0.6c-0.1-0.5,0-0.9,0.1-1.4l1.3-5L70.7,30.7z"/>
	<path class="st0" d="M75.3,30.7l-1.6,6.2h3l-0.2,1h-3.9l1.9-7.2H75.3z"/>
	<path class="st0" d="M79.8,30.7l-1.6,6.2h3l-0.3,1h-3.9l1.9-7.2L79.8,30.7z"/>
	<path class="st0" d="M87.1,31.6h-3l-0.5,2.1h2.5l-0.3,1h-2.5l-0.6,2.2h3l-0.2,1h-3.9l1.9-7.2h3.9L87.1,31.6z"/>
	<path class="st0" d="M89.7,30.7c0.7,0,1.1,0.2,1.4,0.5c0.3,0.3,0.4,0.8,0.2,1.4c-0.2,0.6-0.5,1.1-1,1.5c-0.2,0.2-0.4,0.3-0.6,0.4
		l0.3,3.4h-1l-0.3-3.2h-1L87,37.8h-0.9l1.9-7.2H89.7z M88.8,33.7c0.4,0,0.8-0.1,1.1-0.3c0.3-0.2,0.4-0.5,0.5-0.8
		c0.1-0.3,0-0.5-0.1-0.7c-0.2-0.2-0.5-0.3-0.8-0.3h-0.9l-0.5,2.1L88.8,33.7z"/>
	<path class="st0" d="M100.8,31.6h-3l-0.5,2.1h2.5l-0.3,1H97l-0.6,2.2h3l-0.3,1h-3.9l1.9-7.2h3.9L100.8,31.6z"/>
	<path class="st0" d="M102.8,30.7l0.4,2.3l1.6-2.3h1l-2.4,3.4l0.6,3.7h-1l-0.4-2.6l-1.8,2.6h-1l2.6-3.7l-0.5-3.4L102.8,30.7z"/>
	<path class="st0" d="M108,30.7c0.7,0,1.2,0.2,1.5,0.5c0.3,0.4,0.4,0.8,0.3,1.5c-0.1,0.6-0.5,1.1-1,1.4c-0.5,0.4-1.2,0.5-1.8,0.5
		h-0.8l-0.8,3.2h-0.9l1.9-7.2H108z M107.1,33.7c0.4,0,0.8-0.1,1.1-0.3c0.3-0.2,0.5-0.4,0.5-0.7c0.1-0.3,0.1-0.6-0.1-0.8
		c-0.3-0.2-0.6-0.3-0.9-0.3h-0.8l-0.5,2H107.1z"/>
	<path class="st0" d="M112.6,30.7c0.7,0,1.1,0.2,1.4,0.5c0.3,0.3,0.4,0.8,0.2,1.4c-0.2,0.6-0.5,1.1-1,1.5c-0.2,0.2-0.4,0.3-0.6,0.4
		l0.3,3.4h-1l-0.2-3.2h-1l-0.8,3.2H109l1.9-7.2H112.6z M111.6,33.7c0.4,0,0.8-0.1,1.1-0.3c0.3-0.2,0.4-0.5,0.5-0.8
		c0.1-0.3,0-0.5-0.1-0.7c-0.2-0.2-0.5-0.3-0.8-0.2h-0.9l-0.5,2.1H111.6z"/>
	<path class="st0" d="M119.1,31.6h-3l-0.5,2.1h2.5l-0.3,1h-2.5l-0.6,2.2h3l-0.3,1h-3.9l1.9-7.2h3.9L119.1,31.6z"/>
	<path class="st0" d="M123,31.1c0.3,0.3,0.4,0.7,0.4,1.1l-1.1,0.4c0.1-0.3,0-0.6-0.1-0.8c-0.1-0.2-0.4-0.3-0.6-0.3
		c-0.3,0-0.5,0.1-0.8,0.3c-0.2,0.2-0.4,0.4-0.4,0.7c-0.1,0.2,0,0.3,0,0.5c0.1,0.1,0.4,0.4,0.9,0.7c0.7,0.4,1.1,0.8,1.2,1.2
		c0.1,0.4,0.1,0.8,0,1.1c-0.1,0.6-0.5,1-0.9,1.4c-0.4,0.4-1,0.6-1.6,0.6c-0.5,0-1-0.2-1.2-0.5c-0.3-0.3-0.4-0.8-0.3-1.4l1-0.3
		c-0.1,0.4,0,0.8,0.1,1c0.2,0.2,0.4,0.3,0.7,0.3c0.3,0,0.6-0.1,0.8-0.3c0.2-0.2,0.4-0.5,0.5-0.8c0.1-0.2,0.1-0.4,0-0.7
		c-0.1-0.2-0.4-0.4-0.9-0.7c-0.7-0.4-1.1-0.7-1.3-1.1c-0.1-0.3-0.1-0.7,0-1.1c0.1-0.5,0.4-1,0.9-1.3c0.4-0.3,0.9-0.5,1.5-0.5
		C122.3,30.6,122.7,30.8,123,31.1z"/>
	<path class="st0" d="M127.6,31.1c0.3,0.3,0.4,0.7,0.4,1.1l-1.1,0.4c0.1-0.3,0-0.6-0.1-0.8c-0.1-0.2-0.4-0.3-0.6-0.3
		c-0.3,0-0.5,0.1-0.8,0.3c-0.2,0.2-0.4,0.4-0.4,0.7c-0.1,0.2,0,0.3,0,0.5c0.1,0.1,0.4,0.4,0.9,0.7c0.7,0.4,1.1,0.8,1.2,1.2
		c0.1,0.4,0.1,0.8,0,1.1c-0.1,0.6-0.5,1-0.9,1.4c-0.4,0.4-1,0.6-1.6,0.6c-0.5,0-1-0.2-1.2-0.5c-0.3-0.3-0.4-0.8-0.3-1.4l1-0.3
		c-0.1,0.4,0,0.8,0.1,1c0.2,0.2,0.4,0.3,0.7,0.3c0.3,0,0.6-0.1,0.8-0.3c0.2-0.2,0.4-0.5,0.5-0.8c0.1-0.2,0.1-0.4,0-0.7
		c-0.1-0.2-0.4-0.4-0.9-0.7c-0.7-0.4-1.1-0.7-1.3-1.1c-0.1-0.3-0.1-0.7,0-1.1c0.1-0.5,0.4-1,0.9-1.3c0.4-0.3,0.9-0.5,1.5-0.5
		C126.9,30.6,127.3,30.8,127.6,31.1z"/>
	<path class="st0" d="M136.8,30.9c0.3,0.3,0.4,0.8,0.4,1.4l-1,0.4c0.1-0.3,0.1-0.6,0-0.9c-0.1-0.2-0.3-0.3-0.5-0.3
		c-0.4,0-0.7,0.2-1,0.6c-0.4,0.5-0.7,1.2-1,2.2c-0.3,1-0.3,1.7-0.2,2.2c0,0.4,0.4,0.6,0.7,0.6c0.3,0,0.5-0.1,0.7-0.3
		c0.3-0.3,0.5-0.6,0.6-1l0.8,0.4c-0.2,0.5-0.6,1-1,1.3c-0.4,0.3-0.8,0.5-1.3,0.5c-0.4,0-0.7-0.1-1-0.4c-0.3-0.3-0.4-0.7-0.4-1.1
		c-0.1-0.6,0-1.3,0.2-2.2c0.2-0.7,0.5-1.4,0.9-2.1c0.3-0.5,0.7-0.9,1.2-1.3c0.3-0.2,0.7-0.3,1.1-0.3
		C136.2,30.6,136.6,30.7,136.8,30.9z"/>
	<path class="st0" d="M141.2,30.9c0.3,0.3,0.5,0.7,0.5,1.1c0,0.8-0.1,1.5-0.3,2.3c-0.2,0.8-0.5,1.6-0.9,2.3c-0.2,0.5-0.6,0.8-1,1.1
		c-0.3,0.2-0.7,0.3-1.1,0.3c-0.4,0-0.7-0.1-1-0.3c-0.3-0.3-0.5-0.7-0.5-1.1c0-0.8,0.1-1.5,0.3-2.3c0.2-0.8,0.5-1.5,0.8-2.3
		c0.3-0.4,0.6-0.8,1-1.1c0.4-0.2,0.7-0.3,1.1-0.3C140.6,30.6,141,30.7,141.2,30.9z M139.2,36.7c0.2-0.2,0.4-0.4,0.5-0.7
		c0.3-0.6,0.5-1.2,0.7-1.8c0.2-0.6,0.3-1.2,0.3-1.8c0-0.2-0.1-0.5-0.2-0.7c-0.1-0.1-0.3-0.2-0.5-0.2c-0.2,0-0.4,0.1-0.6,0.2
		c-0.2,0.2-0.4,0.4-0.6,0.7c-0.3,0.6-0.5,1.2-0.7,1.8c-0.2,0.6-0.3,1.2-0.3,1.8c0,0.2,0.1,0.5,0.2,0.7c0.1,0.1,0.3,0.2,0.5,0.2
		C138.8,37,139,36.9,139.2,36.7L139.2,36.7z"/>
	<path class="st0" d="M144.5,30.7c0.7,0,1.1,0.2,1.4,0.5c0.3,0.3,0.4,0.8,0.2,1.4c-0.2,0.6-0.5,1.1-1,1.5c-0.2,0.2-0.4,0.3-0.6,0.4
		l0.3,3.4h-1l-0.3-3.2h-1l-0.8,3.2h-0.9l1.9-7.2H144.5z M143.6,33.7c0.4,0,0.8-0.1,1.1-0.3c0.3-0.2,0.4-0.5,0.5-0.8
		c0.1-0.3,0-0.5-0.1-0.7c-0.2-0.2-0.5-0.3-0.8-0.3h-0.9l-0.5,2.1L143.6,33.7z"/>
	<path class="st0" d="M149.1,30.7c0.7,0,1.2,0.2,1.5,0.5s0.4,0.8,0.3,1.5c-0.1,0.6-0.5,1.1-1,1.4c-0.5,0.4-1.2,0.5-1.8,0.5h-0.8
		l-0.8,3.2h-0.9l1.9-7.2H149.1z M148.2,33.7c0.4,0,0.8-0.1,1.1-0.3c0.3-0.2,0.5-0.4,0.5-0.7c0.1-0.3,0.1-0.6-0.1-0.8
		c-0.3-0.2-0.6-0.3-0.9-0.3H148l-0.5,2H148.2z"/>
	<path class="st0" d="M154.9,30.9c0.3,0.3,0.5,0.7,0.5,1.1c0,0.8-0.1,1.5-0.3,2.3c-0.2,0.8-0.5,1.6-0.9,2.3c-0.2,0.5-0.6,0.8-1,1.1
		c-0.3,0.2-0.7,0.3-1.1,0.3c-0.4,0-0.7-0.1-1-0.3c-0.3-0.3-0.4-0.7-0.5-1.1c0-0.8,0.1-1.5,0.3-2.3c0.2-0.8,0.5-1.5,0.8-2.3
		c0.3-0.4,0.6-0.8,1-1.1c0.4-0.2,0.7-0.3,1.1-0.3C154.3,30.6,154.7,30.7,154.9,30.9z M152.9,36.7c0.2-0.2,0.4-0.4,0.5-0.7
		c0.3-0.6,0.5-1.2,0.7-1.8c0.2-0.6,0.3-1.2,0.3-1.8c0-0.2-0.1-0.5-0.2-0.7c-0.1-0.1-0.3-0.2-0.5-0.2c-0.2,0-0.4,0.1-0.6,0.2
		c-0.2,0.2-0.4,0.4-0.6,0.7c-0.3,0.6-0.5,1.2-0.7,1.8c-0.2,0.6-0.3,1.2-0.3,1.8c0,0.2,0.1,0.5,0.2,0.7c0.1,0.1,0.3,0.2,0.5,0.2
		C152.5,37,152.7,36.9,152.9,36.7L152.9,36.7z"/>
	<path class="st0" d="M158.2,30.7c0.7,0,1.1,0.2,1.4,0.5c0.3,0.3,0.4,0.8,0.2,1.4c-0.2,0.6-0.5,1.1-1,1.5c-0.2,0.2-0.4,0.3-0.6,0.4
		l0.3,3.4h-1l-0.2-3.2h-1l-0.8,3.2h-0.9l1.9-7.2H158.2z M157.3,33.7c0.4,0,0.8-0.1,1.1-0.3c0.3-0.2,0.5-0.5,0.5-0.8
		c0.1-0.3,0-0.5-0.1-0.7c-0.2-0.2-0.5-0.3-0.8-0.3h-0.9l-0.5,2.1L157.3,33.7z"/>
	<path class="st0" d="M163.5,30.7l-0.3,7.2h-0.9l0.1-2H161l-1,2h-0.9l3.5-7.2L163.5,30.7z M162.5,34.9l0.1-2.2l-1.1,2.2H162.5z"/>
	<path class="st0" d="M169.7,30.7l-0.2,0.9h-1.6l-1.6,6.2h-0.9l1.6-6.2h-1.6l0.2-0.9L169.7,30.7z"/>
	<path class="st0" d="M172.7,30.7l-1.9,7.2h-0.9l1.9-7.2H172.7z"/>
	<path class="st0" d="M177.8,30.9c0.3,0.3,0.5,0.7,0.5,1.1c0,0.8-0.1,1.5-0.3,2.3c-0.2,0.8-0.5,1.6-0.9,2.3c-0.2,0.5-0.6,0.8-1,1.1
		c-0.3,0.2-0.7,0.3-1.1,0.3c-0.4,0-0.7-0.1-1-0.3c-0.3-0.3-0.5-0.7-0.5-1.1c0-0.8,0.1-1.5,0.4-2.3c0.2-0.8,0.5-1.5,0.8-2.3
		c0.3-0.4,0.6-0.8,1-1.1c0.4-0.2,0.7-0.3,1.1-0.3C177.2,30.6,177.5,30.7,177.8,30.9z M175.7,36.7c0.2-0.2,0.4-0.4,0.5-0.7
		c0.3-0.6,0.5-1.2,0.7-1.8c0.2-0.6,0.3-1.2,0.3-1.8c0-0.2-0.1-0.5-0.2-0.7c-0.1-0.1-0.3-0.2-0.5-0.2c-0.2,0-0.4,0.1-0.6,0.2
		c-0.2,0.2-0.4,0.4-0.6,0.7c-0.3,0.6-0.5,1.2-0.7,1.8c-0.2,0.6-0.3,1.2-0.3,1.8c0,0.2,0.1,0.5,0.2,0.7c0.1,0.1,0.3,0.2,0.5,0.2
		C175.4,37,175.6,36.9,175.7,36.7L175.7,36.7z"/>
	<path class="st0" d="M180.6,30.7l0.2,5.7l1.5-5.7h0.9l-1.9,7.2h-1.2l-0.2-5.7l-1.5,5.7h-0.9l1.9-7.2H180.6z"/>
	<path class="st0" d="M98.2,41.7l-0.2,0.9h-3l-0.5,2H97l-0.3,1h-2.6l-0.8,3.2h-0.9l1.9-7.2L98.2,41.7z"/>
	<path class="st0" d="M99.8,41.7l-1.3,4.9c-0.1,0.5-0.1,0.9,0,1.1c0.1,0.2,0.3,0.3,0.7,0.3c0.3,0,0.6-0.1,0.8-0.3
		c0.3-0.3,0.5-0.7,0.6-1.1l1.3-4.9h0.9l-1.3,5c-0.1,0.5-0.3,1-0.6,1.4c-0.2,0.2-0.4,0.4-0.7,0.6c-0.4,0.2-0.8,0.3-1.2,0.3
		c-0.4,0-0.8-0.1-1.1-0.3c-0.2-0.1-0.3-0.4-0.4-0.6c-0.1-0.5,0-0.9,0.1-1.4l1.3-5L99.8,41.7z"/>
	<path class="st0" d="M104.3,41.7l-1.6,6.2h3l-0.3,1h-3.9l1.9-7.2L104.3,41.7z"/>
	<path class="st0" d="M108.9,41.7l-1.6,6.2h3l-0.3,1h-3.9l1.9-7.2L108.9,41.7z"/>
	<path class="st0" d="M116.2,42.7h-3l-0.5,2.1h2.5l-0.3,1h-2.5l-0.6,2.2h3l-0.3,1h-3.9l1.9-7.2h3.9L116.2,42.7z"/>
	<path class="st0" d="M118.8,41.7c0.7,0,1.1,0.2,1.4,0.5s0.4,0.8,0.2,1.4c-0.2,0.6-0.5,1.1-1,1.5c-0.2,0.2-0.4,0.3-0.6,0.4l0.3,3.4
		h-0.9l-0.3-3.2h-1l-0.8,3.2h-0.9l1.9-7.2L118.8,41.7z M117.9,44.7c0.4,0,0.8-0.1,1.1-0.3c0.3-0.2,0.4-0.5,0.5-0.8
		c0.1-0.3,0-0.5-0.1-0.7c-0.2-0.2-0.5-0.3-0.8-0.2h-0.9l-0.5,2.1L117.9,44.7z"/>
	<path class="st0" d="M130.3,41.7l-0.2,0.9h-1.6l-1.6,6.2h-0.9l1.6-6.2h-1.6l0.2-0.9H130.3z"/>
	<path class="st0" d="M133.8,41.9c0.3,0.3,0.5,0.7,0.5,1.1c0,0.8-0.1,1.5-0.3,2.3c-0.2,0.8-0.5,1.6-0.9,2.3c-0.2,0.5-0.6,0.8-1,1.1
		c-0.3,0.2-0.7,0.3-1.1,0.3c-0.4,0-0.7-0.1-1-0.3c-0.3-0.3-0.4-0.7-0.5-1.1c0-0.8,0.1-1.5,0.3-2.3c0.2-0.8,0.5-1.5,0.8-2.3
		c0.3-0.4,0.6-0.8,1-1.1c0.4-0.2,0.7-0.3,1.1-0.3C133.2,41.6,133.5,41.7,133.8,41.9z M131.8,47.8c0.2-0.2,0.4-0.4,0.5-0.7
		c0.3-0.6,0.5-1.2,0.7-1.8c0.2-0.6,0.3-1.2,0.3-1.8c0-0.2-0.1-0.5-0.2-0.7c-0.1-0.1-0.3-0.2-0.5-0.2c-0.2,0-0.4,0.1-0.6,0.2
		c-0.2,0.2-0.4,0.4-0.6,0.7c-0.3,0.6-0.5,1.2-0.7,1.8c-0.2,0.6-0.3,1.2-0.3,1.8c0,0.2,0.1,0.5,0.2,0.7c0.1,0.1,0.3,0.2,0.5,0.2
		C131.4,48,131.6,47.9,131.8,47.8L131.8,47.8z"/>
	<path class="st0" d="M136.3,41.7l-1.3,4.9c-0.1,0.5-0.1,0.9,0,1.1c0.1,0.2,0.3,0.3,0.7,0.3c0.3,0,0.6-0.1,0.8-0.3
		c0.3-0.3,0.5-0.7,0.6-1.1l1.3-4.9h0.9l-1.3,5c-0.1,0.5-0.3,1-0.6,1.4c-0.2,0.2-0.4,0.4-0.7,0.6c-0.4,0.2-0.8,0.3-1.2,0.3
		c-0.4,0-0.8-0.1-1.1-0.3c-0.2-0.1-0.3-0.4-0.4-0.6c-0.1-0.5,0-0.9,0.1-1.4l1.3-5L136.3,41.7z"/>
	<path class="st0" d="M141.6,41.7c0.7,0,1.1,0.2,1.4,0.5c0.3,0.3,0.4,0.8,0.2,1.4c-0.2,0.6-0.5,1.1-1,1.5c-0.2,0.2-0.4,0.3-0.6,0.4
		l0.3,3.4h-1l-0.3-3.2h-1l-0.8,3.2h-0.9l1.9-7.2L141.6,41.7z M140.7,44.7c0.4,0,0.8-0.1,1.1-0.3c0.3-0.2,0.4-0.5,0.5-0.8
		c0.1-0.3,0-0.5-0.1-0.7c-0.2-0.2-0.5-0.3-0.8-0.2h-0.9l-0.5,2.1H140.7z"/>
	<path class="st0" d="M147.5,42.1c0.3,0.3,0.4,0.7,0.4,1.1l-1.1,0.4c0.1-0.3,0-0.6-0.1-0.8c-0.1-0.2-0.4-0.3-0.6-0.3
		c-0.3,0-0.5,0.1-0.8,0.3c-0.2,0.2-0.4,0.4-0.4,0.7c-0.1,0.2,0,0.3,0,0.5c0.1,0.1,0.4,0.4,0.9,0.7c0.7,0.4,1.1,0.8,1.2,1.2
		c0.1,0.4,0.1,0.8,0,1.1c-0.1,0.6-0.5,1-0.9,1.4c-0.4,0.4-1,0.6-1.6,0.6c-0.5,0-1-0.2-1.2-0.5c-0.3-0.3-0.4-0.8-0.3-1.4l1-0.3
		c-0.1,0.4,0,0.8,0.1,1c0.2,0.2,0.4,0.3,0.7,0.3c0.3,0,0.6-0.1,0.8-0.3c0.2-0.2,0.4-0.5,0.5-0.8c0.1-0.2,0.1-0.4,0-0.7
		c-0.1-0.2-0.4-0.4-0.9-0.7c-0.7-0.4-1.1-0.7-1.3-1.1c-0.1-0.3-0.1-0.7,0-1.1c0.1-0.5,0.4-1,0.9-1.3c0.4-0.3,0.9-0.5,1.5-0.5
		C146.8,41.6,147.2,41.8,147.5,42.1z"/>
</g>
<g id="圖層_3">
	<path class="st1" d="M16.6,41.4l-5.9,13h30.8c2.2,0,4.8-1.8,5.8-4l5.9-13H22.4C20.2,37.4,17.6,39.2,16.6,41.4z"/>
	<path class="st2" d="M52.4,5.6c-0.7,0-1.4,0.5-1.7,1.2l-1.4,3.1H26.8c-2.2,0-4.8,1.8-5.8,4L4.7,50h11c0.7,0,1.4-0.5,1.7-1.2
		l1.4-3.1h22.5c2.2,0,4.8-1.8,5.8-4l16.3-36H52.4z M35.3,39.1c-0.3,0.7-1.1,1.2-1.7,1.2H21.8l3.9-8.6c0.3-0.7,1.1-1.2,1.7-1.2h11.8
		L35.3,39.1z M42.5,23.9c-0.3,0.7-1.1,1.2-1.7,1.2H28.9l3.9-8.6c0.3-0.7,1.1-1.2,1.7-1.2h11.8L42.5,23.9z"/>
</g>
</svg>
