<?xml version="1.0" encoding="utf-8"?>
<!-- Generator: Adobe Illustrator 21.1.0, SVG Export Plug-In . SVG Version: 6.00 Build 0)  -->
<svg version="1.1" id="圖層_1" xmlns="http://www.w3.org/2000/svg" xmlns:xlink="http://www.w3.org/1999/xlink" x="0px" y="0px"
	 viewBox="0 0 315 263.3" style="enable-background:new 0 0 315 263.3;" xml:space="preserve">
<style type="text/css">
	.st0{fill:#FFB300;}
	.st1{fill:#FFFFFF;}
	.st2{fill:#1F1F58;}
	.st3{fill:#000070;}
</style>
<g>
	<path class="st0" d="M99.6,130.7l16.3-36c2.9-6.4,10.3-11.5,16.8-11.5h81l-16.3,36c-2.9,6.4-10.3,11.5-16.8,11.5H99.6z"/>
	<path class="st1" d="M209.8,85.7l-14.7,32.5c-2.5,5.5-9,10-14.5,10h-77.1l14.7-32.5c2.5-5.5,9-10,14.5-10H209.8 M217.5,80.7h-7.7
		h-77.1c-7.4,0-15.8,5.7-19.1,12.9l-14.7,32.5l-3.2,7.1h7.7h77.1c7.4,0,15.8-5.7,19.1-12.9l14.7-32.5L217.5,80.7L217.5,80.7z"/>
</g>
<g>
	<g>
		<path class="st2" d="M88,201.9l0.6-2H76.1l-0.5,1.9H69l4.2-15.5l-0.3-0.2c-0.5-0.4-0.9-0.7-1.4-1.2l-4.6,16.9h-6.5l4.5-15.6
			c-1.2,0.9-2.6,1.8-3.9,2.7l-1.2,0.8l-2.8-4l1.2-0.8c5.1-3.5,9.4-7.2,13-11.4H62l1.6-4.4h6.7l1.1-4c0.1-0.5,0.1-0.9,0-1.2l-0.1-0.4
			l0.1-0.4c0.3-1.1,1.2-1.7,2.4-1.7h0.1l3.7,0.5l0.4,0.4c0.3,0.3,1.2,1.5,0.1,3.2c-0.2,0.4-0.5,0.9-0.8,1.7l-0.6,2.1h1.7l0.4,0.3
			c0.4,0.3,0.7,0.6,0.9,0.9l0.4-1.5h22.2l-3.4,12.4H76.4l2-7.2c-1.5,1.4-2.9,2.9-4.3,4.4c0.5,1.4,1.1,2.7,2,3.8l23.9-0.1l-5.5,20.2
			H88V201.9z M89.9,195.3l0.6-2.3h-2.8l-0.6,2.3H89.9z M80.8,195.3l0.7-2.4H78l-0.7,2.4H80.8z M91.8,188.4l0.6-2.1h-2.8l-0.6,2.1
			H91.8z M82.6,188.4l0.6-2.1h-3.5l-0.6,2.1H82.6z M93.4,176.4l0.9-3.4H85l-0.9,3.4H93.4z M78,167.5l1.2-4.5h27.1l-1.2,4.5H78z"/>
		<path class="st1" d="M73.6,162.6l3.1,0.4c0.3,0.3,0.3,0.7-0.1,1.3c-0.3,0.5-0.6,1.1-1,2l-1.1,4.1h3.2c0.6,0.4,0.8,0.9,0.5,1.4
			c-2.1,2-4,4-5.7,5.8c0.5,2,1.4,3.9,2.8,5.5l-1.5,1.7c-1.1-0.8-2.1-1.9-2.9-3.3l-5.1,18.7h-3.4l5.1-17.9c-2.3,1.7-4.8,3.5-7.4,5.2
			l-1.1-1.6c5.7-3.9,10.5-8.2,14.4-13c0.7-0.7,0.6-1.1-0.4-1.1h-9l0.5-1.4h6.8l1.4-5.1c0.2-0.8,0.2-1.5,0-2.1
			C72.8,162.8,73.1,162.6,73.6,162.6 M104.4,164.5L104,166H80l0.4-1.5H104.4 M100.1,170l-2.6,9.4H78.4L81,170H100.1 M96.3,171.5
			H83.9l-1.7,6.4h12.4L96.3,171.5 M98.1,183.2l-4.7,17.2H90l0.6-2H74.9l-0.5,1.9H71l4.6-17L98.1,183.2 M94.3,184.8h-5.9l-1.4,5.1
			h5.9L94.3,184.8 M85.1,184.8h-6.6l-1.4,5.1h6.6L85.1,184.8 M83.4,191.4h-6.6l-1.5,5.4h6.6L83.4,191.4 M92.5,191.5h-5.9l-1.4,5.3
			h5.9L92.5,191.5 M73.8,159.6h-0.2c-1.9,0-3.4,1.1-3.8,2.9l-0.2,0.8l0.3,0.8l0,0c0,0,0,0.1-0.1,0.4l-0.8,2.9h-4.5h-2.1l-0.7,2
			l-0.5,1.4l-1.4,4H64h3.7c-3,3.1-6.4,5.9-10.4,8.6l-2.5,1.7l1.7,2.5l1.1,1.6l1.7,2.4l2.5-1.6c0.2-0.1,0.4-0.2,0.5-0.4l-2.8,9.7
			l-1.1,3.8h4h3.4h1.3v0.1H71h3.4h2.3l0.5-1.9h9.4l-0.6,2h4h3.4h2.3l0.6-2.2L101,184l1-3.8h-1.6l2.6-9.4l0.5-1.8h0.5h2.3l0.6-2.2
			l0.4-1.5l1-3.8h-3.9h-24h-1.1c-0.1-0.2-0.3-0.4-0.5-0.6l-0.7-0.7l-1-0.1l-3.1-0.4L73.8,159.6L73.8,159.6z M86.2,174.5h6.2
			l-0.1,0.4h-6.2L86.2,174.5L86.2,174.5z"/>
	</g>
	<g>
		<path class="st2" d="M122.9,202.4l2.5-8.9c-2.1,1.4-4.7,2.8-7.7,4.3c-2.6,1.2-5.3,2.1-8.6,3l-1.4,0.4l-1.4-4.4l1.4-0.5
			c4-1.4,7.9-3,11.7-5c1-0.7,2-1.3,2.8-1.9h-12.6l1-4.9H121l0.1-1c0.1-0.4,0.1-0.8,0.1-1.2l-4.6,0.9c-0.7,0.2-1.3,0.4-1.6,0.6h-0.1
			h-0.1c-0.5,0.2-0.9,0.3-1.2,0.3c-1.1,0-1.9-0.7-2.2-1.7v-0.1l-0.4-2.8l0.4-0.5c0.5-0.7,1.4-1.1,2.2-1.1c0.1,0,0.2,0,0.4,0h1.1
			l3-2.9c-0.8-1.3-1.9-2.7-3.1-3.9l-0.9-1l2.9-3.4l1.7,1.1c1.6-1.7,3.2-3.6,4.7-5.9l0.1-0.2l0.2-0.2c0.6-0.4,1.2-0.6,1.8-0.6
			c0.2,0,0.4,0,0.7,0.1l0.3,0.1l1.6,1.3c0.9,0.6,1.1,1.4,1.1,1.9c0,0.4-0.1,1.2-1,1.8c-0.7,0.6-1.3,1.2-1.9,1.7c0,0,0,0,0.1,0
			c0.4,0,0.8,0.1,1.1,0.3l0.2,0.1l0.4,0.4l0.5-1.7h3.7c1-1.5,1.6-2.6,2-3.6l0.1-0.3l0.2-0.2c0.7-0.8,1.4-1.2,2.2-1.2
			c0.4,0,0.8,0.1,1.2,0.3l0.1,0.1l1.6,0.9h0.1c0.5,0.4,0.8,1,0.8,1.6c0,0.5-0.2,1.3-1.3,2.1c-0.1,0.1-0.1,0.1-0.2,0.2h4.8l-0.2,0.6
			l0.8,0.5c1.6-1.6,3-3.3,4.3-5l0.1-0.1c0.3-0.3,1.1-1.3,2.3-1.3c0.4,0,0.8,0.1,1.2,0.3l0.1,0.1l1.5,1.1c1,0.6,1.1,1.4,1.1,1.8
			c0,1.2-1.1,1.8-1.6,2c-0.5,0.3-1,0.7-1.6,1.1c0.3,0,0.6,0.1,0.9,0.2l0.2,0.1l1.8,1.6c0.8,0.8,0.9,1.5,0.8,2
			c-0.2,1.1-1.3,1.6-1.7,1.8c-0.6,0.3-1.3,0.7-2.3,1.4l-0.6,0.5l0.2,0.2c1,1.6,1.8,3.3,2.5,5.7l0.3,1.2l-3.3,1.7h2.1l-1.1,4.6h-14
			c1.2,1.5,2.7,3,4.5,4.4c1.9,1.4,4.2,2.6,6.2,3.6l1.7,0.9l-3.4,3.9l-1-0.4c-3.6-1.5-7.1-3.5-11-6.3l-0.1-0.1l-0.1-0.1
			c-0.8-0.8-1.6-1.6-2.3-2.5l-2.7,9.8h-6.6V202.4z M147.5,184.5l-0.1-0.7c0-0.5-0.1-1.1-0.2-1.6l-6.1,1.5c-0.4,0.2-0.8,0.3-1.2,0.6
			l-0.1,0.1l-0.2,0.1c-0.1,0-0.2,0.1-0.3,0.1h8.2V184.5z M138.1,184.5c-0.2-0.1-0.5-0.2-0.7-0.4h-2.5c0,0.1,0,0.3,0,0.4H138.1z
			 M127.6,184.5l-0.1-0.4h-1.9l-0.9,0.4H127.6z M133.9,179.7l0.6-2H132l-0.6,2H133.9z M140.8,177.5l2.4-2.2
			c-0.4-0.8-0.8-1.5-1.3-2.2L140.8,177.5z M125.3,175.4c0.1,0.2,0.3,0.4,0.4,0.6l0.4-1.3L125.3,175.4z M135.7,173.1l0.5-1.8h-2.4
			l-0.5,1.8H135.7z"/>
		<path class="st1" d="M125.4,162.3c0.1,0,0.2,0,0.3,0l1.4,1.1c0.6,0.4,0.6,0.9,0,1.3c-2.2,2-4.5,4-6.8,5.8c0.8,0.9,1.5,1.6,2.1,2.3
			c1.1-1,2-2.1,2.8-3.3c0.3-0.3,0.7-0.4,1-0.4c0.2,0,0.3,0,0.4,0.1l1.4,1.3c0.2,0.4-0.1,0.8-0.7,1.2c-0.5,0.3-1,0.8-1.7,1.4
			l-6.9,5.9l3.8-0.4l-0.3-1.6l1.8-0.9c0.8,1,1.4,2.4,2,4.3l3.5-12.2h3.4c1.2-1.7,2.1-3.2,2.6-4.6c0.3-0.4,0.7-0.6,1.1-0.6
			c0.2,0,0.3,0,0.5,0.1l1.5,0.9c0.4,0.3,0.3,0.8-0.4,1.3c-1.1,0.9-2.1,1.9-3.1,2.9h6.6l-3.2,11.9l2-0.4l4.5-4
			c-0.8-2-1.9-3.8-3.3-5.4l1.7-1.3l1.1,0.7c2.1-2,3.9-4.1,5.3-6c0.4-0.5,0.8-0.7,1.2-0.7c0.2,0,0.3,0,0.5,0.1l1.5,1.1
			c0.7,0.4,0.6,0.8-0.4,1.3c-1.9,1.3-4.1,3.1-6.8,5.3c0.7,0.7,1.4,1.4,2,2c0.7-0.5,1.5-1.4,2.7-2.7c0.5-0.5,0.8-0.7,1.2-0.7
			c0.1,0,0.2,0,0.3,0.1l1.7,1.5c0.5,0.5,0.4,0.9-0.5,1.3c-0.8,0.4-1.6,0.9-2.5,1.5l-7.6,5.7l5.1-1l-0.3-1.2l1.9-0.7
			c1,1.5,1.7,3.2,2.3,5.3l-3.2,1.7c-0.1-1.1-0.2-2.2-0.4-3.3l-7.8,1.9c-0.5,0.2-1,0.4-1.5,0.7c-0.2,0.1-0.3,0.1-0.5,0.1
			c-0.3,0-0.5-0.2-0.6-0.5l-0.3-0.8l-0.2,0.8h-12.4l-2.6,1.1c0.2-1.4,0.2-2.4,0-3.2l-6.4,1.3c-0.9,0.3-1.5,0.5-1.9,0.7
			c-0.3,0.1-0.5,0.2-0.7,0.2c-0.4,0-0.6-0.2-0.8-0.7l-0.3-2.1c0.2-0.3,0.6-0.5,1-0.5c0.1,0,0.2,0,0.3,0h1.8l4.3-4.1
			c-0.9-1.6-2.2-3.4-3.9-5.2l1.2-1.4l1.6,1c2.1-2,4-4.4,5.7-7C124.8,162.4,125.1,162.3,125.4,162.3 M138.1,169.8h-5.5l-1.3,4.8h5.5
			L138.1,169.8 M136.4,176.2h-5.5l-1.4,5h5.5L136.4,176.2 M130,183.4l3.1,0.4c0.3,0.3,0.3,0.7,0,1.3c-0.4,0.6-0.6,0.9-0.6,0.9h18.3
			l-0.4,1.6h-15.6c1.3,2.4,3.4,4.8,6.3,7.1c1.9,1.4,4.1,2.6,6.5,3.8l-1.4,1.6c-3.8-1.6-7.3-3.7-10.7-6.1c-1.5-1.4-2.8-3-4-4.8
			l-3.2,11.7h-3.4l3.1-11.3c-2.6,2.3-6.2,4.5-11,6.8c-2.9,1.3-5.7,2.2-8.3,2.9l-0.5-1.6c4.1-1.4,8.1-3.1,12-5.1
			c2.8-1.8,4.9-3.4,6.2-4.7h-14.9l0.4-1.9h17.2c0.1-0.7,0.1-1.4-0.1-2C129.1,183.6,129.5,183.4,130,183.4 M125.4,159.3
			c-0.9,0-1.9,0.3-2.7,0.9l-0.4,0.3L122,161c-1.2,1.8-2.4,3.4-3.7,4.8l-1.7-1.1l-1.7,2l-1.2,1.4l-1.8,2l1.9,2
			c0.8,0.9,1.6,1.8,2.2,2.7l-1.6,1.6H114c-0.2,0-0.3,0-0.5,0c-1.3,0-2.6,0.6-3.4,1.7l-0.7,1l0.2,1.2l0.3,2.1v0.2l0.1,0.2
			c0,0.1,0,0.1,0.1,0.2h-0.5l-0.5,2.4l-0.4,1.9l-0.8,3.6h3.7h5.4c-3.1,1.5-6.4,2.8-9.7,4l-2.8,0.9l0.9,2.8l0.5,1.6l0.9,2.8l2.8-0.7
			c3.2-0.9,6.1-1.9,8.7-3.1l0,0l0,0c1.7-0.8,3.2-1.6,4.6-2.4l-0.9,3.4l-1,3.8h3.9h3.4h2.3l0.6-2.2l1.7-6.1c0.2,0.2,0.4,0.4,0.6,0.6
			l0.1,0.1l0.2,0.1c3.9,2.8,7.6,4.9,11.3,6.4l2,0.8l1.4-1.6l1.4-1.6l2.6-2.9l-3.5-1.7c-1.9-1-4.2-2.1-6-3.5c-0.7-0.6-1.4-1.1-2-1.7
			h9.5h2.3l0.6-2.3l0.4-1.6l0.6-2.5l1.3-0.7l-0.7-2.3c-0.6-2-1.2-3.7-2.1-5.1c0.6-0.4,1.1-0.7,1.6-0.9c1.7-0.8,2.3-2,2.4-2.8
			c0.1-0.7,0.2-2-1.1-3.3l-0.1-0.1l-0.1-0.1l-1.1-0.9c1.2-0.8,1.8-1.8,1.8-3c0-0.6-0.1-2.1-1.8-3.1l-1.4-1l-0.2-0.2l-0.2-0.1
			c-0.6-0.3-1.2-0.5-1.9-0.5c-1.3,0-2.4,0.6-3.5,1.8l-0.1,0.1l-0.1,0.1c-0.8,1.1-1.7,2.2-2.7,3.3h-3c0.1-0.3,0.1-0.5,0.1-0.7
			c0-1.1-0.5-2.2-1.4-2.9l-0.1-0.1l-0.1-0.1l-1.5-0.9l-0.1-0.1l-0.1-0.1c-0.6-0.3-1.2-0.5-1.9-0.5c-0.9,0-2.2,0.3-3.4,1.7l-0.3,0.4
			l-0.2,0.5c-0.3,0.7-0.7,1.6-1.4,2.6h-1c0.1-0.4,0.2-0.8,0.2-1.1c0-1.2-0.6-2.3-1.7-3.1l-1.3-1l-0.5-0.4l-0.6-0.2
			C126.1,159.4,125.7,159.3,125.4,159.3L125.4,159.3z"/>
	</g>
	<g>
		<path class="st2" d="M158.2,199.8l0.9-1.1c3.7-4.8,6.7-10.4,9-16.6l2.3-8h-3.8l1.2-4.6h6.3l1.2-4.4c0.1-0.5,0.1-0.9,0-1.2
			l-0.1-0.4l0.1-0.4c0.3-1.1,1.2-1.7,2.4-1.7h0.1l3.7,0.5l0.4,0.4c0.3,0.3,1.2,1.5,0.1,3.2c-0.2,0.4-0.5,0.9-0.8,1.7l-0.7,2.6h5.4
			l-0.2,0.7c1.7-2.1,3.5-4.5,5.2-7.1c0.6-2,1.9-2.3,2.6-2.3c0.2,0,0.5,0,0.7,0.1h0.1h0.1c1.7,0.6,3.5,1.5,3.5,3.1
			c0,0.9-0.5,1.7-1.6,2.3c-0.3,0.4-0.7,0.9-1,1.3h13.2l-1.2,4.5h-10.4l1.6,1.3l0.1,0.3c0.6,1.1,0.4,1.9,0.2,2.3
			c-0.5,1-1.6,1.4-2.3,1.6c-0.3,0.3-0.6,0.6-1,0.9c0.6,0.2,0.9,0.6,1,0.9c0.3,0.6,0.3,1.3,0.1,1.8c0.7-0.7,1.6-1.5,2.5-2.4
			c0.4-0.6,1.4-1.9,3-1.9c0.2,0,0.5,0,0.7,0.1l0.5,0.1l1.8,2.2l0.1,0.3c0.4,1.4,0.1,2.3-0.3,2.8c-0.3,0.5-1,1-2.2,1.1
			c-1.1,0.9-2.3,1.8-3.7,2.8c-0.7,0.5-1.5,1.1-2.4,1.7c0.5,4.1,1.9,7.6,3.9,10.4l0.9,1.2l-4.2,2.9l-0.9-0.7
			c-2.6-2.1-4.4-5.4-5.5-9.9c-0.4-1.5-0.6-3.2-0.8-5.3l-4,14.8h-6.5l3.7-13.2c-0.2,0.1-0.4,0.3-0.6,0.4l-1.3,0.8l-0.9-1.7l-1.3,4.7
			c-2,6-4.5,9.1-7.5,9.5h-0.1h-0.1c-0.8,0-1.6,0-2.4-0.1c-0.8,0-1.6,0-2.4,0h-1.4l-0.2-2.5c-0.8,0.8-1.6,1.6-2.4,2.4l-1,0.9
			L158.2,199.8z M170.1,197.5c0.2-0.3,1.1-1.3,2.6-5l3.1-11.1h-0.9c-1.2,3.6-2.8,7.4-4.8,11.4v0.1v0.1c-0.9,1.5-1.9,2.8-2.9,4.1
			c1.4,0.2,2.4,0.4,2.9,0.5h0V197.5z M181.6,183c4.5-3.6,8.3-7.2,11.8-10.9h-1.6c-2.1,2.2-4.3,4.2-6.6,6.1l-0.8,0.7L183,178
			L181.6,183z M180.9,176.7l-0.8-0.5l1.3-1.3c0.2-0.2,0.4-0.4,0.6-0.6h-5.4l-0.7,2.5L180.9,176.7L180.9,176.7z"/>
		<path class="st1" d="M193.3,162.3c0.1,0,0.2,0,0.4,0c2.8,1,3.3,1.9,1.5,2.7c-0.9,1.2-1.9,2.5-3.1,4h14.3l-0.4,1.5h-14.9v0.1
			c-1.9,2-4.2,4.2-6.8,6.3l-1.8-1.1c3.7-3.7,6.8-7.8,9.6-12.1C192.4,162.8,192.7,162.3,193.3,162.3 M177.6,162.8l3.1,0.4
			c0.3,0.3,0.3,0.7-0.1,1.3c-0.3,0.5-0.6,1.1-1,2l-1.3,4.6h5.5l-0.4,1.6h-7.9l-1.5,5.5h7.4l-3.8,13.9c-1.8,5.3-3.9,8.1-6.2,8.4
			c-1.6,0-3.2-0.1-4.8-0.1l-0.2-2c1.9,0.3,3,0.5,3.4,0.6h0.7c0.9-0.3,2.1-2.3,3.6-6l3.6-13.1h-4c-1.3,4.2-3,8.2-5,12.2
			c-2.2,3.5-4.6,6.3-7.1,8.6l-1.3-1.1c3.8-4.9,6.9-10.6,9.2-17l2.9-10h-3.9l0.4-1.6h6.3l1.5-5.5c0.2-0.8,0.2-1.5,0-2.1
			C176.8,163,177.1,162.8,177.6,162.8 M195,172.6l2.2,1.8c0.5,0.9,0,1.5-1.5,1.8c-1.6,1.5-3.6,3.3-5.8,5.4l-5,18.4h-3.4l4.4-15.7
			c-1.2,1.1-2.5,2.1-4.1,3.1l-1-1.8C185.9,181.6,190.7,177.3,195,172.6 M202.1,178.3c0.1,0,0.2,0,0.3,0l1.3,1.6c0.4,1.3-0.2,2-1.6,2
			c-1.9,1.5-4.3,3.2-7.1,5.3c0.5,4.8,2,8.8,4.3,12l-2,1.4c-2.4-2-4-5.1-5-9.1c-0.6-2.4-0.9-5.8-0.9-10.2c0.1-0.6,0.4-1,1-1.2
			c0.9-0.3,1.5-0.4,2-0.4c0.9,0,1,0.5,0.3,1.6c-0.1,0.7,0,1.7,0.3,3.1c1.1-0.9,2.9-2.5,5.2-4.8C200.8,178.8,201.4,178.3,202.1,178.3
			 M193.3,159.3c-0.9,0-3,0.3-4,3.2c-1.3,2-2.6,3.9-4,5.6h-1.6h-1.5l0.2-0.6c0.3-0.6,0.5-1.1,0.7-1.4c1.4-2.1,0.7-4-0.3-5l-0.7-0.7
			l-1-0.1l-3.1-0.4h-0.2h-0.2c-1.9,0-3.4,1.1-3.8,2.9l-0.2,0.8l0.3,0.8l0,0c0,0,0,0.1-0.1,0.4l-0.9,3.3h-4h-2.3l-0.6,2.3l-0.4,1.6
			l-0.9,3.7h3.7l-1.8,6.1c-2.2,6-5.1,11.4-8.7,16.1l-1.8,2.3l2.2,1.9l1.3,1.1l2,1.7l1.9-1.8c0.1-0.1,0.1-0.1,0.2-0.2l0.1,0.7h2.7
			c0.8,0,1.5,0,2.3,0s1.6,0.1,2.5,0.1h0.2h0.2c3.3-0.4,6-3.4,8.1-9l-1.3,4.7l-1.1,3.8h4h3.4h2.3l0.6-2.2l1.9-7.2
			c1.2,4.2,3.1,7.2,5.6,9.4l1.8,1.5l1.9-1.3l2-1.4l2.5-1.7l-1.8-2.5c-1.8-2.5-3-5.5-3.5-8.9c0.6-0.4,1.1-0.8,1.6-1.2
			c1.3-0.9,2.4-1.8,3.4-2.6c1.5-0.3,2.4-1.1,2.7-1.7c0.5-0.6,1.2-2,0.5-4.1l-0.2-0.6l-0.4-0.5l-1.3-1.6l-0.6-0.8l-1-0.2
			c-0.4-0.1-0.7-0.1-1.1-0.1l0,0c-0.6,0-1.2,0.1-1.7,0.4c0.1-0.6,0.1-1.3-0.2-2.1h5.9h2.3l0.6-2.2l0.4-1.5l1-3.8h-3.9h-7.8
			c0.5-0.8,0.6-1.6,0.6-2.1c-0.1-2.8-3.2-3.9-4.5-4.4h-0.1h-0.1C194.1,159.4,193.7,159.3,193.3,159.3L193.3,159.3z"/>
	</g>
	<g>
		<path class="st2" d="M214.3,202c-1.2,0-1.8-1-2.1-1.3l-0.1-0.1l-0.7-1.4c-0.4-1-0.2-1.7,0-2.1c0.3-0.6,0.9-1,1.8-1.1l4.4-2.8
			l2.6-9.7h-4.5l1.2-4.5h3.5c-0.3-2.8-0.9-5.6-1.7-8.2l-0.3-1.1l3.7-2.1c-0.4-0.7-0.8-1.5-1.2-2.2l-0.7-1.2l4-2.8l0.9,1.2
			c1.4,1.8,2.7,3.8,3.9,5.7l0.2-0.6h5.1l0.8-2.9c0.1-0.5,0.1-0.9,0-1.2l-0.1-0.4l0.1-0.4c0.3-1.1,1.2-1.7,2.4-1.7h0.1l3.7,0.5
			l0.4,0.4c0.3,0.3,1.2,1.5,0.1,3.2c-0.2,0.4-0.5,0.9-0.8,1.7l-0.3,1.1h2.9c1.3-1.8,2.4-3.4,3.3-5c0.6-1.5,1.6-1.6,2.1-1.6
			c0.3,0,0.6,0.1,0.8,0.2l2.1,0.7l0.2,0.1c1,0.6,1.1,1.5,1.1,1.9c0,0.5-0.2,1.3-1.2,1.9c-0.2,0.3-0.5,0.5-0.8,0.8h9.2l-1.2,4.5
			h-11.8c0,0-1,1.1-1.4,1.5h8.1l0.2,0.1c1.4,0.4,2,1.2,2.2,1.9c0.3,1,0,2-0.8,3.1l-0.1,0.2l-4.7,3.6h5.5l-1.2,4.6h-6.4l-1.5,5.3
			c-0.7,2.2-1.9,3.7-3.5,4.5h11.7l-3.6,4.9h-24.3c-3.1,0-5.8-0.9-8.1-2.7l-2.7,2.2c-0.4,0.4-0.7,0.7-0.9,1l-0.1,0.1l-0.1,0.1
			C215.3,201.9,214.7,202,214.3,202z M236.9,195.8l-0.2-2.4c-0.9,1.2-1.9,1.9-3.2,2.4H236.9z M226.3,195.4c0.1,0,0.2,0.1,0.3,0.1
			v-0.4C226.5,195.2,226.3,195.4,226.3,195.4z M238.3,191.3c1.4,0.2,2.1,0.3,2.4,0.3c0.1-0.1,0.1-0.3,0.2-0.6l1.4-5h-2.8
			c-0.3,0.9-0.6,1.9-0.9,2.8c-0.2,0.8-0.5,1.5-0.7,2.3v0.1c0,0,0,0.1-0.1,0.1L238.3,191.3z M229.9,191.3c0.5,0.1,0.9,0.2,1.3,0.2
			c0.1-0.1,0.4-0.5,0.7-1.3c0.6-1.7,1.3-3.4,1.9-5.3c-0.3,0.7-0.6,1.4-0.9,2.1v0.1l-0.1,0.1C231.8,188.6,230.9,190,229.9,191.3z
			 M228.2,178.9l-2.6,9.3c2.2-3.3,3.6-6.2,4.2-8.7l2-7.5h-1l-4.4,3.4c0.3,0.8,0.5,1.5,0.7,2.3l0.3,1.1l-0.1,0.1L228.2,178.9
			L228.2,178.9z M243.8,181.5l1.1-4h3.6l0.2-0.2h-6.4c-0.2,0.9-1,3.7-1.1,4.2H243.8z M240.5,174.8l-1.8-1.2c0,0,1.3-1.4,1.3-1.5
			h-2.3l-0.7,2.7H240.5z"/>
		<path class="st1" d="M237.6,162.3l3.1,0.4c0.3,0.3,0.3,0.7-0.1,1.3c-0.3,0.5-0.6,1.1-1,2l-0.8,3.1h4.4l-0.4,1.5h-6.3
			c-0.5,1.9-1,3.8-1.5,5.7h5.9c-0.6,2.2-1.2,4.5-1.8,6.7h5.8l1.1-4h3.2l2.5-3.2h-9v-0.1l0.4-1.6h10.8c1.4,0.4,1.6,1.3,0.6,2.6
			l-5.9,4.6l-0.5,1.6h6.4l-0.4,1.6h-6.4l-1.8,6.4c-0.8,2.4-2.1,3.7-4.1,4c-0.7,0-1.9-0.1-3.5-0.1l-0.2-2c1.4,0.2,2.4,0.3,2.9,0.3
			c0.2,0,0.3,0,0.3,0h0.1c0.4,0,0.6-0.6,1-1.6l1.9-7h-5.8c-0.7,2.1-1.3,4.2-1.9,6.1c-1.1,2.4-2.5,3.7-4.5,4c-1.1,0-2.5-0.1-4.1-0.1
			l-0.2-2c1.9,0.3,3,0.5,3.4,0.6c0.8,0,1.5-0.8,2.1-2.3c1.5-3.9,2.8-8.2,4.2-13.1h-2.9c-0.9,3.2-1.9,6.1-3.1,8.7
			c-1.9,3-4,5.7-6.2,7.9l-1.7-0.9c4.2-5.2,6.8-9.7,7.7-13.6l2.5-9.3h-3.7l0.4-1.5h5.1l1.1-4c0.2-0.8,0.2-1.5,0-2.1
			C236.8,162.5,237.1,162.3,237.6,162.3 M249,162.4c0.1,0,0.2,0,0.3,0.1l2,0.7c0.6,0.4,0.6,0.9-0.2,1.4c-0.9,0.9-1.9,2.1-3.1,3.5
			h10.5l-0.4,1.5h-11.3c-1.9,2-3.4,3.6-4.5,4.6l-1.4-0.9c3.1-3.5,5.6-6.8,7.4-10.1C248.5,162.7,248.7,162.4,249,162.4 M224.1,163.3
			c1.9,2.5,3.6,5.2,5.3,7.9l-3.1,2.4c-0.7-2.7-2-5.7-3.9-9.1L224.1,163.3 M222.1,169.3c1.6,3.1,2.8,6.1,3.5,8.8l-3.3,1.9
			c-0.3-3.1-0.9-6.4-1.9-9.7L222.1,169.3 M226.2,180.4l-3.1,11.3c-0.2,3.4,1.3,5.3,4.5,5.6h25l-1.4,1.9h-23.5
			c-3.2,0-5.9-1.1-8.1-3.2l-3.7,3.1c-0.4,0.4-0.8,0.8-1.1,1.2c-0.2,0.2-0.3,0.2-0.5,0.2c-0.3,0-0.5-0.2-0.8-0.6l-0.6-1.3
			c-0.3-0.7,0-1.1,1-1.2l5.2-3.3l3.3-12.2h-4.5l0.4-1.5H226.2 M224.7,159.1l-2.4,1.7l-1.7,1.2l-2.2,1.6l1.3,2.4
			c0.2,0.3,0.3,0.6,0.5,0.9l-1.4,0.8l-2,1.2l0.7,2.3c0.6,2,1.1,4.1,1.4,6.2h-0.6H216l-0.6,2.2l-0.4,1.5l-1,3.8h3.9h0.6l-2,7.3
			l-3.7,2.4c-1.4,0.3-2.1,1.1-2.5,1.8c-0.4,0.6-0.8,1.8-0.1,3.5l0,0l0,0l0.6,1.3l0.1,0.3l0.2,0.2c1.1,1.6,2.4,1.9,3.3,1.9
			c1,0,1.9-0.4,2.6-1.1l0.2-0.2l0.1-0.2c0.2-0.2,0.4-0.5,0.7-0.8l1.7-1.4c2.4,1.5,5,2.3,8,2.3h23.5h1.5l0.9-1.2l1.4-1.9l3.5-4.8
			h-5.9h-5c0.4-0.7,0.8-1.5,1.1-2.5v-0.1v-0.1l1.2-4.2h4.1h2.3l0.6-2.3l0.4-1.6l0.9-3.7h-3.1l1.1-0.8l0.3-0.2l0.2-0.3
			c1.5-1.9,1.4-3.5,1-4.5c-0.1-0.4-0.4-0.9-0.8-1.4h1h2.3l0.6-2.2l0.4-1.5l1-3.8h-3.9h-4c0.2-0.5,0.2-0.9,0.2-1.2
			c0-1.2-0.6-2.4-1.8-3.2l-0.3-0.2l-0.4-0.1l-2-0.7c-0.4-0.2-0.9-0.2-1.3-0.2l0,0c-0.6,0-2.5,0.2-3.4,2.5c-0.7,1.3-1.6,2.7-2.7,4.1
			l0,0c0.1-0.2,0.2-0.4,0.3-0.5c1.4-2.1,0.7-4-0.3-5l-0.7-0.7l-1-0.1l-3.1-0.4h-0.2h-0.2c-1.9,0-3.4,1.1-3.8,2.9l-0.2,0.8l0.3,0.8
			l0,0c0,0,0,0.1-0.1,0.4l-0.5,1.8h-2.8h-0.9c-1-1.5-2-3.1-3.2-4.5L224.7,159.1L224.7,159.1z M228.1,176L228.1,176l1.4-1.1l-0.7,2.5
			h-0.3v-0.1C228.4,176.9,228.3,176.4,228.1,176L228.1,176z"/>
	</g>
</g>
<g>
	<g>
		<polygon class="st2" points="5.6,230.8 11,209.9 23.8,209.9 22.5,215.2 15,215.2 14.4,217.4 20.8,217.4 19.5,222.8 13,222.8 
			10.8,230.8 		"/>
		<path class="st1" d="M21.9,211.4l-0.6,2.3h-7.5l-1.3,5.2h6.4l-0.6,2.4h-6.4l-2.2,8H7.5l4.7-17.9H21.9 M25.8,208.4h-3.9h-9.7H9.9
			l-0.6,2.2l-4.7,17.9l-1,3.8h3.9h2.2H12l0.6-2.2l1.6-5.8h4.1h2.3l0.6-2.3l0.6-2.4l0.7-2.9h1.1l0.6-2.2l0.6-2.3L25.8,208.4
			L25.8,208.4z"/>
	</g>
	<g>
		<path class="st2" d="M23.9,231.1c-1.5,0-2.8-0.4-3.7-1.1c-0.5-0.4-1.2-1.1-1.4-2.4c-0.2-1.1-0.1-2.4,0.3-4.2l3.5-13.5h5.2
			L24.2,224c-0.2,0.9-0.2,1.4-0.1,1.6c0,0,0.2,0.1,0.4,0.1c0.4,0,0.7-0.1,1.1-0.4c0.3-0.3,0.7-0.9,1-2l3.5-13.3h5.3l-3.7,14.3
			c-0.4,1.5-0.9,2.7-1.7,3.9l-0.1,0.1c-0.6,0.8-1.2,1.4-2.2,1.9C26.4,230.7,25.2,231.1,23.9,231.1z"/>
		<path class="st1" d="M33.3,211.4l-3.2,12.4c-0.4,1.4-0.9,2.5-1.5,3.5c-0.5,0.7-1,1.1-1.7,1.5c-0.9,0.5-1.9,0.8-3,0.8
			s-2.1-0.3-2.7-0.8c-0.5-0.4-0.8-0.8-0.9-1.5c-0.2-0.9-0.1-2,0.3-3.5l3.2-12.4h2.1l-3.2,12.2c-0.3,1.3-0.3,2.1,0,2.7
			c0.3,0.5,0.9,0.8,1.7,0.8c0.9,0,1.5-0.3,2.1-0.8c0.6-0.6,1.1-1.5,1.4-2.7l3.2-12.2H33.3 M37.2,208.4h-3.9h-2.2h-1.3h-3.9h-2.1
			h-2.3l-0.6,2.3L17.7,223c-0.5,1.9-0.6,3.4-0.3,4.8c0.3,1.8,1.2,2.7,2,3.3c1.2,1,2.8,1.5,4.6,1.5c1.6,0,3.1-0.4,4.5-1.2
			c1.2-0.7,2-1.4,2.7-2.4l0.1-0.1l0.1-0.1c0.8-1.3,1.4-2.7,1.8-4.2l0,0l0,0l3.2-12.4L37.2,208.4L37.2,208.4z"/>
	</g>
	<g>
		<polygon class="st2" points="28.5,230.8 33.9,209.9 39.2,209.9 35.1,225.4 42.6,225.4 41.3,230.8 		"/>
		<path class="st1" d="M37.3,211.4l-4.1,15.5h7.5l-0.6,2.4h-9.7l4.7-17.9H37.3 M41.2,208.4h-3.9h-2.2h-2.3l-0.6,2.2l-4.7,17.9
			l-1,3.8h3.9h9.7h2.3L43,230l0.6-2.4l0.9-3.7h-3.8h-3.6l3.1-11.7L41.2,208.4L41.2,208.4z"/>
	</g>
	<g>
		<polygon class="st2" points="39.9,230.8 45.3,209.9 50.6,209.9 46.5,225.4 54,225.4 52.7,230.8 		"/>
		<path class="st1" d="M48.7,211.4l-4.1,15.5h7.5l-0.6,2.4h-9.7l4.7-17.9H48.7 M52.6,208.4h-3.9h-2.2h-2.3l-0.6,2.2l-4.7,17.9
			l-1,3.8h3.9h9.7h2.3l0.6-2.3l0.6-2.4l0.9-3.7h-3.8h-3.6l3.1-11.7L52.6,208.4L52.6,208.4z"/>
	</g>
	<g>
		<polygon class="st2" points="51.3,230.9 56.7,210 69.5,210 68.2,215.3 60.6,215.3 60.1,217.5 66.2,217.5 64.9,222.9 58.7,222.9 
			58,225.5 65.4,225.5 64.1,230.9 		"/>
		<path class="st1" d="M67.6,211.5l-0.6,2.3h-7.5l-1.4,5.2h6.2l-0.6,2.4h-6.2L56,227h7.5l-0.6,2.4h-9.7l4.7-17.9H67.6 M71.5,208.5
			h-3.9h-9.7h-2.3l-0.6,2.2l-4.7,17.9l-1,3.8h3.9h9.7h2.3l0.6-2.3l0.6-2.4l0.9-3.7h-1.2l0.5-1.9l0.6-2.4l0.7-2.9h1.4l0.6-2.2
			l0.6-2.3L71.5,208.5L71.5,208.5z"/>
	</g>
	<g>
		<path class="st2" d="M70.6,230.9l-0.7-7.6l-2,7.6h-5.3l5.5-20.9H72v-0.1h1.5c2.1,0,3.5,0.5,4.7,1.6c0.9,0.9,1.7,2.4,0.9,5.1
			c-0.4,1.7-1.5,3.3-3,4.5c-0.3,0.3-0.6,0.5-1,0.6l1,9.1L70.6,230.9L70.6,230.9z M71.4,217.5c0.7,0,1.3-0.2,1.8-0.5
			c0.4-0.3,0.6-0.6,0.7-1.1c0.1-0.3,0.1-0.4,0.1-0.5l0,0c-0.1,0-0.3-0.1-0.9-0.1H72L71.4,217.5z"/>
		<path class="st1" d="M73.5,211.4c1.7,0,2.8,0.4,3.6,1.2c0.8,0.8,1,2,0.5,3.6c-0.4,1.5-1.3,2.8-2.5,3.8c-0.5,0.4-1.1,0.7-1.6,0.9
			l0.9,8.5H72l-0.7-8h-0.2h-2.2l-2.1,8h-2.2l4.7-17.9h4.2L73.5,211.4 M69.4,219h1.8l0,0c1.1,0,2.1-0.3,2.8-0.8
			c0.7-0.5,1.1-1.1,1.3-2c0.2-0.8,0.1-1.4-0.3-1.8c-0.4-0.4-1.1-0.6-2-0.6h-2.2L69.4,219 M73.5,208.4h-3v0.1h-1.2H67l-0.6,2.2
			l-4.7,17.9l-1,3.8h3.9h2.2h2.3l0.1-0.4v0.4H72h2.4h3.3l-0.4-3.3l-0.7-6.5c0.1-0.1,0.2-0.1,0.3-0.2l0,0l0,0
			c1.7-1.4,2.9-3.2,3.5-5.3c1.1-3.5-0.3-5.6-1.3-6.6C77.8,209,76,208.4,73.5,208.4L73.5,208.4z"/>
	</g>
	<g>
		<polygon class="st2" points="85.6,230.9 91,210 103.8,210 102.5,215.3 94.9,215.3 94.4,217.5 100.5,217.5 99.2,222.9 93,222.9 
			92.3,225.5 99.7,225.5 98.4,230.9 		"/>
		<path class="st1" d="M101.9,211.5l-0.6,2.3h-7.5l-1.4,5.2h6.2l-0.6,2.4h-6.2l-1.5,5.6h7.5l-0.6,2.4h-9.7l4.7-17.9H101.9
			 M105.8,208.5h-3.9h-9.7h-2.3l-0.6,2.2l-4.7,17.9l-1,3.8h3.9h9.7h2.3l0.6-2.3l0.6-2.4l0.9-3.7h-1.2l0.5-1.9l0.6-2.4l0.7-2.9h1.4
			l0.6-2.2l0.6-2.3L105.8,208.5L105.8,208.5z"/>
	</g>
	<g>
		<polygon class="st2" points="105.2,230.8 104.6,226.8 101.9,230.8 95.8,230.8 103.5,219.6 101.9,209.9 107.4,209.9 107.9,213.1 
			110.1,209.9 116.1,209.9 109,220.3 110.7,230.8 		"/>
		<path class="st1" d="M113.3,211.4l-5.9,8.6l1.5,9.3h-2.4l-1-6.4l-4.4,6.4h-2.4l6.4-9.3l-1.4-8.6h2.4l0.9,5.7l3.9-5.7H113.3
			 M119,208.4h-5.7h-2.4h-1.6l-0.5,0.8l-0.1-0.8h-2.6h-2.4h-3.5l0.6,3.5l1.2,7.4l-5.7,8.3l-3.2,4.7h5.7h2.4h1.6l0.9-1.3l0.1-0.2
			l0.2,1.5h2.6h2.4h3.5l-0.6-3.5l-1.3-8.1l5.2-7.6L119,208.4L119,208.4z"/>
	</g>
	<g>
		<path class="st2" d="M108.5,230.9L114,210l5.2-0.1c2,0,3.7,0.6,4.9,1.7l0.1,0.1l0.1,0.1c0.8,0.9,1.7,2.5,1,5.1
			c-0.5,1.9-1.5,3.4-3.1,4.5c-1.6,1-3.4,1.6-5.5,1.6h-0.8l-2.1,8.1h-5.3V230.9z M117.1,217.4c1.1,0,1.5-0.2,1.7-0.4l0.1-0.1
			c0.4-0.3,0.6-0.6,0.7-1c0-0.2,0.1-0.4,0.1-0.4c-0.1-0.1-0.5-0.2-1.2-0.2h-0.8L117.1,217.4z"/>
		<path class="st1" d="M119.2,211.4c1.7,0,3,0.5,3.9,1.3c0.8,0.9,1.1,2.1,0.7,3.7c-0.4,1.5-1.2,2.7-2.5,3.6
			c-1.2,0.8-2.7,1.3-4.6,1.3h-2l-2.1,8.1h-2.2l4.7-17.9L119.2,211.4 M115.2,218.9h1.9c1.2,0,2.1-0.2,2.7-0.7
			c0.7-0.5,1.1-1.1,1.3-1.8c0.2-0.9,0.2-1.5-0.3-1.9c-0.5-0.5-1.3-0.7-2.3-0.7h-2L115.2,218.9 M119.2,208.4L119.2,208.4L119.2,208.4
			l-4.2,0.1l-2.3,0.1l-0.6,2.2l-4.7,17.9l-1,3.8h3.9h2.2h2.3l0.6-2.2l1.5-5.9c2.2-0.1,4.2-0.7,5.9-1.8l0,0l0,0
			c1.9-1.3,3.1-3.1,3.7-5.3c0.8-3.2-0.3-5.3-1.4-6.5l-0.1-0.1l-0.1-0.1C123.6,209.1,121.5,208.4,119.2,208.4L119.2,208.4z"/>
	</g>
	<g>
		<path class="st2" d="M127.7,230.9l-0.7-7.6l-2,7.6h-5.3l5.5-20.9l5.3-0.1c2.1,0,3.6,0.5,4.7,1.6c0.9,0.9,1.7,2.4,0.9,5.1
			c-0.4,1.7-1.5,3.3-3,4.5c-0.3,0.3-0.6,0.5-1,0.6l1,9.1L127.7,230.9L127.7,230.9z M128.6,217.5c0.7,0,1.3-0.2,1.8-0.5
			c0.4-0.3,0.6-0.6,0.7-1.1c0.1-0.3,0.1-0.4,0.1-0.5l0,0c-0.1,0-0.3-0.1-0.9-0.1h-1.1L128.6,217.5z"/>
		<path class="st1" d="M130.6,211.4c1.7,0,2.8,0.4,3.6,1.2s1,2,0.5,3.6c-0.4,1.5-1.3,2.8-2.5,3.8c-0.5,0.4-1.1,0.7-1.6,0.9l0.9,8.5
			h-2.4l-0.7-8h-0.2H126l-2.1,8h-2.2l4.7-17.9L130.6,211.4 M126.6,219h1.8l0,0c1.1,0,2.1-0.3,2.8-0.8s1.1-1.1,1.3-2
			c0.2-0.8,0.1-1.4-0.3-1.8c-0.4-0.4-1.1-0.6-2-0.6H128L126.6,219 M130.6,208.4L130.6,208.4L130.6,208.4l-4.3,0.1l-2.3,0.1l-0.6,2.2
			l-4.7,17.9l-1,3.8h3.9h2.2h2.3l0.1-0.4v0.4h2.7h2.4h3.3l-0.4-3.3l-0.7-6.5c0.1-0.1,0.2-0.1,0.3-0.2l0,0l0,0
			c1.7-1.4,2.9-3.2,3.5-5.3c1.1-3.5-0.3-5.6-1.3-6.6C134.9,209,133.1,208.4,130.6,208.4L130.6,208.4z"/>
	</g>
	<g>
		<polygon class="st2" points="131.3,230.9 136.7,210 149.5,210 148.2,215.3 140.6,215.3 140.1,217.5 146.2,217.5 144.9,222.9 
			138.7,222.9 138,225.5 145.4,225.5 144.1,230.9 		"/>
		<path class="st1" d="M147.6,211.5l-0.6,2.3h-7.5l-1.4,5.2h6.2l-0.6,2.4h-6.2L136,227h7.5l-0.6,2.4h-9.7l4.7-17.9H147.6
			 M151.5,208.5h-3.9h-9.7h-2.3l-0.6,2.2l-4.7,17.9l-1,3.8h3.9h9.7h2.3l0.6-2.3l0.6-2.4l0.9-3.7h-1.2l0.5-1.9l0.6-2.4l0.7-2.9h1.4
			l0.6-2.2l0.6-2.3L151.5,208.5L151.5,208.5z"/>
	</g>
	<g>
		<path class="st2" d="M149.5,231c-1.7,0-3.1-0.5-4.2-1.5c-0.8-0.9-1.5-2.4-1.2-4.8l0.1-0.9l5.2-1.9c-1.3-0.8-2.2-1.7-2.6-2.6v-0.1
			v-0.1c-0.4-1-0.4-2.1-0.2-3.4v-0.1v-0.1c0.5-1.7,1.4-3,2.8-4c1.3-1,2.8-1.6,4.5-1.6c0.2,0,0.3,0,0.4,0c1.5,0,2.7,0.5,3.6,1.5
			c0.8,0.9,1.2,2.1,1.4,3.5l0.1,1.1l-4.9,1.9c1.2,0.8,2.4,1.8,2.9,3.2c0.4,1.1,0.4,2.4,0,3.7c-0.5,1.7-1.4,3-2.8,4.2
			C153,230.4,151.3,231,149.5,231z M149.5,225.5c0.1,0.1,0.2,0.2,0.5,0.2c0.4,0,0.7-0.1,0.9-0.4c0.4-0.4,0.8-0.8,0.9-1.3
			c0.1-0.3,0.1-0.4,0.1-0.5v-0.1l0,0c0,0-0.3-0.4-1.5-1.1c-0.2-0.1-0.4-0.2-0.6-0.3l-0.4,2.1C149.4,224.8,149.4,225.2,149.5,225.5z
			 M151.8,216.4c0.1,0.1,0.5,0.4,1.4,0.9l0.4-1.6c0.1-0.4,0.1-0.6,0-0.8c-0.1-0.1-0.2-0.1-0.2-0.1c-0.5,0-0.7,0.1-0.8,0.3l-0.1,0.1
			l-0.1,0.1c-0.3,0.2-0.5,0.6-0.6,1C151.8,216.3,151.8,216.3,151.8,216.4z"/>
		<path class="st1" d="M154.3,211.4c1.1,0,1.9,0.4,2.4,1c0.6,0.7,0.9,1.6,1,2.7l-2.6,1c0.2-0.8,0.1-1.5-0.2-2
			c-0.4-0.5-0.9-0.8-1.5-0.8c-0.8,0-1.4,0.2-1.9,0.7c-0.5,0.4-0.9,1-1.1,1.8c-0.1,0.5-0.1,0.9,0.1,1.3c0.2,0.4,0.9,0.9,2.3,1.7
			c1.7,1,2.7,1.9,3,2.9c0.3,0.8,0.3,1.8,0,2.8c-0.4,1.4-1.1,2.5-2.3,3.5s-2.5,1.5-4,1.5c-1.4,0-2.4-0.4-3.1-1.1
			c-0.7-0.8-1-2-0.8-3.6l2.4-0.9c-0.2,1.1-0.1,1.9,0.3,2.5c0.4,0.5,0.9,0.8,1.7,0.8s1.5-0.3,2-0.8c0.6-0.6,1.1-1.2,1.3-1.9
			s0.2-1.3,0-1.6c-0.2-0.5-0.9-1.1-2.1-1.8c-1.7-0.9-2.7-1.8-3.1-2.6c-0.3-0.8-0.3-1.6-0.1-2.6c0.4-1.3,1.1-2.4,2.2-3.2
			c1.1-0.9,2.3-1.3,3.7-1.3C154,211.4,154.2,211.4,154.3,211.4 M154.3,208.4c-0.2,0-0.3,0-0.5,0c-2,0-3.9,0.7-5.4,1.9
			c-1.5,1.1-2.6,2.7-3.2,4.7v0.1v0.1c-0.2,1-0.4,2.6,0.2,4.2l0.1,0.1l0.1,0.1c0.3,0.5,0.6,1,1,1.4l-1.9,0.7l-1.7,0.6l-0.2,1.8
			c-0.4,3,0.6,4.9,1.5,5.9l0.1,0.1l0.1,0.1c1.3,1.3,3.1,2,5.2,2c2.2,0,4.2-0.7,5.9-2.2c1.6-1.4,2.7-3,3.3-5c0.5-1.6,0.5-3.2,0-4.6
			c-0.3-0.9-0.8-1.6-1.4-2.3l1.5-0.6l2.1-0.8l-0.2-2.3c-0.2-1.8-0.7-3.2-1.7-4.4C158.2,209.5,156.7,208.4,154.3,208.4L154.3,208.4z"
			/>
	</g>
	<g>
		<path class="st2" d="M161,231c-1.7,0-3.1-0.5-4.2-1.5c-0.8-0.9-1.5-2.4-1.2-4.8l0.1-0.9l5.2-1.9c-1.3-0.8-2.2-1.7-2.6-2.6v-0.1
			v-0.1c-0.4-1-0.4-2.1-0.2-3.4v-0.1v-0.1c0.5-1.7,1.4-3,2.8-4c1.3-1,2.8-1.6,4.5-1.6c0.1,0,0.3,0,0.4,0c1.4,0,2.5,0.5,3.5,1.5
			l0.1,0.1c0.8,0.9,1.2,2.1,1.4,3.5l0.1,1.1L166,218c1.2,0.8,2.4,1.8,2.9,3.2c0.4,1.1,0.4,2.4,0,3.7c-0.5,1.7-1.4,3-2.8,4.2
			C164.5,230.4,162.8,231,161,231z M161,225.5c0.1,0.1,0.2,0.2,0.5,0.2c0.4,0,0.7-0.1,0.9-0.4c0.4-0.4,0.8-0.8,0.9-1.3
			c0.1-0.3,0.1-0.4,0.1-0.5v-0.1l0,0c0,0-0.3-0.4-1.5-1.1c-0.2-0.1-0.4-0.2-0.6-0.3l-0.4,2.1C160.9,224.8,160.9,225.2,161,225.5z
			 M163.3,216.4c0.1,0.1,0.5,0.4,1.4,0.9l0.4-1.6c0.1-0.4,0.1-0.6,0-0.8c-0.1-0.1-0.2-0.1-0.2-0.1c-0.5,0-0.7,0.1-0.8,0.3l-0.1,0.1
			l-0.1,0.1c-0.3,0.2-0.5,0.6-0.6,1C163.3,216.3,163.3,216.3,163.3,216.4z"/>
		<path class="st1" d="M165.8,211.4c1,0,1.8,0.4,2.4,1c0.6,0.7,0.9,1.6,1,2.7l-2.6,1c0.2-0.8,0.1-1.5-0.2-2
			c-0.4-0.5-0.9-0.8-1.5-0.8c-0.8,0-1.4,0.2-1.9,0.7c-0.5,0.4-0.9,1-1.1,1.8c-0.1,0.5-0.1,0.9,0.1,1.3c0.2,0.4,0.9,0.9,2.3,1.7
			c1.7,1,2.7,1.9,3,2.9c0.3,0.8,0.3,1.8,0,2.8c-0.4,1.4-1.1,2.5-2.3,3.5s-2.5,1.5-4,1.5c-1.4,0-2.4-0.4-3.1-1.1
			c-0.7-0.8-1-2-0.8-3.6l2.4-0.9c-0.2,1.1-0.1,1.9,0.3,2.5c0.4,0.5,0.9,0.8,1.7,0.8s1.5-0.3,2-0.8c0.6-0.6,1.1-1.2,1.3-1.9
			s0.2-1.3,0-1.6c-0.2-0.5-0.9-1.1-2.1-1.8c-1.7-0.9-2.7-1.8-3.1-2.6c-0.3-0.8-0.3-1.6-0.1-2.6c0.4-1.3,1.1-2.4,2.2-3.2
			c1.1-0.9,2.3-1.3,3.7-1.3C165.5,211.4,165.6,211.4,165.8,211.4 M165.8,208.4c-0.2,0-0.3,0-0.5,0c-2,0-3.9,0.7-5.4,1.9
			c-1.5,1.1-2.6,2.7-3.2,4.7v0.1v0.1c-0.2,1-0.4,2.6,0.2,4.2l0.1,0.1l0.1,0.1c0.3,0.5,0.6,1,1,1.4l-2.1,1l-1.7,0.6l-0.2,1.8
			c-0.4,3,0.6,4.9,1.5,5.9l0.1,0.1l0.1,0.1c1.3,1.3,3.1,2,5.2,2c2.2,0,4.2-0.7,5.9-2.2c1.6-1.4,2.7-3,3.3-5c0.5-1.6,0.5-3.2,0-4.6
			c-0.3-0.9-0.8-1.6-1.4-2.3l1.5-0.6l2.1-0.8l-0.2-2.3c-0.2-1.8-0.7-3.2-1.7-4.4l-0.1-0.1l-0.1-0.1
			C169.1,209,167.5,208.4,165.8,208.4L165.8,208.4z"/>
	</g>
	<g>
		<path class="st2" d="M184.2,231.1c-1.4,0-2.6-0.5-3.6-1.4c-1-1-1.3-2.3-1.5-3.5c-0.3-1.6-0.1-3.6,0.6-6.2c0.7-2.4,1.5-4.2,2.4-5.6
			c0.9-1.5,2-2.6,3.3-3.5c1.2-0.8,2.4-1.2,3.7-1.2c1.2,0,2.4,0.4,3.3,1.1l0.1,0.1c1,1,1.5,2.6,1.3,4.7l-0.1,0.9l-6,2.5l0.5-2.7
			c0.1-0.8,0.1-1.2,0.1-1.4c-0.3,0-0.7,0.2-1.3,0.9c-0.8,1-1.5,2.6-2.1,4.9c-0.7,2.3-0.7,3.9-0.5,4.7c0.1,0.4,0.2,0.4,0.4,0.4
			s0.4-0.1,0.5-0.4v-0.1l0,0c0.5-0.5,0.8-1.1,1.2-2l0.6-1.6l4.8,2.7l-0.7,1.3c-0.9,1.8-1.9,3-3,3.9
			C187.1,230.5,185.7,231.1,184.2,231.1z"/>
		<path class="st1" d="M189.1,211.2c0.9,0,1.7,0.3,2.3,0.8c0.7,0.7,1,1.9,0.9,3.6l-2.6,1.1c0.2-1.1,0.2-1.9,0-2.4s-0.6-0.8-1.3-0.8
			c-0.9,0-1.7,0.5-2.5,1.4c-1,1.2-1.8,3-2.4,5.5c-0.7,2.4-0.8,4.3-0.5,5.4c0.3,1,0.9,1.5,1.8,1.5c0.6,0,1.2-0.3,1.7-0.9
			c0.6-0.6,1.1-1.4,1.5-2.5l2,1.1c-0.8,1.5-1.6,2.6-2.6,3.4c-1,0.8-2.1,1.2-3.2,1.2c-1,0-1.8-0.3-2.5-1c-0.6-0.6-0.9-1.5-1.1-2.7
			c-0.3-1.4-0.1-3.2,0.6-5.5c0.6-2,1.3-3.8,2.2-5.2s1.9-2.4,2.9-3.1C187.2,211.5,188.1,211.2,189.1,211.2 M189.1,208.2
			c-1.6,0-3,0.5-4.5,1.4l0,0l0,0c-1.4,1-2.7,2.3-3.7,3.9c-1,1.5-1.8,3.4-2.5,6c-0.8,2.8-1.1,5-0.7,6.9c0.2,1.3,0.7,3,1.9,4.3
			c1.2,1.2,2.8,1.9,4.6,1.9s3.6-0.6,5.1-1.9c1.3-1,2.3-2.4,3.4-4.3l1.4-2.6l-2.6-1.4l-2-1.1l-1.2-0.7l2.7-1.1l2.6-1.1l1.7-0.7
			l0.1-1.9c0.2-2.6-0.4-4.6-1.8-5.9l-0.1-0.1l-0.1-0.1C192.2,208.7,190.7,208.2,189.1,208.2L189.1,208.2z"/>
	</g>
	<g>
		<path class="st2" d="M195.2,231c-1.4,0-2.5-0.4-3.5-1.1l-0.1-0.1c-1-1-1.5-2.3-1.5-3.8c-0.1-1.6,0.3-3.6,0.9-6
			c0.6-2.6,1.4-4.6,2.3-6c0.7-1.3,1.8-2.4,3-3.2c1-0.7,2.3-1,3.7-1c1,0,2.4,0.1,3.5,1.1c1,1,1.5,2.2,1.6,3.7s-0.2,3.5-0.8,6.1
			c-0.6,2.4-1.4,4.4-2.4,6c-0.6,1-1.6,2.5-3.2,3.3C197.7,230.6,196.5,231,195.2,231z M195.7,225.6c0.3,0,0.6-0.1,0.7-0.2
			c0.4-0.3,0.7-0.7,1-1.2c0.6-1.1,1.1-2.5,1.5-4.2c0.2-0.7,0.8-2.9,0.7-4.1v-0.1c0-0.3-0.1-0.5-0.1-0.7c0,0,0,0-0.1,0
			c-0.2,0-0.3,0-0.7,0.3c-0.3,0.2-0.5,0.6-0.9,1.2c-0.6,1.1-1.1,2.5-1.5,4.2c-0.6,2.4-0.8,3.6-0.8,4.2
			C195.5,225.2,195.6,225.4,195.7,225.6L195.7,225.6z"/>
		<path class="st1" d="M200,211.2c1.1,0,1.9,0.2,2.4,0.7c0.7,0.7,1.1,1.6,1.2,2.8c0.1,1.4-0.2,3.3-0.8,5.6c-0.6,2.4-1.4,4.3-2.2,5.6
			c-0.7,1.2-1.5,2.2-2.6,2.8c-0.8,0.5-1.7,0.8-2.8,0.8s-1.9-0.3-2.5-0.8c-0.7-0.7-1.1-1.6-1.1-2.8c-0.1-1.4,0.3-3.3,0.9-5.6
			c0.6-2.4,1.3-4.3,2.1-5.6c0.7-1.2,1.6-2.1,2.6-2.8C198,211.4,199,211.2,200,211.2 M195.7,227.1c0.6,0,1.2-0.2,1.6-0.5
			c0.6-0.4,1-1,1.4-1.7c0.6-1.1,1.2-2.6,1.7-4.6c0.5-1.9,0.8-3.5,0.7-4.6c0-0.7-0.2-1.3-0.5-1.7c-0.3-0.3-0.7-0.5-1.2-0.5
			c-0.6,0-1,0.2-1.5,0.5c-0.6,0.4-1,1-1.4,1.7c-0.6,1.1-1.2,2.6-1.7,4.6c-0.5,1.9-0.8,3.5-0.8,4.6c0,0.7,0.2,1.3,0.5,1.7
			S195.2,227.1,195.7,227.1 M200,208.2c-1.7,0-3.2,0.4-4.4,1.2h-0.1h-0.1c-1.4,1-2.6,2.3-3.5,3.7c-0.9,1.6-1.7,3.7-2.4,6.4
			c-0.7,2.6-1.1,4.6-1,6.4c0,1.9,0.7,3.5,2,4.8l0.1,0.1l0.1,0.1c1.2,1,2.7,1.5,4.4,1.5c1.6,0,3-0.4,4.3-1.2c1.9-1,3-2.7,3.7-3.8
			c1-1.7,1.9-3.9,2.5-6.4c0.7-2.8,1-4.8,0.9-6.5c-0.2-1.9-0.9-3.5-2.1-4.7C202.9,208.2,200.7,208.2,200,208.2L200,208.2z"/>
	</g>
	<g>
		<path class="st2" d="M207.7,230.9l-0.7-7.6l-2,7.6h-5.3l5.5-20.9h3.9v-0.1h1.5c2.1,0,3.5,0.5,4.7,1.6c0.9,0.9,1.7,2.4,0.9,5.1
			c-0.4,1.7-1.5,3.3-3,4.5c-0.3,0.3-0.6,0.5-1,0.6l1,9.1L207.7,230.9L207.7,230.9z M208.5,217.5c0.7,0,1.3-0.2,1.8-0.5
			c0.4-0.3,0.6-0.6,0.7-1.1c0.1-0.3,0.1-0.4,0.1-0.5l0,0c-0.1,0-0.3-0.1-0.9-0.1h-1L208.5,217.5z"/>
		<path class="st1" d="M210.6,211.4c1.7,0,2.8,0.4,3.6,1.2s1,2,0.5,3.6c-0.4,1.5-1.3,2.8-2.5,3.8c-0.5,0.4-1.1,0.7-1.6,0.9l0.9,8.5
			h-2.4l-0.7-8h-0.2H206l-2.1,8h-2.2l4.7-17.9h4.2L210.6,211.4 M206.5,219h1.8l0,0c1.1,0,2.1-0.3,2.8-0.8s1.1-1.1,1.3-2
			c0.2-0.8,0.1-1.4-0.3-1.8c-0.4-0.4-1.1-0.6-2-0.6h-2.2L206.5,219 M210.6,208.4h-3v0.1h-1.2h-2.3l-0.6,2.2l-4.7,17.9l-1,3.8h3.9
			h2.2h2.3l0.1-0.4v0.4h2.7h2.4h3.3l-0.4-3.3l-0.7-6.5c0.1-0.1,0.2-0.1,0.3-0.2l0,0l0,0c1.7-1.4,2.9-3.2,3.5-5.3
			c1.1-3.5-0.3-5.6-1.3-6.6C214.9,209,213.1,208.4,210.6,208.4L210.6,208.4z"/>
	</g>
	<g>
		<path class="st2" d="M211.3,230.9l5.5-20.9l5.2-0.1c2,0,3.7,0.6,4.9,1.7l0.1,0.1l0.1,0.1c0.8,0.9,1.7,2.5,1,5.1
			c-0.5,1.9-1.5,3.3-3.1,4.5c-1.6,1-3.4,1.6-5.5,1.6h-0.8l-2.1,8.1h-5.3V230.9z M219.9,217.4c1.1,0,1.5-0.2,1.7-0.4l0.1-0.1
			c0.4-0.3,0.6-0.6,0.7-1c0-0.2,0.1-0.4,0.1-0.4c-0.1-0.1-0.5-0.2-1.2-0.2h-0.9L219.9,217.4L219.9,217.4z"/>
		<path class="st1" d="M222,211.4c1.7,0,3,0.5,3.9,1.3c0.8,0.9,1.1,2.1,0.7,3.7c-0.4,1.6-1.2,2.7-2.5,3.6c-1.2,0.8-2.7,1.3-4.6,1.3
			h-2l-2.1,8.1h-2.2l4.7-17.9L222,211.4 M217.9,218.9h2c1.2,0,2.1-0.2,2.7-0.7c0.7-0.5,1.1-1.1,1.3-1.8c0.2-0.9,0.2-1.5-0.3-1.9
			c-0.5-0.5-1.3-0.7-2.3-0.7h-2.1L217.9,218.9 M222,208.4L222,208.4L222,208.4l-4.2,0.1l-2.3,0.1l-0.6,2.2l-4.7,17.9l-1,3.8h3.9h2.2
			h2.3l0.6-2.2l1.5-5.9c2.2-0.1,4.2-0.7,5.9-1.8l0,0l0,0c1.9-1.3,3.1-3.1,3.7-5.3c0.8-3.1-0.3-5.2-1.4-6.4l-0.1-0.1l-0.1-0.1
			C226.4,209.1,224.3,208.4,222,208.4L222,208.4z"/>
	</g>
	<g>
		<path class="st2" d="M229.5,231c-1.4,0-2.5-0.4-3.5-1.1l-0.1-0.1c-1-1-1.5-2.3-1.5-3.8c-0.1-1.6,0.3-3.6,0.9-6
			c0.7-2.6,1.4-4.6,2.3-6c0.7-1.3,1.8-2.4,3-3.2c1-0.7,2.3-1,3.7-1c1.5,0,2.7,0.4,3.5,1.1c1,1,1.5,2.2,1.6,3.7s-0.2,3.5-0.8,6.1
			c-0.6,2.4-1.4,4.4-2.4,6c-0.8,1.4-1.9,2.6-3.1,3.3C232,230.6,230.8,231,229.5,231z M230,225.6c0.2,0,0.5-0.1,0.8-0.3
			s0.5-0.6,0.9-1.2c0.6-1.1,1.1-2.5,1.5-4.2c0.5-2,0.7-3.3,0.7-4.1v-0.1c0-0.3-0.1-0.5-0.1-0.7c0,0,0,0-0.1,0c-0.2,0-0.3,0-0.7,0.3
			c-0.3,0.2-0.5,0.6-0.9,1.2c-0.6,1.1-1.1,2.5-1.5,4.2c-0.6,2.4-0.8,3.6-0.8,4.2C229.8,225.2,229.9,225.4,230,225.6L230,225.6z"/>
		<path class="st1" d="M234.3,211.2c1,0,1.9,0.2,2.4,0.7c0.7,0.7,1.1,1.6,1.2,2.8c0.1,1.4-0.2,3.3-0.8,5.6c-0.6,2.4-1.4,4.3-2.2,5.6
			c-0.7,1.2-1.6,2.2-2.6,2.8c-0.8,0.5-1.7,0.8-2.8,0.8s-1.9-0.3-2.5-0.8c-0.7-0.7-1.1-1.6-1.1-2.8c-0.1-1.4,0.3-3.3,0.9-5.6
			c0.6-2.4,1.3-4.3,2.1-5.6c0.7-1.2,1.6-2.1,2.6-2.8C232.3,211.4,233.3,211.2,234.3,211.2 M230,227.1c0.5,0,1.1-0.2,1.6-0.5
			c0.6-0.4,1-1,1.4-1.7c0.6-1.1,1.2-2.6,1.7-4.6c0.5-1.9,0.8-3.5,0.7-4.6c0-0.7-0.2-1.3-0.5-1.7c-0.3-0.3-0.7-0.5-1.2-0.5
			c-0.6,0-1,0.2-1.5,0.5c-0.6,0.4-1,1-1.4,1.7c-0.6,1.1-1.2,2.6-1.7,4.6c-0.5,1.9-0.8,3.5-0.8,4.6c0,0.7,0.2,1.3,0.5,1.7
			S229.5,227.1,230,227.1 M234.3,208.2c-1.7,0-3.2,0.4-4.4,1.2h-0.1h-0.1c-1.4,1-2.6,2.3-3.5,3.7c-0.9,1.6-1.7,3.7-2.4,6.4
			c-0.7,2.6-1.1,4.6-1,6.4c0,1.9,0.7,3.5,2,4.8l0.1,0.1l0.1,0.1c1.2,1,2.7,1.5,4.4,1.5c1.6,0,3-0.4,4.4-1.2s2.6-2.2,3.6-3.8
			c1-1.7,1.9-3.9,2.5-6.4c0.7-2.8,1-4.8,0.9-6.5c-0.2-1.9-0.9-3.5-2.1-4.7C237.8,208.7,236.3,208.2,234.3,208.2L234.3,208.2z"/>
	</g>
	<g>
		<path class="st2" d="M242,230.9l-0.7-7.6l-2,7.6H234l5.5-20.9l5.3-0.1c2.1,0,3.6,0.5,4.7,1.6c0.9,0.9,1.7,2.4,0.9,5.1
			c-0.4,1.7-1.5,3.3-3,4.5c-0.3,0.3-0.6,0.5-1,0.6l1,9.1L242,230.9L242,230.9z M242.8,217.5c0.7,0,1.3-0.2,1.8-0.5
			c0.4-0.3,0.6-0.6,0.7-1.1c0.1-0.3,0.1-0.4,0.1-0.5l0,0c0,0-0.3-0.1-0.9-0.1h-1.1L242.8,217.5z"/>
		<path class="st1" d="M244.9,211.4c1.7,0,2.8,0.4,3.6,1.2s1,2,0.5,3.6c-0.4,1.5-1.3,2.8-2.5,3.8c-0.5,0.4-1.1,0.7-1.6,0.9l0.9,8.5
			h-2.4l-0.7-8h-0.2h-2.2l-2.1,8H236l4.7-17.9L244.9,211.4 M240.8,219h1.8l0,0c1.1,0,2.1-0.3,2.8-0.8s1.1-1.1,1.3-2
			c0.2-0.8,0.1-1.4-0.3-1.8c-0.4-0.4-1.1-0.6-2-0.6h-2.2L240.8,219 M244.9,208.4L244.9,208.4L244.9,208.4l-4.3,0.1l-2.3,0.1
			l-0.6,2.2l-4.7,17.9l-1,3.8h3.9h2.2h2.3l0.1-0.4v0.4h2.7h2.4h3.3l-0.4-3.3l-0.7-6.5c0.1-0.1,0.2-0.1,0.3-0.2l0,0l0,0
			c1.7-1.4,2.9-3.2,3.5-5.3c1.1-3.5-0.3-5.6-1.3-6.6C249.2,209,247.4,208.4,244.9,208.4L244.9,208.4z"/>
	</g>
	<g>
		<polygon class="st2" points="253.6,230.8 253.8,225.8 252.7,225.8 250.3,230.8 244.8,230.8 255.1,209.9 259.7,209.9 258.8,230.8 
					"/>
		<path class="st1" d="M258.1,211.4l-0.7,17.9h-2.2l0.2-5h-3.6l-2.4,5h-2.2l8.8-17.9H258.1 M255.8,216.5l-2.7,5.5h2.5L255.8,216.5
			 M261.2,208.4h-3.1H256h-1.9l-0.8,1.7l-8.8,17.9l-2.1,4.3h4.8h2.2h1.9l0.8-1.7v-0.1l-0.1,1.8h3.1h2.2h2.9l0.1-2.9l0.7-17.9
			L261.2,208.4L261.2,208.4z"/>
	</g>
	<g>
		<polygon class="st2" points="260.9,230.8 265,215.3 260.9,215.3 262.2,209.9 275.5,209.9 274.2,215.3 270.3,215.3 266.2,230.8 		
			"/>
		<path class="st1" d="M273.6,211.4l-0.6,2.4h-3.9l-4.1,15.5h-2.2l4.1-15.5h-4.1l0.6-2.4H273.6 M277.4,208.4h-3.8h-10.2h-2.3
			l-0.6,2.3l-0.6,2.4l-0.9,3.7h3.8h0.2l-3.1,11.7l-1,3.8h3.9h2.2h2.3l0.6-2.2l3.5-13.3h1.6h2.3l0.6-2.3l0.6-2.4L277.4,208.4
			L277.4,208.4z"/>
	</g>
	<g>
		<polygon class="st2" points="272.3,230.8 277.7,209.9 283,209.9 277.6,230.8 		"/>
		<path class="st1" d="M281.1,211.4l-4.7,17.9h-2.2l4.7-17.9H281.1 M285,208.4h-3.9h-2.2h-2.3l-0.6,2.2l-4.7,17.9l-1,3.8h3.9h2.2
			h2.3l0.6-2.2l4.7-17.9L285,208.4L285,208.4z"/>
	</g>
	<g>
		<path class="st2" d="M286.6,231c-1.4,0-2.5-0.4-3.5-1.1l-0.1-0.1c-1-1-1.5-2.3-1.5-3.8c-0.1-1.6,0.3-3.6,0.9-6
			c0.6-2.6,1.4-4.6,2.3-6c0.7-1.3,1.8-2.4,3-3.2c1-0.7,2.3-1,3.7-1c1,0,2.4,0.1,3.5,1.1c1,1,1.5,2.2,1.6,3.7s-0.2,3.5-0.8,6.1
			c-0.6,2.4-1.4,4.4-2.4,6c-0.8,1.4-1.9,2.6-3.1,3.3C289.1,230.6,287.9,231,286.6,231z M287.1,225.6c0.2,0,0.6-0.1,0.7-0.2
			c0.4-0.3,0.7-0.7,1-1.2c0.6-1.1,1.1-2.5,1.5-4.2c0.5-2,0.7-3.3,0.7-4.1v-0.1c0-0.3-0.1-0.5-0.1-0.7c0,0,0,0-0.1,0
			c-0.2,0-0.3,0-0.7,0.3c-0.3,0.2-0.5,0.6-0.9,1.2c-0.6,1.1-1.1,2.5-1.5,4.2c-0.6,2.4-0.8,3.6-0.8,4.2
			C286.9,225.2,287,225.4,287.1,225.6L287.1,225.6z"/>
		<path class="st1" d="M291.4,211.2c1.1,0,1.9,0.2,2.4,0.7c0.7,0.7,1.1,1.6,1.2,2.8c0.1,1.4-0.2,3.3-0.8,5.6
			c-0.6,2.4-1.4,4.3-2.2,5.6c-0.7,1.2-1.6,2.2-2.6,2.8c-0.8,0.5-1.7,0.8-2.8,0.8s-1.9-0.3-2.5-0.8c-0.7-0.7-1.1-1.6-1.1-2.8
			c-0.1-1.4,0.3-3.3,0.9-5.6c0.6-2.4,1.3-4.3,2.1-5.6c0.7-1.2,1.6-2.1,2.6-2.8C289.4,211.4,290.4,211.2,291.4,211.2 M287.1,227.1
			c0.5,0,1.2-0.2,1.6-0.5c0.6-0.4,1-1,1.4-1.7c0.6-1.1,1.2-2.6,1.7-4.6c0.5-1.9,0.8-3.5,0.7-4.6c0-0.7-0.2-1.3-0.5-1.7
			c-0.3-0.3-0.7-0.5-1.2-0.5c-0.6,0-1,0.2-1.5,0.5c-0.6,0.4-1,1-1.4,1.7c-0.6,1.1-1.2,2.6-1.7,4.6c-0.5,1.9-0.8,3.5-0.8,4.6
			c0,0.7,0.2,1.3,0.5,1.7S286.6,227.1,287.1,227.1 M291.4,208.2c-1.7,0-3.2,0.4-4.4,1.2h-0.1h-0.1c-1.4,1-2.6,2.3-3.5,3.7
			c-0.9,1.6-1.7,3.7-2.4,6.4c-0.7,2.6-1.1,4.6-1,6.4c0,1.9,0.7,3.5,2,4.8l0.1,0.1l0.1,0.1c1.2,1,2.7,1.5,4.4,1.5
			c1.6,0,3-0.4,4.4-1.2s2.6-2.2,3.6-3.8c1-1.7,1.9-3.9,2.5-6.4c0.7-2.8,1-4.8,0.9-6.5c-0.2-1.9-0.9-3.5-2.1-4.7
			C294.3,208.2,292.1,208.2,291.4,208.2L291.4,208.2z"/>
	</g>
	<g>
		<polygon class="st2" points="298.4,230.8 298.1,225.1 296.7,230.8 291.4,230.8 296.8,209.9 302.4,209.9 302.7,215.5 304.1,209.9 
			309.4,209.9 304,230.8 		"/>
		<path class="st1" d="M307.5,211.4l-4.7,17.9h-3l-0.6-14.2l-3.7,14.2h-2.2l4.7-17.9h3l0.6,14.2l3.7-14.2H307.5 M311.4,208.4h-3.9
			h-2.2h-1.4H301h-3h-2.3l-0.6,2.2l-4.7,17.9l-1,3.8h3.9h2.2h2.3h2h3h2.3l0.6-2.2l4.7-17.9L311.4,208.4L311.4,208.4z"/>
	</g>
	<g>
		<polygon class="st2" points="78.5,258.5 83.9,237.6 96.6,237.4 95.3,242.9 87.8,242.9 87.2,245 93.6,245 92.3,250.4 85.9,250.4 
			83.8,258.5 		"/>
		<path class="st1" d="M94.7,239l-0.6,2.4h-7.5l-1.3,5.1h6.4l-0.6,2.4h-6.4l-2.1,8.1h-2.2l4.7-17.9L94.7,239 M98.6,235.9h-3.9
			l-9.6,0.1h-2.3l-0.6,2.2l-4.7,17.9l-1,3.8h3.9h2.2h2.3l0.6-2.2l1.5-5.9h4.1h2.3l0.6-2.3l0.6-2.4l0.7-2.8h1.1L97,242l0.6-2.4
			L98.6,235.9L98.6,235.9z"/>
	</g>
	<g>
		<path class="st2" d="M96.6,258.8c-1.5,0-2.8-0.4-3.7-1.1c-0.5-0.4-1.2-1.1-1.4-2.4c-0.2-1.1-0.1-2.4,0.3-4.2l3.5-13.5h2.1
			l2.7-10.3v10.3h0.4l-0.4,1.6v1.3h-0.3l-2.9,11.2c-0.2,0.9-0.2,1.3-0.1,1.6c0,0,0.2,0.1,0.4,0.1c0.4,0,0.7-0.1,1.1-0.4
			c0.3-0.3,0.7-0.9,1-2l3.5-13.3h5.3l-3.7,14.3c-0.4,1.5-0.9,2.7-1.7,3.9l-0.1,0.1c-0.6,0.8-1.2,1.4-2.2,1.9
			C99.1,258.4,97.9,258.8,96.6,258.8z"/>
		<path class="st1" d="M98.6,239L98.6,239L98.6,239L98.6,239 M106,239.1l-3.2,12.4c-0.4,1.4-0.9,2.5-1.5,3.5c-0.5,0.7-1,1.1-1.7,1.5
			c-0.9,0.5-1.9,0.8-3,0.8c-1.2,0-2.1-0.3-2.7-0.8c-0.5-0.4-0.8-0.8-0.9-1.5c-0.2-0.9-0.1-2,0.3-3.5l3.2-12.4h2.1l-3.2,12.2
			c-0.3,1.3-0.3,2.1,0,2.7c0.3,0.5,0.9,0.8,1.7,0.8c0.9,0,1.5-0.3,2.1-0.8c0.6-0.6,1.1-1.5,1.4-2.7l3.2-12.2H106 M101.6,215.5
			L96.3,236h-2.1l-0.6,2.3l-3.2,12.4c-0.5,1.9-0.6,3.4-0.3,4.8c0.3,1.8,1.2,2.7,2,3.3c1.2,1,2.8,1.5,4.6,1.5c1.6,0,3.1-0.4,4.5-1.2
			c1.2-0.7,2-1.4,2.7-2.4l0.1-0.1l0.1-0.1c0.8-1.3,1.4-2.7,1.8-4.2l0,0l0,0l3.2-12.4l1-3.7H106h-2.2h-1.3h-0.9V215.5L101.6,215.5z"
			/>
	</g>
	<g>
		<polygon class="st2" points="101.3,258.4 106.7,237.5 112,237.5 107.9,253 115.4,253 114.1,258.4 		"/>
		<path class="st1" d="M110.1,239l-4.1,15.5h7.5l-0.6,2.4h-9.7l4.7-17.9H110.1 M114,236h-3.9h-2.2h-2.3l-0.6,2.2l-4.7,17.9l-1,3.8
			h3.9h9.7h2.3l0.6-2.3l0.6-2.4l0.9-3.7h-3.8h-3.6l3.1-11.7L114,236L114,236z"/>
	</g>
	<g>
		<polygon class="st2" points="112.6,258.4 118,237.5 123.4,237.5 119.3,253 126.8,253 125.5,258.4 		"/>
		<path class="st1" d="M121.5,239l-4.1,15.5h7.5l-0.6,2.4h-9.8l4.7-17.9H121.5 M125.4,236h-3.9h-2.3h-2.3l-0.6,2.2l-4.7,17.9l-1,3.8
			h3.9h9.8h2.3l0.6-2.3l0.6-2.4l0.9-3.7h-3.8h-3.6l3.1-11.7L125.4,236L125.4,236z"/>
	</g>
	<g>
		<polygon class="st2" points="124.1,258.4 129.5,237.5 142.3,237.5 141,242.9 133.4,242.9 132.9,245.1 139,245.1 137.7,250.5 
			131.4,250.5 130.8,253 138.2,253 136.9,258.4 		"/>
		<path class="st1" d="M140.4,239l-0.6,2.4h-7.5l-1.4,5.2h6.2l-0.6,2.4h-6.2l-1.5,5.5h7.5l-0.6,2.4H126l4.7-17.9H140.4 M144.2,236
			h-3.8h-9.7h-2.3l-0.6,2.2l-4.7,17.9l-1,3.8h3.9h9.7h2.3l0.6-2.3l0.6-2.4l0.9-3.7H139l0.4-1.8l0.6-2.4l0.7-2.9h1.4l0.6-2.3l0.6-2.4
			L144.2,236L144.2,236z"/>
	</g>
	<g>
		<path class="st2" d="M143.4,258.5l-0.7-7.6l-2,7.6h-5.3l5.5-20.9h3.9l1.5-0.1c2.1,0,3.5,0.5,4.7,1.6c0.9,0.9,1.7,2.4,0.9,5.1
			c-0.4,1.7-1.5,3.3-3,4.5c-0.3,0.3-0.6,0.5-1,0.6l1,9.1L143.4,258.5L143.4,258.5z M144.2,245.1c0.7,0,1.3-0.2,1.8-0.5
			c0.4-0.3,0.6-0.6,0.7-1.1c0.1-0.3,0.1-0.4,0.1-0.5l0,0c-0.1,0-0.3-0.1-0.9-0.1h-1.1L144.2,245.1z"/>
		<path class="st1" d="M146.3,239c1.7,0,2.8,0.4,3.6,1.2s1,2,0.5,3.6c-0.4,1.5-1.3,2.8-2.5,3.8c-0.5,0.4-1.1,0.7-1.6,0.9l0.9,8.5
			h-2.4l-0.7-8h-0.2h-2.2l-2.1,8h-2.2l4.7-17.9h4.2V239 M142.2,246.6h1.8l0,0c1.1,0,2.1-0.3,2.8-0.8s1.1-1.1,1.3-2
			c0.2-0.8,0.1-1.4-0.3-1.8c-0.4-0.4-1.1-0.6-2-0.6h-2.2L142.2,246.6 M146.3,236h-3v0.1h-1.2h-2.3l-0.6,2.2l-4.7,17.9l-1,3.8h3.9
			h2.2h2.3l0.1-0.4v0.4h2.7h2.4h3.3l-0.4-3.3l-0.7-6.5c0.1-0.1,0.2-0.1,0.3-0.2l0,0l0,0c1.7-1.4,2.9-3.2,3.5-5.3
			c1.1-3.5-0.3-5.6-1.3-6.6C150.6,236.6,148.8,236,146.3,236L146.3,236z"/>
	</g>
	<g>
		<polygon class="st2" points="162.2,258.4 166.3,242.9 162.2,242.9 163.5,237.5 176.8,237.5 175.5,242.9 171.6,242.9 167.5,258.4 
					"/>
		<path class="st1" d="M174.9,239l-0.6,2.4h-3.9l-4.1,15.5h-2.2l4.1-15.5h-4.1l0.6-2.4H174.9 M178.7,236h-3.8h-10.2h-2.3l-0.6,2.3
			l-0.6,2.4l-0.9,3.7h3.8h0.2l-3.1,11.7l-1,3.8h3.9h2.2h2.3l0.6-2.2l3.5-13.3h1.6h2.3l0.6-2.3l0.6-2.4L178.7,236L178.7,236z"/>
	</g>
	<g>
		<path class="st2" d="M176.6,258.6c-1.4,0-2.5-0.4-3.5-1.1l-0.1-0.1c-1-1-1.5-2.3-1.5-3.8c-0.1-1.6,0.3-3.6,0.9-6
			c0.6-2.6,1.4-4.6,2.3-6c0.7-1.3,1.8-2.4,3-3.2c1-0.7,2.3-1,3.7-1c1.2,0,2.3,0.3,3.2,1l0.1,0.1l0.1,0.1c1,1,1.5,2.2,1.6,3.7
			s-0.2,3.5-0.8,6.1c-0.6,2.4-1.4,4.4-2.4,6c-0.8,1.4-1.9,2.6-3.1,3.3C179.1,258.2,177.9,258.6,176.6,258.6z M177.1,253.2h0.1h0.1
			c0.1,0,0.1,0,0.2-0.1l0.1-0.1l0.1-0.1c0.3-0.2,0.6-0.6,0.9-1.2c0.6-1.1,1.1-2.5,1.5-4.2c0.5-2,0.7-3.3,0.7-4.1v-0.1
			c0-0.3-0.1-0.5-0.1-0.7c0,0,0,0-0.1,0s-0.3,0-0.7,0.3c-0.3,0.2-0.5,0.6-0.9,1.2c-0.6,1.1-1.1,2.5-1.5,4.2
			c-0.6,2.4-0.8,3.6-0.8,4.2c0,0.3,0.1,0.5,0.1,0.7C177,253.2,177.1,253.2,177.1,253.2z"/>
		<path class="st1" d="M181.4,238.8c1,0,1.8,0.3,2.4,0.7c0.7,0.7,1.1,1.6,1.2,2.8c0.1,1.4-0.2,3.3-0.8,5.6c-0.6,2.4-1.4,4.3-2.2,5.6
			c-0.7,1.2-1.6,2.2-2.6,2.8c-0.8,0.5-1.7,0.8-2.8,0.8s-1.9-0.3-2.5-0.8c-0.7-0.7-1.1-1.6-1.1-2.8c-0.1-1.4,0.3-3.3,0.9-5.6
			c0.6-2.4,1.3-4.3,2.1-5.6c0.7-1.2,1.6-2.1,2.6-2.8C179.4,239,180.4,238.8,181.4,238.8 M177.3,254.7c0.5,0,0.9-0.2,1.3-0.5
			c0.6-0.4,1-1,1.4-1.7c0.6-1.1,1.2-2.6,1.7-4.6c0.5-1.9,0.8-3.5,0.7-4.6c0-0.7-0.2-1.3-0.5-1.7c-0.3-0.3-0.7-0.5-1.2-0.5
			s-1,0.2-1.5,0.5c-0.6,0.4-1,1-1.4,1.7c-0.6,1.1-1.2,2.6-1.7,4.6c-0.5,1.9-0.8,3.5-0.8,4.6c0,0.7,0.2,1.3,0.5,1.7s0.7,0.5,1.2,0.5
			C177.1,254.7,177.2,254.7,177.3,254.7 M181.4,235.8c-1.7,0-3.2,0.4-4.4,1.2h-0.1h-0.1c-1.4,1-2.6,2.3-3.5,3.7
			c-0.9,1.6-1.7,3.7-2.4,6.4c-0.7,2.6-1.1,4.6-1,6.4c0,1.9,0.7,3.5,2,4.8l0.1,0.1l0.1,0.1c1.2,1,2.7,1.5,4.4,1.5
			c1.6,0,3-0.4,4.4-1.2c1.4-0.8,2.6-2.2,3.6-3.8c1-1.7,1.9-3.9,2.5-6.4c0.7-2.8,1-4.8,0.9-6.5c-0.2-1.9-0.9-3.5-2.1-4.7l-0.2-0.2
			l-0.2-0.2C184.3,236.2,182.9,235.8,181.4,235.8L181.4,235.8z"/>
	</g>
	<g>
		<path class="st2" d="M188,258.7c-1.5,0-2.8-0.4-3.7-1.1c-0.5-0.4-1.2-1.1-1.4-2.4c-0.2-1.1-0.1-2.4,0.3-4.2l3.5-13.5h5.2
			l-3.7,14.1c-0.2,0.9-0.2,1.4-0.1,1.6c0,0,0.2,0.1,0.4,0.1c0.4,0,0.7-0.1,1.1-0.4c0.3-0.3,0.7-0.9,1-2l3.5-13.3h5.3l-3.7,14.3
			c-0.4,1.5-0.9,2.7-1.7,3.9l-0.1,0.1c-0.6,0.8-1.2,1.4-2.2,1.9C190.5,258.3,189.3,258.7,188,258.7z"/>
		<path class="st1" d="M197.4,239l-3.2,12.4c-0.4,1.4-0.9,2.5-1.5,3.5c-0.5,0.7-1,1.1-1.7,1.5c-0.9,0.5-1.9,0.8-3,0.8
			c-1.2,0-2.1-0.3-2.7-0.8c-0.5-0.4-0.8-0.8-0.9-1.5c-0.2-0.9-0.1-2,0.3-3.5l3.2-12.4h2.1l-3.2,12.2c-0.3,1.3-0.3,2.1,0,2.7
			c0.3,0.5,0.9,0.8,1.7,0.8c0.9,0,1.5-0.3,2.1-0.8c0.6-0.6,1.1-1.5,1.4-2.7l3.2-12.2H197.4 M201.3,236h-3.9h-2.2h-1.3H190h-2.1h-2.3
			l-0.6,2.3l-3.2,12.4c-0.5,1.9-0.6,3.4-0.3,4.8c0.3,1.8,1.2,2.7,2,3.3c1.2,1,2.8,1.5,4.6,1.5c1.6,0,3.1-0.4,4.5-1.2
			c1.2-0.7,2-1.4,2.7-2.4l0.1-0.1l0.1-0.1c0.8-1.3,1.4-2.7,1.8-4.2l0,0l0,0l3.2-12.4L201.3,236L201.3,236z"/>
	</g>
	<g>
		<path class="st2" d="M200.5,258.5l-0.7-7.6l-2,7.6h-5.3l5.5-20.9h3.9l1.5-0.1c2.1,0,3.5,0.5,4.7,1.6c0.9,0.9,1.7,2.4,0.9,5.1
			c-0.4,1.7-1.5,3.3-3,4.5c-0.3,0.3-0.6,0.5-1,0.6l1,9.1L200.5,258.5L200.5,258.5z M201.3,245.1c0.7,0,1.3-0.2,1.8-0.5
			c0.4-0.3,0.6-0.6,0.7-1.1c0.1-0.3,0.1-0.4,0.1-0.5l0,0c0,0-0.3-0.1-0.9-0.1h-1.1L201.3,245.1z"/>
		<path class="st1" d="M203.4,239c1.7,0,2.8,0.4,3.6,1.2s1,2,0.5,3.6c-0.4,1.5-1.3,2.8-2.5,3.8c-0.5,0.4-1.1,0.7-1.6,0.9l0.9,8.5
			h-2.4l-0.7-8H201h-2.2l-2.1,8h-2.2l4.7-17.9h4.2V239 M199.3,246.6h1.8l0,0c1.1,0,2.1-0.3,2.8-0.8s1.1-1.1,1.3-2
			c0.2-0.8,0.1-1.4-0.3-1.8c-0.4-0.4-1.1-0.6-2-0.6h-2.2L199.3,246.6 M203.4,236h-3v0.1h-1.2h-2.3l-0.6,2.2l-4.7,17.9l-1,3.8h3.9
			h2.2h2.3l0.1-0.4v0.4h2.7h2.4h3.3l-0.4-3.3l-0.7-6.5c0.1-0.1,0.2-0.1,0.3-0.2l0,0l0,0c1.7-1.4,2.9-3.2,3.5-5.3
			c1.1-3.5-0.3-5.6-1.3-6.6C207.7,236.6,205.9,236,203.4,236L203.4,236z"/>
	</g>
	<g>
		<path class="st2" d="M210.9,258.6c-1.7,0-3.1-0.5-4.2-1.5c-0.8-0.9-1.5-2.4-1.2-4.8l0.1-0.9l5.2-1.9c-1.3-0.8-2.2-1.7-2.6-2.6
			v-0.1v-0.1c-0.4-1-0.4-2.1-0.2-3.4v-0.1v-0.1c0.5-1.7,1.4-3,2.8-4c1.3-1,2.8-1.6,4.5-1.6c0.1,0,0.3,0,0.4,0c1.4,0,2.5,0.5,3.5,1.5
			l0.1,0.1c0.8,0.9,1.2,2.1,1.4,3.5l0.1,1.1l-4.9,1.9c1.2,0.8,2.4,1.8,2.9,3.2c0.4,1.1,0.4,2.4,0,3.7c-0.5,1.7-1.4,3-2.8,4.2
			C214.4,258,212.7,258.6,210.9,258.6z M210.9,253.1c0.1,0.1,0.2,0.2,0.5,0.2c0.4,0,0.7-0.1,0.9-0.4c0.4-0.4,0.8-0.8,0.9-1.3
			c0.1-0.3,0.1-0.4,0.1-0.5V251l0,0c0,0-0.3-0.4-1.5-1.1c-0.2-0.1-0.4-0.2-0.6-0.3l-0.4,2.1C210.8,252.4,210.8,252.8,210.9,253.1z
			 M213.2,244c0.1,0.1,0.5,0.4,1.4,0.9l0.4-1.6c0.1-0.4,0.1-0.6,0-0.8c-0.1-0.1-0.2-0.1-0.2-0.1c-0.5,0-0.7,0.1-0.8,0.3l-0.1,0.1
			l-0.1,0.1c-0.3,0.2-0.5,0.6-0.6,1C213.2,243.8,213.2,243.9,213.2,244z"/>
		<path class="st1" d="M215.7,239c1,0,1.8,0.4,2.4,1c0.6,0.7,0.9,1.6,1,2.7l-2.6,1c0.2-0.8,0.1-1.5-0.2-2c-0.4-0.5-0.9-0.8-1.5-0.8
			c-0.8,0-1.4,0.2-1.9,0.7c-0.5,0.4-0.9,1-1.1,1.8c-0.1,0.5-0.1,0.9,0.1,1.3s0.9,0.9,2.3,1.7c1.7,1,2.7,1.9,3,2.9
			c0.3,0.8,0.3,1.8,0,2.8c-0.4,1.4-1.1,2.5-2.3,3.5c-1.2,1-2.5,1.5-4,1.5c-1.4,0-2.4-0.4-3.1-1.1c-0.7-0.8-1-2-0.8-3.6l2.4-0.9
			c-0.2,1.1-0.1,1.9,0.3,2.5c0.4,0.5,0.9,0.8,1.7,0.8s1.5-0.3,2-0.8c0.6-0.6,1.1-1.2,1.3-1.9s0.2-1.3,0-1.6
			c-0.2-0.5-0.9-1.1-2.1-1.8c-1.7-0.9-2.7-1.8-3.1-2.6c-0.3-0.8-0.3-1.6-0.1-2.6c0.4-1.3,1.1-2.4,2.2-3.2c1.1-0.9,2.3-1.3,3.7-1.3
			C215.4,239,215.5,239,215.7,239 M215.7,236c-0.2,0-0.3,0-0.5,0c-2,0-3.9,0.7-5.4,1.9c-1.5,1.1-2.6,2.7-3.2,4.7v0.1v0.1
			c-0.2,1-0.4,2.6,0.2,4.2l0.1,0.1l0.1,0.1c0.3,0.5,0.6,1,1,1.4l-1.9,0.7l-1.7,0.6L204,252c-0.4,3,0.6,4.9,1.5,5.9l0.1,0.1l0.1,0.1
			c1.3,1.3,3.1,2,5.2,2c2.2,0,4.2-0.7,5.9-2.2c1.6-1.4,2.7-3,3.3-5c0.5-1.6,0.5-3.2,0-4.6c-0.3-0.9-0.8-1.6-1.4-2.3l1.5-0.6l2.1-0.8
			l-0.2-2.3c-0.2-1.8-0.7-3.2-1.7-4.4l-0.1-0.1l-0.1-0.1C219,236.6,217.4,236,215.7,236L215.7,236z"/>
	</g>
</g>
<path class="st3" d="M84.6,119.7L126.9,26c2.9-6.4,10.3-11.5,16.8-11.5h54.6l2.8-6.3c1-2.5,3.9-4.5,6.6-4.5H239l-42.3,93.6
	c-2.9,6.4-10.3,11.5-16.8,11.5h-54.6l-2.8,6.3c-1,2.5-3.9,4.5-6.6,4.5L84.6,119.7L84.6,119.7z M160.7,90.6c0.5,0,1.6-0.7,2-1.6
	l8-17.8H145c-0.5,0-1.6,0.7-2,1.6l-8,17.8C135,90.6,160.7,90.6,160.7,90.6z M178.5,52.3c0.5,0,1.6-0.7,2.1-1.6l8.1-17.8h-25.8
	c-0.5,0-1.6,0.7-2,1.6l-8,17.8H178.5z"/>
<path class="st1" d="M235.1,6.3l-40.7,90.1c-2.5,5.5-9,10-14.5,10h-56.2l-3.5,7.8c-0.7,1.7-2.7,3-4.3,3H88.5l40.7-90.1
	c2.5-5.5,9-10,14.5-10h56.2l3.5-7.8c0.7-1.7,2.7-3,4.3-3L235.1,6.3 M148.9,54.8h29.6c1.6,0,3.5-1.4,4.3-3l9.7-21.4h-29.7
	c-1.6,0-3.5,1.4-4.3,3L148.9,54.8 M131.1,93.1h29.6c1.6,0,3.5-1.4,4.3-3l9.6-21.4H145c-1.6,0-3.5,1.4-4.3,3L131.1,93.1 M242.8,1.3
	h-7.7h-27.4c-3.7,0-7.4,2.5-8.9,6l-2.1,4.8h-53c-7.4,0-15.8,5.7-19.1,12.9l-40.7,90.1l-3.2,7.1h7.7h27.4c3.7,0,7.4-2.5,8.9-6
	l2.1-4.8h53c7.4,0,15.8-5.7,19.1-12.9l40.7-90.1L242.8,1.3L242.8,1.3z M163.2,35.4h21.5l-6.4,14.2c0,0.1-0.1,0.2-0.2,0.2h-21.5
	l6.4-14.2C163,35.5,163.1,35.4,163.2,35.4L163.2,35.4z M145.4,73.7h21.5l-6.4,14.2c0,0.1-0.1,0.1-0.2,0.2h-21.5l6.4-14.2
	C145.2,73.8,145.3,73.7,145.4,73.7L145.4,73.7z"/>
</svg>
