<svg id="pata" data-name="pata" xmlns="http://www.w3.org/2000/svg" viewBox="0 0 281.9 169.39">
  <title>pata_logo</title><polygon points="103.75 0.35 99.25 0.35 94.75 0.35 50.24 103.35 64.75 103.35 99.25 20.35 133.75 103.35 148.25 103.35 103.75 0.35"/><polygon points="235.75 0.35 231.25 0.35 226.75 0.35 182.25 103.35 196.75 103.35 231.25 20.35 265.75 103.35 280.25 103.35 235.75 0.35"/><path d="M69.92,36.48c0-30-28.11-36-68.75-36V103.35h13.5V74.15C46.67,72.4,69.92,63.11,69.92,36.48ZM14.67,62.18V12.77c23.41.43,40.75,4.78,40.75,23.72S38.08,61.55,14.67,62.18Z" transform="translate(-0.92)"/><rect x="0.24" y="113.19" height="1.33" style="fill:#fff"/><rect x="0.24" y="113.85" width="280" height="3.33" style="fill:#01a3e1"/><path
    d="M270.75,11.81V2.72h4a5.35,5.35,0,0,1,1.85.25,2,2,0,0,1,1,.86A2.59,2.59,0,0,1,278,5.2a2.28,2.28,0,0,1-.63,1.63,3.16,3.16,0,0,1-1.93.84,3.11,3.11,0,0,1,.73.45,6.28,6.28,0,0,1,1,1.21l1.58,2.47h-1.51L276,9.92q-.53-.82-.87-1.25a2.73,2.73,0,0,0-.61-.61,1.84,1.84,0,0,0-.55-.24,3.67,3.67,0,0,0-.67,0H272v4ZM272,6.73h2.58a3.86,3.86,0,0,0,1.29-.17,1.36,1.36,0,0,0,.71-.55,1.47,1.47,0,0,0,.24-.82,1.36,1.36,0,0,0-.47-1.06,2.19,2.19,0,0,0-1.48-.42H272Z"
    transform="translate(-0.92)"/><path d="M274.06,14.53a7.26,7.26,0,1,1,7.26-7.26,7.27,7.27,0,0,1-7.26,7.26Zm0-13.6a6.34,6.34,0,1,0,6.33,6.34A6.34,6.34,0,0,0,274.06.93Z" transform="translate(-0.92)"/><rect x="158.24" y="0.35" width="14.5" height="103"/><polygon points="208.75 14.35 120.25 14.35 126.25 0.35 214.75 0.35 208.75 14.35"/><path d="M249,60.75C195,41.39,112.09,49,60.11,82.66L71.92,88.3c49.18-33,120.57-41,177.46-26.52Z" transform="translate(-0.92)" style="fill:#01a3e1"/><path d="M3.78,136.5v5.75H2V127H6.18A5.52,5.52,0,0,1,10,128.22a4.24,4.24,0,0,1,1.34,3.35,4.61,4.61,0,0,1-1.49,3.54,5.7,5.7,0,0,1-4,1.38Zm0-7.85v6.24H5.64A4.17,4.17,0,0,0,8.46,134a3,3,0,0,0,1-2.38q0-3-3.56-3Z" transform="translate(-0.92)"/><path
    d="M21.71,142.25H20v-1.7h0a3.64,3.64,0,0,1-3.34,2,3.58,3.58,0,0,1-2.54-.86,3,3,0,0,1-.92-2.28q0-3,3.59-3.54l3.26-.46q0-2.77-2.24-2.77a5.35,5.35,0,0,0-3.54,1.34v-1.78a6.74,6.74,0,0,1,3.69-1q3.83,0,3.83,4.05ZM20,136.76l-2.62.36a4.26,4.26,0,0,0-1.82.6,1.73,1.73,0,0,0-.62,1.52,1.66,1.66,0,0,0,.57,1.3A2.19,2.19,0,0,0,17,141a2.79,2.79,0,0,0,2.14-.91,3.24,3.24,0,0,0,.84-2.3Z"
    transform="translate(-0.92)"/><path
    d="M32.39,141.75a5.65,5.65,0,0,1-3,.75A4.92,4.92,0,0,1,25.67,141a5.48,5.48,0,0,1-1.43-3.92,6,6,0,0,1,1.54-4.31,5.38,5.38,0,0,1,4.11-1.63,5.71,5.71,0,0,1,2.53.53v1.78a4.42,4.42,0,0,0-2.59-.85,3.5,3.5,0,0,0-2.73,1.19A4.53,4.53,0,0,0,26,136.93a4.31,4.31,0,0,0,1,3,3.45,3.45,0,0,0,2.69,1.1,4.36,4.36,0,0,0,2.67-.94Z"
    transform="translate(-0.92)"/><path d="M35.92,128.63a1.1,1.1,0,0,1-.8-.32,1.07,1.07,0,0,1-.33-.81,1.11,1.11,0,0,1,1.12-1.13,1.12,1.12,0,0,1,.81.32,1.13,1.13,0,0,1,0,1.61A1.11,1.11,0,0,1,35.92,128.63Zm.85,13.62H35V131.39h1.74Z" transform="translate(-0.92)"/><path d="M45.66,127.69a2.31,2.31,0,0,0-1.16-.29q-1.83,0-1.82,2.3v1.68h2.55v1.49H42.68v9.38H40.95v-9.38H39.09v-1.49h1.86v-1.76a3.66,3.66,0,0,1,1-2.7,3.33,3.33,0,0,1,2.46-1,3.4,3.4,0,0,1,1.26.19Z" transform="translate(-0.92)"/><path d="M48,128.63a1.1,1.1,0,0,1-.8-.32,1.07,1.07,0,0,1-.33-.81A1.11,1.11,0,0,1,48,126.37a1.12,1.12,0,0,1,.81.32,1.13,1.13,0,0,1,0,1.61A1.11,1.11,0,0,1,48,128.63Zm.85,13.62H47.09V131.39h1.74Z" transform="translate(-0.92)"/><path
    d="M59.76,141.75a5.65,5.65,0,0,1-3,.75A4.92,4.92,0,0,1,53,141a5.48,5.48,0,0,1-1.43-3.92,6,6,0,0,1,1.54-4.31,5.38,5.38,0,0,1,4.11-1.63,5.71,5.71,0,0,1,2.53.53v1.78a4.42,4.42,0,0,0-2.59-.85,3.5,3.5,0,0,0-2.73,1.19,4.53,4.53,0,0,0-1.07,3.14,4.31,4.31,0,0,0,1,3,3.45,3.45,0,0,0,2.69,1.1,4.36,4.36,0,0,0,2.67-.94Z"
    transform="translate(-0.92)"/><path d="M80.35,142.25h-2L76.77,138H70.32l-1.52,4.27h-2L72.65,127H74.5Zm-4.17-5.87L73.8,129.9a6.15,6.15,0,0,1-.23-1h0a5.71,5.71,0,0,1-.24,1l-2.37,6.48Z" transform="translate(-0.92)"/><path
    d="M81.7,141.86V140a5.15,5.15,0,0,0,3.13,1q2.29,0,2.29-1.53a1.32,1.32,0,0,0-.2-.74,2,2,0,0,0-.53-.54,4.13,4.13,0,0,0-.79-.42l-1-.39a12.38,12.38,0,0,1-1.27-.58,3.81,3.81,0,0,1-.91-.66,2.44,2.44,0,0,1-.55-.83,2.94,2.94,0,0,1-.19-1.09,2.59,2.59,0,0,1,.35-1.35,3.1,3.1,0,0,1,.93-1,4.33,4.33,0,0,1,1.33-.6,5.89,5.89,0,0,1,1.54-.2,6.24,6.24,0,0,1,2.53.49v1.76a4.92,4.92,0,0,0-2.76-.79,3.23,3.23,0,0,0-.88.11,2.17,2.17,0,0,0-.67.31,1.45,1.45,0,0,0-.44.48,1.27,1.27,0,0,0-.15.62,1.49,1.49,0,0,0,.15.71,1.56,1.56,0,0,0,.45.51,3.44,3.44,0,0,0,.72.4l1,.39a13.4,13.4,0,0,1,1.29.57,4.43,4.43,0,0,1,1,.66,2.55,2.55,0,0,1,.62.84,2.72,2.72,0,0,1,.22,1.14,2.68,2.68,0,0,1-.36,1.4,3,3,0,0,1-.95,1,4.34,4.34,0,0,1-1.37.58,6.73,6.73,0,0,1-1.62.19A6.16,6.16,0,0,1,81.7,141.86Z"
    transform="translate(-0.92)"/><path d="M92.47,128.63a1.1,1.1,0,0,1-.8-.32,1.07,1.07,0,0,1-.33-.81,1.11,1.11,0,0,1,1.12-1.13,1.12,1.12,0,0,1,.81.32,1.13,1.13,0,0,1,0,1.61A1.11,1.11,0,0,1,92.47,128.63Zm.85,13.62H91.58V131.39h1.74Z" transform="translate(-0.92)"/><path
    d="M104.62,142.25h-1.74v-1.7h0a3.64,3.64,0,0,1-3.34,2,3.58,3.58,0,0,1-2.54-.86,3,3,0,0,1-.92-2.28q0-3,3.59-3.54l3.26-.46q0-2.77-2.24-2.77a5.35,5.35,0,0,0-3.54,1.34v-1.78a6.74,6.74,0,0,1,3.69-1q3.83,0,3.83,4.05Zm-1.74-5.5-2.62.36a4.26,4.26,0,0,0-1.82.6,1.73,1.73,0,0,0-.62,1.52,1.66,1.66,0,0,0,.57,1.3,2.19,2.19,0,0,0,1.51.5,2.79,2.79,0,0,0,2.14-.91,3.24,3.24,0,0,0,.84-2.3Z"
    transform="translate(-0.92)"/><path d="M123.08,128.65h-4.39v13.6h-1.78v-13.6h-4.38V127h10.56Z" transform="translate(-0.92)"/><path d="M130.9,133.15a2.13,2.13,0,0,0-1.32-.35,2.22,2.22,0,0,0-1.86,1.05,4.86,4.86,0,0,0-.75,2.86v5.54h-1.74V131.39H127v2.24h0a3.79,3.79,0,0,1,1.14-1.79,2.59,2.59,0,0,1,1.71-.64,2.82,2.82,0,0,1,1,.15Z" transform="translate(-0.92)"/><path
    d="M140.57,142.25h-1.74v-1.7h0a3.64,3.64,0,0,1-3.34,2,3.58,3.58,0,0,1-2.54-.86,3,3,0,0,1-.92-2.28q0-3,3.59-3.54l3.26-.46q0-2.77-2.24-2.77a5.35,5.35,0,0,0-3.54,1.34v-1.78a6.74,6.74,0,0,1,3.69-1q3.83,0,3.83,4.05Zm-1.74-5.5-2.62.36a4.26,4.26,0,0,0-1.82.6,1.73,1.73,0,0,0-.62,1.52,1.66,1.66,0,0,0,.57,1.3,2.19,2.19,0,0,0,1.51.5,2.79,2.79,0,0,0,2.14-.91,3.24,3.24,0,0,0,.84-2.3Z"
    transform="translate(-0.92)"/><path d="M152.39,131.39l-4.33,10.87h-1.71l-4.12-10.87h1.91l2.76,7.89a7.11,7.11,0,0,1,.38,1.52h0a7.15,7.15,0,0,1,.34-1.47l2.89-7.94Z" transform="translate(-0.92)"/><path
    d="M163,137.25h-7.67a4.06,4.06,0,0,0,1,2.8,3.36,3.36,0,0,0,2.57,1,5.34,5.34,0,0,0,3.37-1.21v1.63a6.31,6.31,0,0,1-3.79,1,4.59,4.59,0,0,1-3.62-1.48,6.06,6.06,0,0,1-1.32-4.17,6,6,0,0,1,1.44-4.13,4.61,4.61,0,0,1,3.57-1.6,4.09,4.09,0,0,1,3.3,1.38,5.75,5.75,0,0,1,1.17,3.83Zm-1.78-1.47a3.54,3.54,0,0,0-.73-2.34,2.48,2.48,0,0,0-2-.84,2.81,2.81,0,0,0-2.09.88,4,4,0,0,0-1.06,2.3Z"
    transform="translate(-0.92)"/><path d="M167.36,142.25h-1.74V126.17h1.74Z" transform="translate(-0.92)"/><path d="M188.85,142.25h-2L185.26,138h-6.45l-1.52,4.27h-2L181.14,127H183Zm-4.17-5.87-2.39-6.48a6.3,6.3,0,0,1-.23-1h0a5.75,5.75,0,0,1-.24,1l-2.37,6.48Z" transform="translate(-0.92)"/><path
    d="M190.19,141.86V140a5.15,5.15,0,0,0,3.13,1q2.29,0,2.29-1.53a1.32,1.32,0,0,0-.2-.74,2,2,0,0,0-.53-.54,4.1,4.1,0,0,0-.79-.42l-1-.39a12.41,12.41,0,0,1-1.27-.58,3.82,3.82,0,0,1-.91-.66,2.45,2.45,0,0,1-.55-.83,2.94,2.94,0,0,1-.19-1.09,2.6,2.6,0,0,1,.35-1.35,3.1,3.1,0,0,1,.93-1,4.34,4.34,0,0,1,1.33-.6,5.89,5.89,0,0,1,1.54-.2,6.24,6.24,0,0,1,2.53.49v1.76a4.92,4.92,0,0,0-2.76-.79,3.23,3.23,0,0,0-.88.11,2.17,2.17,0,0,0-.67.31,1.45,1.45,0,0,0-.43.48,1.27,1.27,0,0,0-.15.62,1.49,1.49,0,0,0,.15.71,1.57,1.57,0,0,0,.45.51,3.44,3.44,0,0,0,.72.4l1,.39a13.59,13.59,0,0,1,1.29.57,4.43,4.43,0,0,1,1,.66,2.57,2.57,0,0,1,.62.84,2.73,2.73,0,0,1,.22,1.14,2.67,2.67,0,0,1-.36,1.4,3,3,0,0,1-.95,1,4.34,4.34,0,0,1-1.37.58,6.72,6.72,0,0,1-1.62.19A6.16,6.16,0,0,1,190.19,141.86Z"
    transform="translate(-0.92)"/><path
    d="M199.41,141.86V140a5.15,5.15,0,0,0,3.13,1q2.29,0,2.29-1.53a1.32,1.32,0,0,0-.2-.74,2,2,0,0,0-.53-.54,4.1,4.1,0,0,0-.79-.42l-1-.39a12.41,12.41,0,0,1-1.27-.58,3.82,3.82,0,0,1-.91-.66,2.45,2.45,0,0,1-.55-.83,2.94,2.94,0,0,1-.19-1.09,2.6,2.6,0,0,1,.35-1.35,3.1,3.1,0,0,1,.93-1,4.34,4.34,0,0,1,1.33-.6,5.89,5.89,0,0,1,1.54-.2,6.24,6.24,0,0,1,2.53.49v1.76a4.92,4.92,0,0,0-2.76-.79,3.23,3.23,0,0,0-.88.11,2.17,2.17,0,0,0-.67.31,1.45,1.45,0,0,0-.43.48,1.27,1.27,0,0,0-.15.62,1.49,1.49,0,0,0,.15.71,1.57,1.57,0,0,0,.45.51,3.45,3.45,0,0,0,.72.4l1,.39a13.59,13.59,0,0,1,1.29.57,4.43,4.43,0,0,1,1,.66,2.57,2.57,0,0,1,.62.84,2.73,2.73,0,0,1,.22,1.14,2.67,2.67,0,0,1-.36,1.4,3,3,0,0,1-.95,1,4.34,4.34,0,0,1-1.37.58,6.72,6.72,0,0,1-1.62.19A6.16,6.16,0,0,1,199.41,141.86Z"
    transform="translate(-0.92)"/><path
    d="M213.83,142.51A5,5,0,0,1,210,141a5.64,5.64,0,0,1-1.44-4,5.88,5.88,0,0,1,1.5-4.28,5.38,5.38,0,0,1,4-1.54,4.87,4.87,0,0,1,3.79,1.5,5.93,5.93,0,0,1,1.36,4.15,5.83,5.83,0,0,1-1.47,4.16A5.15,5.15,0,0,1,213.83,142.51Zm.13-9.91a3.31,3.31,0,0,0-2.65,1.14,4.68,4.68,0,0,0-1,3.15,4.43,4.43,0,0,0,1,3A3.35,3.35,0,0,0,214,141a3.18,3.18,0,0,0,2.59-1.09,4.74,4.74,0,0,0,.91-3.11,4.82,4.82,0,0,0-.91-3.14A3.17,3.17,0,0,0,214,132.6Z"
    transform="translate(-0.92)"/><path
    d="M229.43,141.75a5.65,5.65,0,0,1-3,.75,4.92,4.92,0,0,1-3.75-1.51,5.48,5.48,0,0,1-1.43-3.92,6,6,0,0,1,1.54-4.31,5.38,5.38,0,0,1,4.11-1.63,5.7,5.7,0,0,1,2.53.53v1.78a4.42,4.42,0,0,0-2.59-.85,3.5,3.5,0,0,0-2.73,1.19,4.53,4.53,0,0,0-1.07,3.14,4.31,4.31,0,0,0,1,3,3.46,3.46,0,0,0,2.69,1.1,4.36,4.36,0,0,0,2.67-.94Z"
    transform="translate(-0.92)"/><path d="M233,128.63a1.1,1.1,0,0,1-.8-.32,1.07,1.07,0,0,1-.33-.81,1.11,1.11,0,0,1,1.12-1.13,1.12,1.12,0,0,1,.81.32,1.13,1.13,0,0,1,0,1.61A1.11,1.11,0,0,1,233,128.63Zm.85,13.62h-1.74V131.39h1.74Z" transform="translate(-0.92)"/><path
    d="M245.1,142.25h-1.74v-1.7h0a3.64,3.64,0,0,1-3.34,2,3.57,3.57,0,0,1-2.54-.86,3,3,0,0,1-.92-2.28q0-3,3.59-3.54l3.26-.46q0-2.77-2.24-2.77a5.35,5.35,0,0,0-3.54,1.34v-1.78a6.74,6.74,0,0,1,3.69-1q3.83,0,3.83,4.05Zm-1.74-5.5-2.62.36a4.26,4.26,0,0,0-1.83.6,1.73,1.73,0,0,0-.62,1.52,1.66,1.66,0,0,0,.57,1.3,2.19,2.19,0,0,0,1.51.5,2.79,2.79,0,0,0,2.14-.91,3.24,3.24,0,0,0,.84-2.3Z"
    transform="translate(-0.92)"/><path d="M253.42,142.15a3.36,3.36,0,0,1-1.62.34q-2.85,0-2.85-3.18v-6.43h-1.87v-1.49h1.87v-2.65l1.74-.56v3.21h2.74v1.49h-2.74V139a2.54,2.54,0,0,0,.37,1.56,1.48,1.48,0,0,0,1.23.47,1.83,1.83,0,0,0,1.14-.36Z" transform="translate(-0.92)"/><path d="M256.64,128.63a1.1,1.1,0,0,1-.8-.32,1.07,1.07,0,0,1-.33-.81,1.11,1.11,0,0,1,1.12-1.13,1.12,1.12,0,0,1,.81.32,1.13,1.13,0,0,1,0,1.61A1.11,1.11,0,0,1,256.64,128.63Zm.85,13.62h-1.74V131.39h1.74Z" transform="translate(-0.92)"/><path
    d="M265.55,142.51A5,5,0,0,1,261.7,141a5.64,5.64,0,0,1-1.44-4,5.88,5.88,0,0,1,1.5-4.28,5.38,5.38,0,0,1,4-1.54,4.88,4.88,0,0,1,3.79,1.5,5.93,5.93,0,0,1,1.36,4.15,5.83,5.83,0,0,1-1.47,4.16A5.15,5.15,0,0,1,265.55,142.51Zm.13-9.91a3.31,3.31,0,0,0-2.65,1.14,4.68,4.68,0,0,0-1,3.15,4.43,4.43,0,0,0,1,3,3.35,3.35,0,0,0,2.64,1.11,3.18,3.18,0,0,0,2.59-1.09,4.74,4.74,0,0,0,.91-3.11,4.82,4.82,0,0,0-.91-3.14A3.17,3.17,0,0,0,265.68,132.6Z"
    transform="translate(-0.92)"/><path d="M282.76,142.25H281v-6.2q0-3.46-2.53-3.46a2.74,2.74,0,0,0-2.16,1,3.64,3.64,0,0,0-.85,2.48v6.2h-1.74V131.39h1.74v1.8h0a3.92,3.92,0,0,1,3.57-2.06,3.32,3.32,0,0,1,2.73,1.15,5.13,5.13,0,0,1,.94,3.33Z" transform="translate(-0.92)"/><path
    d="M11.43,168.56a8.26,8.26,0,0,1-3.89.82,6.27,6.27,0,0,1-4.81-1.93,7.14,7.14,0,0,1-1.81-5.08,7.48,7.48,0,0,1,2-5.46,6.9,6.9,0,0,1,5.15-2.08,8.27,8.27,0,0,1,3.32.58v1.76a6.72,6.72,0,0,0-3.34-.84,5.12,5.12,0,0,0-3.93,1.62,6.1,6.1,0,0,0-1.51,4.33,5.8,5.8,0,0,0,1.41,4.1,4.79,4.79,0,0,0,3.7,1.53,6.93,6.93,0,0,0,3.67-.94Z"
    transform="translate(-0.92)"
    style="fill:#0cf"/><path d="M27.29,169.15H25.64v-6.42H18.36v6.42H16.71V155.07h1.65v6.18h7.28v-6.18h1.65Z" transform="translate(-0.92)" style="fill:#0cf"/><path d="M34.79,169.15H33.18V154.27h1.61Z" transform="translate(-0.92)" style="fill:#0cf"/><path d="M52,169.15H50l-7.25-11.22a4.72,4.72,0,0,1-.45-.88h-.06a14.5,14.5,0,0,1,.08,1.93v10.17H40.67V155.07h2.14l7,11q.44.69.57.94h0a14.91,14.91,0,0,1-.1-2.07v-9.92H52Z" transform="translate(-0.92)" style="fill:#0cf"/><path d="M65.59,169.15H58.13V155.07h7.15v1.49h-5.5v4.68h5.08v1.48H59.78v4.93h5.81Z" transform="translate(-0.92)" style="fill:#0cf"/><path
    d="M70.05,168.58v-1.94a3.74,3.74,0,0,0,.8.53,6.42,6.42,0,0,0,1,.4,7.7,7.7,0,0,0,1,.25,5.8,5.8,0,0,0,1,.09,3.77,3.77,0,0,0,2.27-.56,2.12,2.12,0,0,0,.5-2.62,2.82,2.82,0,0,0-.69-.77,6.8,6.8,0,0,0-1-.67l-1.3-.67q-.74-.37-1.37-.76a6,6,0,0,1-1.11-.84,3.51,3.51,0,0,1-.74-1,3.57,3.57,0,0,1,.15-3,3.63,3.63,0,0,1,1.11-1.17,5,5,0,0,1,1.57-.69,7.18,7.18,0,0,1,1.79-.23,6.86,6.86,0,0,1,3,.5v1.86a5.5,5.5,0,0,0-3.2-.86,5.27,5.27,0,0,0-1.08.11,3.05,3.05,0,0,0-1,.37,2.13,2.13,0,0,0-.69.66,1.75,1.75,0,0,0-.27,1,2,2,0,0,0,.2.93,2.28,2.28,0,0,0,.59.72,5.87,5.87,0,0,0,1,.63q.56.3,1.3.67t1.43.79a6.58,6.58,0,0,1,1.19.91,4.07,4.07,0,0,1,.81,1.11,3.12,3.12,0,0,1,.3,1.39,3.53,3.53,0,0,1-.41,1.76,3.34,3.34,0,0,1-1.1,1.17,4.8,4.8,0,0,1-1.6.65,8.76,8.76,0,0,1-1.9.2,7.69,7.69,0,0,1-.82-.05q-.49-.05-1-.16a8.06,8.06,0,0,1-1-.25A3,3,0,0,1,70.05,168.58Z"
    transform="translate(-0.92)"
    style="fill:#0cf"/><path d="M91.27,169.15H83.8V155.07H91v1.49h-5.5v4.68h5.08v1.48H85.45v4.93h5.81Z" transform="translate(-0.92)" style="fill:#0cf"/><path d="M115.25,156.56h-4.06v12.59h-1.65V156.56h-4.05v-1.49h9.77Z" transform="translate(-0.92)" style="fill:#0cf"/><path d="M130.76,169.15h-1.83l-1.49-3.95h-6l-1.4,3.95h-1.84l5.4-14.08h1.71Zm-3.86-5.43-2.21-6a5.73,5.73,0,0,1-.22-.94h0a5.24,5.24,0,0,1-.23.94l-2.19,6Z" transform="translate(-0.92)" style="fill:#0cf"/><path d="M136.64,169.15H135V154.27h1.61Z" transform="translate(-0.92)" style="fill:#0cf"/><path
    d="M144.18,163.83v5.32h-1.65V155.07h3.87a5.11,5.11,0,0,1,3.5,1.1,3.93,3.93,0,0,1,1.24,3.1,4.27,4.27,0,0,1-1.38,3.28,5.27,5.27,0,0,1-3.73,1.28Zm0-7.26v5.77h1.73a3.86,3.86,0,0,0,2.61-.78,2.76,2.76,0,0,0,.9-2.2q0-2.79-3.3-2.79Z"
    transform="translate(-0.92)"
    style="fill:#0cf"/><path d="M163.66,169.15H156.2V155.07h7.15v1.49h-5.5v4.68h5.08v1.48h-5.08v4.93h5.81Z" transform="translate(-0.92)" style="fill:#0cf"/><path d="M170.18,169.15h-1.61V154.27h1.61Z" transform="translate(-0.92)" style="fill:#0cf"/><path
    d="M196.18,168.56a8.25,8.25,0,0,1-3.89.82,6.27,6.27,0,0,1-4.81-1.93,7.13,7.13,0,0,1-1.81-5.08,7.48,7.48,0,0,1,2-5.46,6.9,6.9,0,0,1,5.15-2.08,8.27,8.27,0,0,1,3.32.58v1.76a6.72,6.72,0,0,0-3.34-.84,5.12,5.12,0,0,0-3.93,1.62,6.1,6.1,0,0,0-1.51,4.33,5.8,5.8,0,0,0,1.41,4.1,4.79,4.79,0,0,0,3.7,1.53,6.93,6.93,0,0,0,3.67-.94Z"
    transform="translate(-0.92)"
    style="fill:#0cf"/><path d="M212,169.15H210.4v-6.42h-7.28v6.42h-1.65V155.07h1.65v6.18h7.28v-6.18H212Z" transform="translate(-0.92)" style="fill:#0cf"/><path d="M229,169.15h-1.83l-1.49-3.95h-6l-1.4,3.95h-1.84l5.4-14.08h1.71Zm-3.86-5.43-2.21-6a5.66,5.66,0,0,1-.22-.94h0a5.31,5.31,0,0,1-.23.94l-2.19,6Z" transform="translate(-0.92)" style="fill:#0cf"/><path
    d="M235.18,163.83v5.32h-1.65V155.07h3.87a5.11,5.11,0,0,1,3.5,1.1,3.93,3.93,0,0,1,1.24,3.1,4.27,4.27,0,0,1-1.38,3.28,5.27,5.27,0,0,1-3.73,1.28Zm0-7.26v5.77h1.73a3.86,3.86,0,0,0,2.61-.78,2.76,2.76,0,0,0,.9-2.2q0-2.79-3.3-2.79Z"
    transform="translate(-0.92)"
    style="fill:#0cf"/><path d="M255.53,156.56h-4.06v12.59h-1.65V156.56h-4.05v-1.49h9.77Z" transform="translate(-0.92)" style="fill:#0cf"/><path d="M267.61,169.15h-7.46V155.07h7.15v1.49h-5.5v4.68h5.08v1.48H261.8v4.93h5.81Z" transform="translate(-0.92)" style="fill:#0cf"/><path
    d="M282.82,169.15h-2l-2.36-3.95a8.75,8.75,0,0,0-.63-.94,3.6,3.6,0,0,0-.62-.63,2.19,2.19,0,0,0-.69-.36,2.86,2.86,0,0,0-.83-.11h-1.35v6h-1.65V155.07h4.2a6,6,0,0,1,1.7.23,3.82,3.82,0,0,1,1.35.7,3.27,3.27,0,0,1,.9,1.17,3.89,3.89,0,0,1,.32,1.64,4,4,0,0,1-.22,1.35,3.54,3.54,0,0,1-.63,1.09,3.81,3.81,0,0,1-1,.82,5,5,0,0,1-1.29.53v0a3,3,0,0,1,.61.36,3.39,3.39,0,0,1,.5.48,6.29,6.29,0,0,1,.47.62l.52.81Zm-8.44-12.59v5.11h2.24a3.41,3.41,0,0,0,1.14-.19,2.65,2.65,0,0,0,.91-.54,2.43,2.43,0,0,0,.6-.85,2.87,2.87,0,0,0,.22-1.13,2.21,2.21,0,0,0-.73-1.76,3.14,3.14,0,0,0-2.12-.63Z"
    transform="translate(-0.92)"
    style="fill:#0cf"/></svg>
