<svg version="1.1" id="reload" xmlns:sketch="http://www.bohemiancoding.com/sketch/ns" xmlns="http://www.w3.org/2000/svg" xmlns:xlink="http://www.w3.org/1999/xlink" x="0px" y="0px" viewBox="0 0 30 30" style="enable-background:new 0 0 30 30;" xml:space="preserve">
	<g id="Page-1">
		<g id="Icons-AV" transform="translate(-212.000000, 0.000000)">
			<g id="loop" transform="translate(212.000000, 0.000000)">
				<path
					id="Shape"
					d="M4.1,15H0l5.5,5.5L11,15H6.8c0-4.5,3.7-8.2,8.2-8.2c1.4,0,2.7,0.4,3.8,1l2-2c-1.8-1-3.7-1.6-5.9-1.6
				C9,4.1,4.1,9,4.1,15L4.1,15z M23.2,15c0,4.5-3.7,8.2-8.2,8.2c-1.4,0-2.7-0.4-3.8-1l-2,2c1.8,1,3.7,1.6,5.9,1.6
				c6,0,10.9-4.9,10.9-10.9h4l-5.5-5.5L19.1,15H23.2L23.2,15z"/>
			</g>
		</g>
	</g>
</svg>
